<svg xmlns="http://www.w3.org/2000/svg" width="90.293" height="71.859" viewBox="0 0 90.293 71.859"><defs><style>.a{fill:none;stroke:#5f9597;stroke-linecap:round;stroke-linejoin:round;stroke-width:2px;}</style></defs><g transform="translate(-903.685 -2121.627)"><path class="a" d="M940.36,2160.483c0,4.436-7.986,8.033-17.836,8.033s-17.839-3.6-17.839-8.033,7.986-8.035,17.839-8.035S940.36,2156.045,940.36,2160.483Z"/><path class="a" d="M928.559,2156.163a19.8,19.8,0,0,1,2.441.664"/><path class="a" d="M914.147,2156.793a26.8,26.8,0,0,1,8.377-1.219c1.068,0,2.105.051,3.1.147"/><path class="a" d="M940.36,2168.25c0,4.437-7.986,8.034-17.836,8.034s-17.839-3.6-17.839-8.034"/><path class="a" d="M918.844,2184.214c-8.086-.763-14.159-3.994-14.159-7.863"/><path class="a" d="M940.36,2176.351c0,1.794-1.3,3.451-3.512,4.788"/><path class="a" d="M904.685,2160.231v24.221c0,4.438,7.986,8.034,17.839,8.034s17.836-3.6,17.836-8.034v-24.221"/><line class="a" y2="2.297" transform="translate(922.601 2182.305)"/><line class="a" y2="2.297" transform="translate(926.078 2182.082)"/><line class="a" y2="2.297" transform="translate(929.556 2181.524)"/><line class="a" y2="2.297" transform="translate(933.331 2180.631)"/><path class="a" d="M992.978,2160.483c0,4.436-7.987,8.033-17.838,8.033s-17.838-3.6-17.838-8.033,7.986-8.035,17.838-8.035S992.978,2156.045,992.978,2160.483Z"/><path class="a" d="M981.176,2156.163a19.752,19.752,0,0,1,2.441.664"/><path class="a" d="M966.764,2156.793a26.8,26.8,0,0,1,8.376-1.219c1.069,0,2.106.051,3.1.147"/><path class="a" d="M992.978,2168.25c0,4.437-7.987,8.034-17.838,8.034s-17.838-3.6-17.838-8.034"/><path class="a" d="M971.461,2184.214c-8.086-.763-14.159-3.994-14.159-7.863"/><path class="a" d="M992.978,2176.351c0,1.794-1.307,3.451-3.513,4.788"/><path class="a" d="M957.3,2160.231v24.221c0,4.438,7.986,8.034,17.838,8.034s17.838-3.6,17.838-8.034v-24.221"/><line class="a" y2="2.297" transform="translate(975.218 2182.305)"/><line class="a" y2="2.297" transform="translate(978.695 2182.082)"/><line class="a" y2="2.297" transform="translate(982.173 2181.524)"/><line class="a" y2="2.297" transform="translate(985.948 2180.631)"/><path class="a" d="M963.06,2141.817a1.17,1.17,0,0,1-1.121,1.676H939.584a2.54,2.54,0,0,1-2.231-1.676l-3.235-9.757a1.167,1.167,0,0,1,1.119-1.676h22.356a2.543,2.543,0,0,1,2.232,1.676Z"/><path class="a" d="M937.749,2128.043v-1.518a1.551,1.551,0,0,1,1.551-1.55h10.886l3.3-2.348h7.59a1.55,1.55,0,0,1,1.551,1.55v10.066"/><path class="a" d="M969.847,2134.759a5.294,5.294,0,0,1,5.293,5.295v7.595"/><path class="a" d="M922.423,2147.649v-7.595a5.3,5.3,0,0,1,5.3-5.295"/></g></svg>