<svg xmlns="http://www.w3.org/2000/svg" width="92.911" height="76.442" viewBox="0 0 92.911 76.442"><defs><style>.a{fill:none;stroke:#5f9597;stroke-linecap:round;stroke-linejoin:round;stroke-width:2px;}</style></defs><g transform="translate(1 1)"><line class="a" x1="90.839" transform="translate(0.072 16.141)"/><line class="a" x1="1.553" transform="translate(67.191 8.412)"/><line class="a" x1="1.551" transform="translate(73.89 8.412)"/><line class="a" x1="1.554" transform="translate(80.586 8.412)"/><path class="a" d="M1331.583,1749.549a3.591,3.591,0,0,1,3.59-3.589h83.541a3.587,3.587,0,0,1,3.587,3.589v67.267a3.585,3.585,0,0,1-3.587,3.586h-83.64a3.585,3.585,0,0,1-3.585-3.586Z" transform="translate(-1331.489 -1745.961)"/><line class="a" x2="26.491" transform="translate(47.749 33.784)"/><line class="a" x2="26.491" transform="translate(47.749 43.324)"/><line class="a" x2="54.248" transform="translate(19.992 53.632)"/><g transform="translate(12.682 30.87)"><path class="a" d="M1359.222,1775.33l3.868,3.865a1.8,1.8,0,0,1,0,2.537l-3.868,3.867" transform="translate(-1340.026 -1772.443)"/><path class="a" d="M1346.914,1785.6l-3.868-3.867a1.8,1.8,0,0,1,0-2.537l3.868-3.865" transform="translate(-1342.522 -1772.443)"/><line class="a" x1="6.266" y2="16.042" transform="translate(8.662)"/></g></g></svg>