<svg xmlns="http://www.w3.org/2000/svg" width="92.697" height="75.119" viewBox="0 0 92.697 75.119"><defs><style>.a{fill:none;stroke:#5f9597;stroke-linecap:round;stroke-linejoin:round;stroke-width:2px;}</style></defs><g transform="translate(1 1)"><line class="a" x2="81.72" transform="translate(0 47.234)"/><line class="a" x2="7.557" transform="translate(38.737 54.591)"/><line class="a" y2="11.388" transform="translate(42.516 61.449)"/><line class="a" x2="18.894" transform="translate(33.069 73.119)"/><line class="a" x2="32.388" transform="translate(8.473 38.661)"/><line class="a" x2="18.64" transform="translate(8.473 30.747)"/><g transform="translate(58.675 7.79)"><path class="a" d="M569.707,1769.877l-3.447-1.294a2.219,2.219,0,0,1-1.187-2.869l1.523-3.352a.7.7,0,0,0-.14-.781l-1.969-1.969a.691.691,0,0,0-.78-.139l-3.352,1.521a2.071,2.071,0,0,1-1.684-.01,2.042,2.042,0,0,1-1.185-1.177l-1.293-3.446a.7.7,0,0,0-.652-.452h-2.786a.7.7,0,0,0-.651.452l-1.293,3.446a2.211,2.211,0,0,1-2.869,1.187l-3.352-1.521a.693.693,0,0,0-.779.139l-1.971,1.969a.7.7,0,0,0-.139.781l1.522,3.352a2.208,2.208,0,0,1-1.187,2.869l-3.446,1.294a.7.7,0,0,0-.451.651v2.785a.694.694,0,0,0,.451.651l3.446,1.3a2.214,2.214,0,0,1,1.187,2.867l-1.522,3.353a.7.7,0,0,0,.139.779l1.971,1.97a.691.691,0,0,0,.779.14l3.352-1.522a2.071,2.071,0,0,1,1.686.012,2.04,2.04,0,0,1,1.183,1.175l1.293,3.446a.7.7,0,0,0,.651.453h2.786a.7.7,0,0,0,.652-.453l1.293-3.446a2.214,2.214,0,0,1,2.869-1.186l3.352,1.522a.693.693,0,0,0,.78-.14l1.969-1.97a.694.694,0,0,0,.14-.779l-1.523-3.353a2.209,2.209,0,0,1,1.187-2.867l3.447-1.3a.7.7,0,0,0,.453-.651v-2.785A.7.7,0,0,0,569.707,1769.877Z" transform="translate(-538.138 -1755.909)"/><path class="a" d="M552.791,1764.993a5.569,5.569,0,1,1-5.569,5.57A5.569,5.569,0,0,1,552.791,1764.993Z" transform="translate(-536.781 -1754.552)"/></g><g transform="translate(9.199 6.785)"><path class="a" d="M510.86,1757.406l3.651,3.648a1.693,1.693,0,0,1,0,2.4l-3.651,3.651" transform="translate(-492.737 -1754.68)"/><path class="a" d="M499.239,1767.1l-3.651-3.651a1.7,1.7,0,0,1,0-2.4l3.651-3.648" transform="translate(-495.093 -1754.68)"/><line class="a" x1="5.916" y2="15.144" transform="translate(8.178)"/></g><path class="a" d="M572.121,1791.706v15.365a3.555,3.555,0,0,1-3.555,3.555H490.647a3.557,3.557,0,0,1-3.556-3.555v-54.383a3.558,3.558,0,0,1,3.556-3.556h77.919a3.555,3.555,0,0,1,3.555,3.556" transform="translate(-487.091 -1749.132)"/></g></svg>