<svg xmlns="http://www.w3.org/2000/svg" width="119.613" height="81.726" viewBox="0 0 119.613 81.726"><defs><style>.a{fill:none;stroke:#5f9597;stroke-linecap:round;stroke-linejoin:round;stroke-width:2px;}</style></defs><g transform="translate(1 1)"><g transform="translate(47.651 15.971)"><line class="a" x1="7.449" transform="translate(34.194 7.4)"/><line class="a" x1="0.713" transform="translate(30.766 3.857)"/><line class="a" x1="0.712" transform="translate(33.838 3.857)"/><line class="a" x1="0.712" transform="translate(36.909 3.857)"/><path class="a" d="M939.147,1764.706l0-2.908a1.645,1.645,0,0,1,1.645-1.645h38.3a1.645,1.645,0,0,1,1.646,1.645v30.842a1.646,1.646,0,0,1-1.646,1.645H973.6" transform="translate(-939.147 -1760.153)"/></g><g transform="translate(35.991 24.946)"><line class="a" x1="41.649" transform="translate(0.034 7.401)"/><line class="a" x1="0.714" transform="translate(30.806 3.857)"/><line class="a" x1="0.712" transform="translate(33.878 3.857)"/><line class="a" x1="0.712" transform="translate(36.949 3.857)"/><path class="a" d="M929.047,1769.607a1.646,1.646,0,0,1,1.645-1.646H969a1.646,1.646,0,0,1,1.646,1.646v30.842a1.645,1.645,0,0,1-1.646,1.644H930.648a1.644,1.644,0,0,1-1.645-1.644Z" transform="translate(-929.003 -1767.961)"/><line class="a" x2="24.872" transform="translate(9.166 13.91)"/><line class="a" x2="24.872" transform="translate(9.166 19.848)"/><line class="a" x2="2.771" transform="translate(19.122 26.024)"/><line class="a" x2="2.77" transform="translate(31.268 26.024)"/><line class="a" x2="2.77" transform="translate(25.195 26.024)"/></g><line class="a" x1="41.65" transform="translate(0.033 7.4)"/><line class="a" x1="0.712" transform="translate(30.809 3.857)"/><line class="a" x1="0.712" transform="translate(33.879 3.857)"/><line class="a" x1="0.712" transform="translate(36.95 3.857)"/><path class="a" d="M929.841,1780.389h-30.5a1.645,1.645,0,0,1-1.645-1.645l.045-30.842a1.645,1.645,0,0,1,1.645-1.645h38.3a1.646,1.646,0,0,1,1.647,1.645v14.913" transform="translate(-897.691 -1746.258)"/><line class="a" x2="24.873" transform="translate(9.167 13.909)"/><line class="a" x2="24.873" transform="translate(9.167 19.847)"/><line class="a" x2="2.77" transform="translate(19.122 26.023)"/><line class="a" x2="2.769" transform="translate(25.196 26.023)"/><path class="a" d="M945.639,1752.81h50.777a4.369,4.369,0,0,1,4.369,4.369v55.484" transform="translate(-890.526 -1745.279)"/><line class="a" y1="26.114" x2="0.06" transform="translate(14.373 41.27)"/><path class="a" d="M903.917,1810.2a4.369,4.369,0,0,1,4.367-4.369H1010.02a4.371,4.371,0,0,1,4.371,4.369v2.511a4.37,4.37,0,0,1-4.371,4.37H908.166a4.367,4.367,0,0,1-4.367-4.368Z" transform="translate(-896.778 -1737.356)"/></g></svg>