<svg xmlns="http://www.w3.org/2000/svg" width="175.945" height="55.191" viewBox="0 0 175.945 55.191"><defs><style>.a{fill:#a6a8ab;mix-blend-mode:multiply;isolation:isolate;}.a,.b,.d,.e{fill-rule:evenodd;}.b{fill:#ffcb4e;}.c{fill:#0054a5;}.d{fill:#a7282d;}.e{fill:#e21f2a;}</style></defs><g transform="translate(-372.846 -660.456)"><path class="a" d="M544.99,718.8,543.27,666l-170.424-1.287c1.59,11.07,2.191,25.944.107,52.23,65.62-3.282,120.179-3.455,172.037,1.859" transform="translate(0 -3.153)"/><path class="b" d="M554.834,661.148l.358,49.942L381.841,710.4l-.357-49.941Z" transform="translate(-6.401)"/><g transform="translate(383.158 675.161)"><path class="c" d="M568.8,739.631q-1.086.314-2.112.719a11.954,11.954,0,0,0-2,1.017c-.13.079-.245.155-.342.228a2.214,2.214,0,0,0-.269.227,1.352,1.352,0,0,0-.375.553,2.4,2.4,0,0,0-.1.728.608.608,0,0,0,.068.347.3.3,0,0,0,.248.089,2.092,2.092,0,0,0,1.007-.425,12.953,12.953,0,0,0,1.341-1.017c.12-.1.239-.21.356-.316s.233-.2.337-.295c.408-.369.775-.722,1.105-1.057s.573-.594.73-.779Zm3.219,3.137c-.184.159-.406.345-.662.563s-.531.444-.819.68a4.826,4.826,0,0,1-.413.336c-.147.106-.294.211-.436.316a8.66,8.66,0,0,1-1.005.6,2.03,2.03,0,0,1-.891.246.679.679,0,0,1-.514-.236,1.362,1.362,0,0,1-.3-.493.437.437,0,0,0-.011-.109.915.915,0,0,1-.008-.108,2.916,2.916,0,0,1,.168-.918,12.3,12.3,0,0,1,.583-1.372c-.16.119-.376.3-.653.543s-.58.5-.907.78c-.079.053-.157.109-.227.167s-.143.115-.207.17a11.4,11.4,0,0,1-1.106.778,1.8,1.8,0,0,1-.829.326,1.021,1.021,0,0,1-.78-.394,3.424,3.424,0,0,1-.563-.888,2.584,2.584,0,0,1-.215-.524c-.054-.176-.093-.325-.12-.444v-.434a2,2,0,0,1,.01-.207,1.816,1.816,0,0,1,.031-.208,1.44,1.44,0,0,1,.126-.325,2.513,2.513,0,0,1,.21-.327,6.042,6.042,0,0,1,1.548-1.41,15.146,15.146,0,0,1,2.143-1.195,13.789,13.789,0,0,1,1.806-.67,5.422,5.422,0,0,1,1.472-.258,1.241,1.241,0,0,1,.673.177,1.557,1.557,0,0,1,.472.514,1.1,1.1,0,0,1,.056.126.235.235,0,0,1,.021.09.289.289,0,0,1-.117.247,1.219,1.219,0,0,1-.258.148l-.175.071-.142.047a1.015,1.015,0,0,1,.435.307.758.758,0,0,1,.119.444,1.112,1.112,0,0,1-.276.652q-.278.356-.593.731c-.092.105-.182.209-.267.314s-.168.211-.246.316a5,5,0,0,0-.267.493,1.1,1.1,0,0,0-.107.455.505.505,0,0,0,.186.413.685.685,0,0,0,.466.159h.086a.2.2,0,0,0,.09-.018,1.739,1.739,0,0,0,.772-.316c.3-.2.852-.593,1.658-1.185-.013.133-.023.237-.03.315a2.169,2.169,0,0,0-.01.219v.156a.792.792,0,0,0,.02.159Zm-15.2-8.645a4.378,4.378,0,0,1-.052.463.913.913,0,0,1-.126.328.382.382,0,0,1-.049.07.215.215,0,0,0-.049.068l-2.213,3a2.352,2.352,0,0,0,.306-.019c.1-.013.2-.027.3-.038s.192,0,.3-.012.2-.01.3-.01a.413.413,0,0,1,.227.06.183.183,0,0,1,.087.157.165.165,0,0,1-.087.138.943.943,0,0,1-.189.1c-.145.041-.284.075-.424.11s-.28.068-.426.107-.285.059-.423.1l-.426.119-.434.63c.41.054.721.086.939.1s.411.019.582.019h.118a7.43,7.43,0,0,0,.769-.04,7.958,7.958,0,0,0,.792-.118,10.333,10.333,0,0,0,2.28-.78,5.547,5.547,0,0,0,1.726-1.214,3.124,3.124,0,0,0,.336-.444,5.513,5.513,0,0,0,.3-.523,3.592,3.592,0,0,0,.219-.534,1.6,1.6,0,0,0,.077-.454c0-.368-.268-.641-.807-.819A9.477,9.477,0,0,0,559,734.3c-.408-.053-.8-.089-1.186-.107l-.947-.052h-.057Zm-1.127.1c-.894.093-1.792.208-2.685.346a17.12,17.12,0,0,0-2.627.621c-.367.132-.635.217-.8.257a3.105,3.105,0,0,1-.444.079h-.138a.418.418,0,0,1-.218-.048.148.148,0,0,1-.081-.13,1.253,1.253,0,0,1,.179-.513c.119-.224.257-.459.415-.71.041-.053.074-.1.107-.148a1,1,0,0,0,.089-.149c.186-.262.355-.494.515-.7s.248-.318.276-.344a5.4,5.4,0,0,1,2.142-.818,20.389,20.389,0,0,1,3.424-.465c.2-.012.389-.025.574-.03s.367-.01.552-.01.392,0,.581.01.386.017.585.03a8.433,8.433,0,0,1,3.334.9,3.042,3.042,0,0,1,1.522,2.992,4.951,4.951,0,0,1-2.005,4.155,11.366,11.366,0,0,1-4.41,2.081,13.629,13.629,0,0,1-1.414.239,11.875,11.875,0,0,1-1.35.078h-.238c-.2,0-.429-.009-.691-.028s-.665-.057-1.2-.11l-.83,1.3a.609.609,0,0,1,.284.161.328.328,0,0,1,.09.235,1.248,1.248,0,0,1-.206.464,8.614,8.614,0,0,1-.5.74,3.243,3.243,0,0,1-.256.336c-.093.1-.186.21-.277.316a3.713,3.713,0,0,1-.494.424.748.748,0,0,1-.414.168.647.647,0,0,1-.494-.187.727.727,0,0,1-.177-.523,2.2,2.2,0,0,1,.2-.8,7.755,7.755,0,0,1,.492-1c.054-.105.109-.205.167-.3s.117-.184.169-.276c.172-.277.332-.533.484-.771s.279-.44.385-.611a4.388,4.388,0,0,1-.4-.3,2.2,2.2,0,0,1-.256-.257,1.342,1.342,0,0,1-.149-.316,1.273,1.273,0,0,1-.048-.375,1.011,1.011,0,0,1,.206-.632,2.011,2.011,0,0,1,.74-.534,7.657,7.657,0,0,1,.888-.355c.357-.117.782-.249,1.286-.395Zm-13.326.967c-.186.171-.357.333-.515.483s-.3.3-.433.445a9.453,9.453,0,0,0-.811,1.008,11.031,11.031,0,0,0-.671,1.1c-.1.185-.21.378-.315.582s-.211.418-.315.642c.157-.158.307-.315.454-.474s.287-.309.431-.453a17.689,17.689,0,0,0,1.2-1.541,9.372,9.372,0,0,0,.97-1.777Zm.632,7.6c-.172.145-.37.3-.592.475s-.463.348-.713.531q-.276.179-.554.366c-.182.124-.367.247-.552.364a7,7,0,0,1-.967.454,2.464,2.464,0,0,1-.871.178,1.481,1.481,0,0,1-1.261-.552,3.52,3.52,0,0,1-.516-1.8,7.944,7.944,0,0,1,.674-3.227,15.474,15.474,0,0,1,1.639-2.873,8.959,8.959,0,0,1,.59-.749c.251-.29.526-.592.831-.908.091-.107.189-.21.3-.316s.211-.2.314-.3c.437-.422.843-.784,1.228-1.088a1.7,1.7,0,0,1,.866-.452.371.371,0,0,1,.306.168.675.675,0,0,1,.13.422v.03c0,.007-.006.01-.021.01-.012.146-.029.293-.049.445s-.043.3-.068.465c-.051.249-.118.5-.186.749s-.158.494-.251.731a7.8,7.8,0,0,1-1.224,2q-.789.958-1.657,1.846c-.248.262-.5.516-.759.759s-.5.484-.742.721c-.024.211-.047.395-.069.552a3.534,3.534,0,0,0-.029.416,1.41,1.41,0,0,0,.276.957,1.068,1.068,0,0,0,.831.305,2.933,2.933,0,0,0,1.273-.345,13.037,13.037,0,0,0,1.847-1.2c-.015.145-.024.264-.03.356s-.011.172-.011.237v.107a.78.78,0,0,0,.021.168Zm-9.221-3.157q-1.085.314-2.113.719a11.768,11.768,0,0,0-1.992,1.017,3.934,3.934,0,0,0-.347.228,2.162,2.162,0,0,0-.268.227,1.322,1.322,0,0,0-.375.553,2.315,2.315,0,0,0-.1.728.589.589,0,0,0,.07.347.3.3,0,0,0,.246.089,2.1,2.1,0,0,0,1.007-.425,13.01,13.01,0,0,0,1.344-1.017c.119-.1.238-.21.355-.316s.229-.2.338-.295c.407-.369.775-.722,1.1-1.057s.572-.594.731-.779Zm3.217,3.137c-.185.159-.4.345-.66.563s-.53.444-.817.68a4.58,4.58,0,0,1-.418.336c-.144.106-.288.211-.433.316a8.105,8.105,0,0,1-1.006.6,2.016,2.016,0,0,1-.889.246.675.675,0,0,1-.513-.236,1.308,1.308,0,0,1-.3-.493.739.739,0,0,0-.009-.109.415.415,0,0,1-.009-.108,2.9,2.9,0,0,1,.166-.918,13.338,13.338,0,0,1,.583-1.372q-.237.179-.652.543c-.274.244-.578.5-.906.78-.081.053-.154.109-.228.167s-.142.115-.208.17a11.207,11.207,0,0,1-1.105.778,1.8,1.8,0,0,1-.831.326,1.021,1.021,0,0,1-.779-.394,3.438,3.438,0,0,1-.562-.888,2.656,2.656,0,0,1-.218-.524c-.053-.176-.091-.325-.118-.444v-.434c0-.066,0-.135.009-.207s.018-.141.031-.208a1.41,1.41,0,0,1,.127-.325,2.71,2.71,0,0,1,.207-.327,6.1,6.1,0,0,1,1.551-1.41,14.908,14.908,0,0,1,2.142-1.195,13.836,13.836,0,0,1,1.805-.67,5.451,5.451,0,0,1,1.471-.258,1.219,1.219,0,0,1,.67.177,1.468,1.468,0,0,1,.475.514c.026.051.046.1.059.126a.247.247,0,0,1,.021.09.289.289,0,0,1-.12.247,1.2,1.2,0,0,1-.257.148c-.064.028-.123.05-.179.071l-.137.047a1.012,1.012,0,0,1,.433.307.734.734,0,0,1,.122.444,1.1,1.1,0,0,1-.279.652c-.186.237-.38.481-.593.731-.092.105-.18.209-.266.314s-.165.211-.245.316a4.406,4.406,0,0,0-.266.493,1.077,1.077,0,0,0-.11.455.513.513,0,0,0,.186.413.686.686,0,0,0,.465.159h.087a.2.2,0,0,0,.091-.018,1.716,1.716,0,0,0,.768-.316c.306-.2.856-.593,1.66-1.185-.013.133-.023.237-.029.315s-.012.152-.012.219v.156a.934.934,0,0,0,.021.159Zm-19.012-.789a15.629,15.629,0,0,1,2.122.218q1.018.178,2.025.414c.222.053.44.1.649.158l.653.159q.594.157,1.205.305c.407.1.823.188,1.243.266-.1.107-.22.224-.345.356s-.247.269-.364.414a10.271,10.271,0,0,1-1.007.879,1.893,1.893,0,0,1-1.166.4,5.369,5.369,0,0,1-.907-.108c-.4-.072-1.139-.215-2.232-.426-.21-.039-.424-.081-.641-.127s-.432-.082-.642-.109q-.968-.179-1.936-.277a19.241,19.241,0,0,0-1.934-.1,1.217,1.217,0,0,0-.2.1l-.2.118c-.237.119-.481.228-.73.326a2.076,2.076,0,0,1-.772.149,1.265,1.265,0,0,1-.532-.08.279.279,0,0,1-.158-.276,1.875,1.875,0,0,1,.375-.807,15.283,15.283,0,0,1,1.087-1.421,1.082,1.082,0,0,1,.591-.307,8.183,8.183,0,0,1,.889-.169c.223-.024.438-.042.642-.047s.377-.017.521-.032a1.052,1.052,0,0,0,.138-.008.482.482,0,0,1,.1-.011q.708-.81,1.441-1.727t1.5-1.845q.653-.789,1.324-1.58t1.343-1.52q.454-.493.9-.948c.3-.3.6-.591.9-.867a23.025,23.025,0,0,1,1.9-1.56,2.033,2.033,0,0,1,.987-.453.926.926,0,0,1,.74.336,1.267,1.267,0,0,1,.287.848,3.054,3.054,0,0,1-.179.977,6.616,6.616,0,0,1-.455,1.036c-.1.2-.215.395-.335.592s-.235.395-.353.593c-.172.276-.341.538-.5.789s-.312.488-.444.712a.482.482,0,0,1,.246.089.2.2,0,0,1,.088.168c0,.065-.092.2-.276.4a7.313,7.313,0,0,1-.672.643c-.093.078-.186.157-.285.237s-.2.157-.306.235a7,7,0,0,1-.7.446,1.288,1.288,0,0,1-.563.186.379.379,0,0,1-.315-.147.636.636,0,0,1-.12-.406,2.988,2.988,0,0,1,.12-.8,4.191,4.191,0,0,1,.335-.84,7.025,7.025,0,0,1,.572-1c.224-.329.447-.64.671-.928.172-.211.335-.408.495-.592s.308-.349.453-.495a.574.574,0,0,0,.06-.068.39.39,0,0,0,.039-.069.145.145,0,0,0,.03-.061.272.272,0,0,0,.008-.057.1.1,0,0,0-.1-.1.371.371,0,0,0-.188.069,1.554,1.554,0,0,0-.265.227c-.148.132-.292.266-.436.405s-.295.278-.454.424c-.248.25-.5.506-.74.768s-.476.527-.7.79l-2.429,2.8Zm-8.708.809c-.169.145-.367.307-.591.483s-.455.365-.691.564c-.158.13-.322.26-.5.383s-.346.247-.531.365a4.42,4.42,0,0,1-.8.415,2.137,2.137,0,0,1-.763.158,1.21,1.21,0,0,1-.928-.415,1.483,1.483,0,0,1-.375-1.025,2.8,2.8,0,0,1,.437-1.511,12.341,12.341,0,0,1,.946-1.332c.081-.092.159-.182.236-.266s.158-.174.237-.267l-2.209.453c-.156.185-.3.341-.424.475s-.249.254-.366.374a.675.675,0,0,0-.1.078.461.461,0,0,1-.1.079,6.183,6.183,0,0,1-.494.444c-.184.151-.414.34-.691.563v-.433c0-.067,0-.134.01-.207s.017-.148.029-.228c.146-.118.267-.217.367-.3s.188-.151.267-.217l.048-.049c.02-.019.043-.043.068-.068a1.838,1.838,0,0,0,.157-.179c.053-.066.12-.137.2-.218a.614.614,0,0,1-.383-.158.569.569,0,0,1-.11-.393,1.47,1.47,0,0,1,.07-.425,2.366,2.366,0,0,1,.187-.444,3.925,3.925,0,0,1,.494-.75,5.782,5.782,0,0,1,.632-.651,3.282,3.282,0,0,1,.582-.414,1.063,1.063,0,0,1,.484-.158.354.354,0,0,1,.256.118.431.431,0,0,1,.139.237v.059a.628.628,0,0,1-.039.2c-.026.079-.06.164-.1.255l2.408-.336c.067,0,.128,0,.179-.008a.827.827,0,0,1,.12-.011.719.719,0,0,1,.589.374,1.43,1.43,0,0,1,.257.83.971.971,0,0,1-.018.188.481.481,0,0,1-.08.168,2,2,0,0,1-.435.582q-.3.286-.613.6a7.137,7.137,0,0,0-.8.859,1.628,1.628,0,0,0-.366,1.035.591.591,0,0,0,.128.416.553.553,0,0,0,.425.138,1.631,1.631,0,0,0,.5-.088,4.245,4.245,0,0,0,.543-.227c.119-.066.24-.135.364-.208s.248-.148.366-.226c.146-.093.288-.188.425-.288s.26-.179.363-.246c0,.08,0,.155-.009.228s-.011.141-.011.207v.414Zm-14.214-8.448c-.04.145-.073.268-.1.374s-.052.2-.078.277-.076.175-.11.247a1.534,1.534,0,0,1-.108.208l-.118.159c-.04.053-.086.112-.14.178l-1.214,1.509c-.48.6-1.01,1.271-1.59,2.024-.089.105-.229.27-.413.492s-.381.468-.592.732a1.5,1.5,0,0,1-.139.187,1.566,1.566,0,0,0-.139.186c-.222.3-.412.591-.572.86a1.41,1.41,0,0,0-.236.642.458.458,0,0,0,.3.424,1.871,1.871,0,0,0,.829.148c.3,0,.6-.009.889-.03s.578-.042.867-.068a13.294,13.294,0,0,0,1.559-.287,14,14,0,0,0,5.244-2.556,3.868,3.868,0,0,0,1.59-3.1,2,2,0,0,0-1.346-1.895,12.164,12.164,0,0,0-4.381-.692Zm-1.086.04c-.749.091-1.406.2-1.963.315a13.009,13.009,0,0,0-1.63.455,2.233,2.233,0,0,0-.284.1l-.309.118h1.047a1.432,1.432,0,0,1,.394.068.163.163,0,0,1,.12.148.232.232,0,0,1-.13.2,1.728,1.728,0,0,1-.463.156c-.186.042-.379.09-.585.15s-.4.121-.6.187a1.415,1.415,0,0,0-.188.049c-.06.019-.117.035-.169.05a8.2,8.2,0,0,1-.859.225,3.962,3.962,0,0,1-.819.091.8.8,0,0,1-.563-.189.65.65,0,0,1-.208-.5,2.127,2.127,0,0,1,.03-.335,2.519,2.519,0,0,1,.089-.355c.012-.053.026-.109.039-.169a1.2,1.2,0,0,1,.06-.188c.026-.079.053-.161.077-.245a1.764,1.764,0,0,0,.06-.247,2.553,2.553,0,0,1,1.621-1.588,14.3,14.3,0,0,1,3-.957,20.927,20.927,0,0,1,2.311-.366c.737-.074,1.318-.108,1.737-.108a9.855,9.855,0,0,1,3.338.512,4.456,4.456,0,0,1,2.13,1.462,4.11,4.11,0,0,1,.476.9,6.5,6.5,0,0,1,.336,1.116c.039.2.071.39.1.583a4.265,4.265,0,0,1,.038.562,6.134,6.134,0,0,1-2.539,5,16.858,16.858,0,0,1-5.576,2.931,16.045,16.045,0,0,1-2.529.6,15.622,15.622,0,0,1-2.307.188,2.764,2.764,0,0,1-1.433-.267,1.038,1.038,0,0,1-.405-.937,3.338,3.338,0,0,1,.16-.989,7.165,7.165,0,0,1,.416-1.044,9.073,9.073,0,0,1,.759-1.254q.443-.621.9-1.194c.236-.29.466-.565.69-.829s.434-.5.632-.71Z" transform="translate(-467.569 -727.759)"/><path class="c" d="M868.851,742.788a1.482,1.482,0,0,1-.157.139l-.159.117c-.134.093-.262.185-.386.277s-.253.19-.385.3a16.377,16.377,0,0,1-1.728,1.155,3.856,3.856,0,0,1-1.984.525,3.307,3.307,0,0,1-1.844-.534,1.5,1.5,0,0,1-.821-1.244.894.894,0,0,1,.305-.691,1.074,1.074,0,0,1,.742-.276,1.409,1.409,0,0,1,.672.18,4.229,4.229,0,0,1,.591.372c.039.029.072.051.1.071a.527.527,0,0,1,.083.068,3.245,3.245,0,0,0,1.075-.967,2.312,2.312,0,0,0,.326-1.264v-.335c-.013-.118-.029-.259-.049-.423s-.048-.418-.089-.761q-.751.672-1.253,1.117c-.336.3-.656.569-.959.818a1.39,1.39,0,0,1-.109.1c-.035.027-.068.062-.11.1-.223.172-.459.353-.71.544s-.533.4-.851.641v-.433c0-.067,0-.134.011-.207s.017-.148.03-.228q1.026-.77,1.994-1.579a24.6,24.6,0,0,0,1.854-1.717,3.059,3.059,0,0,1,.484-1.174,1.009,1.009,0,0,1,.8-.306.622.622,0,0,1,.483.148,1.034,1.034,0,0,1,.169.562,2.258,2.258,0,0,0,.048.444c.034.152.068.3.109.444.015.04.022.076.031.109a.609.609,0,0,0,.029.109c.053.183.1.368.148.552a2.339,2.339,0,0,1,.071.573,2.74,2.74,0,0,1-.692,1.9,10.03,10.03,0,0,1-1.52,1.382c-.066.052-.137.1-.206.148a2.346,2.346,0,0,0-.209.147l.316.031c.081,0,.153.01.216.01a3,3,0,0,0,1.472-.385,12.725,12.725,0,0,0,1.351-.858q.181-.139.366-.277c.124-.091.247-.177.366-.257-.012.145-.023.264-.029.356s-.01.172-.01.237v.107a.963.963,0,0,0,.019.168Zm-8.273-9.395c-.078.079-.162.154-.246.226s-.169.148-.248.227a22.818,22.818,0,0,0-2.487,2.565,19.41,19.41,0,0,0-2.014,3.02,29.318,29.318,0,0,0,2.775-2.793,17.135,17.135,0,0,0,2.22-3.227Zm.571,9.375a7.31,7.31,0,0,1-.946.582,3.157,3.157,0,0,1-.81.286,2.613,2.613,0,0,1-.334.06,3.624,3.624,0,0,1-.376.02,3.13,3.13,0,0,1-.376-.03c-.158-.019-.334-.043-.534-.07a7.841,7.841,0,0,1-1.608,1.2,2.881,2.881,0,0,1-1.331.394,1.112,1.112,0,0,1-1.017-.581,4.449,4.449,0,0,1-.445-1.846,8.581,8.581,0,0,1,.917-3.937,16.03,16.03,0,0,1,2.3-3.367c.184-.2.427-.44.721-.729s.627-.593,1-.909c.13-.119.272-.241.426-.364s.3-.246.444-.366a13.5,13.5,0,0,1,1.358-.938,2.285,2.285,0,0,1,1.069-.385.537.537,0,0,1,.425.2.775.775,0,0,1,.166.515,1.09,1.09,0,0,1-.009.128c-.006.046-.017.1-.029.148a.161.161,0,0,0-.022.069.175.175,0,0,1-.017.071c-.078.223-.172.45-.278.679a6.391,6.391,0,0,1-.356.68,15.461,15.461,0,0,1-1.655,2.252q-.988,1.122-2.035,2.17-.771.751-1.5,1.441t-1.344,1.3c-.026.1-.046.2-.059.276s-.025.152-.039.217v.178a1.729,1.729,0,0,0,.236.967.749.749,0,0,0,.653.356.8.8,0,0,0,.208-.029c.071-.021.142-.042.208-.069a1.723,1.723,0,0,0,.49-.356,3.051,3.051,0,0,0,.437-.553,1.836,1.836,0,0,1-.18-.265.717.717,0,0,1-.079-.228.173.173,0,0,1-.019-.07V741.8a1.925,1.925,0,0,1,.069-.492,2.277,2.277,0,0,1,.208-.514,4.074,4.074,0,0,1,.8-1.155,3.272,3.272,0,0,1,1.1-.778,3.2,3.2,0,0,1,.305-.1,1.283,1.283,0,0,1,.305-.04.494.494,0,0,1,.407.188.83.83,0,0,1,.146.523,3.463,3.463,0,0,1-.365,1.382,11.141,11.141,0,0,1-1.095,1.835.488.488,0,0,1,.1.081.253.253,0,0,0,.1.057.321.321,0,0,0,.128.049,1.245,1.245,0,0,0,.17.011h.116a1.988,1.988,0,0,0,.741-.219,10.172,10.172,0,0,0,1.135-.69c0,.067,0,.135-.01.208s-.011.141-.011.207v.414Zm-10.977-3.137q-1.085.314-2.11.719a11.794,11.794,0,0,0-1.994,1.017c-.132.079-.248.155-.348.228a2.406,2.406,0,0,0-.265.227,1.358,1.358,0,0,0-.376.553,2.31,2.31,0,0,0-.1.728.607.607,0,0,0,.069.347.3.3,0,0,0,.248.089,2.106,2.106,0,0,0,1.005-.425,13,13,0,0,0,1.343-1.017c.119-.1.236-.21.355-.316s.232-.2.334-.295c.411-.369.78-.722,1.105-1.057s.574-.594.731-.779Zm3.22,3.137c-.186.159-.4.345-.662.563s-.529.444-.818.68a4.549,4.549,0,0,1-.415.336l-.434.316a8.153,8.153,0,0,1-1.008.6,2.009,2.009,0,0,1-.887.246.674.674,0,0,1-.514-.236,1.338,1.338,0,0,1-.3-.493.7.7,0,0,0-.008-.109.476.476,0,0,1-.013-.108,2.974,2.974,0,0,1,.17-.918,12.993,12.993,0,0,1,.583-1.372q-.238.179-.652.543t-.908.78c-.079.053-.156.109-.226.167s-.142.115-.208.17a11.115,11.115,0,0,1-1.105.778,1.8,1.8,0,0,1-.83.326,1.02,1.02,0,0,1-.78-.394,3.514,3.514,0,0,1-.565-.888,2.981,2.981,0,0,1-.216-.524c-.052-.176-.092-.325-.116-.444v-.434a1.843,1.843,0,0,1,.009-.207,1.258,1.258,0,0,1,.156-.533,2.749,2.749,0,0,1,.209-.327,6.136,6.136,0,0,1,1.549-1.41,15.133,15.133,0,0,1,2.143-1.195,13.665,13.665,0,0,1,1.806-.67,5.423,5.423,0,0,1,1.469-.258,1.227,1.227,0,0,1,.674.177,1.531,1.531,0,0,1,.474.514c.025.051.043.1.057.126a.275.275,0,0,1,.02.09.289.289,0,0,1-.119.247,1.23,1.23,0,0,1-.256.148c-.065.028-.125.05-.177.071s-.1.034-.139.047a1.015,1.015,0,0,1,.436.307.756.756,0,0,1,.118.444,1.092,1.092,0,0,1-.277.652c-.183.237-.381.481-.591.731-.093.105-.182.209-.268.314s-.167.211-.248.316c-.1.172-.19.336-.266.493a1.107,1.107,0,0,0-.107.455.5.5,0,0,0,.189.413.683.683,0,0,0,.465.159h.088a.21.21,0,0,0,.089-.018,1.718,1.718,0,0,0,.768-.316q.454-.3,1.661-1.185c-.016.133-.024.237-.032.315s-.009.152-.009.219v.156a.754.754,0,0,0,.02.159Zm-19.013-.789a15.691,15.691,0,0,1,2.124.218q1.016.178,2.023.414c.225.053.441.1.651.158s.427.105.652.159q.592.157,1.205.305c.407.1.822.188,1.244.266-.106.107-.22.224-.346.356s-.247.269-.365.414a9.631,9.631,0,0,1-1.008.879,1.876,1.876,0,0,1-1.163.4,5.418,5.418,0,0,1-.91-.108q-.591-.108-2.232-.426c-.211-.039-.422-.081-.641-.127s-.43-.082-.642-.109c-.645-.119-1.288-.212-1.934-.277a19.327,19.327,0,0,0-1.936-.1,1.5,1.5,0,0,0-.2.1c-.064.04-.13.079-.2.118-.236.119-.48.228-.73.326a2.062,2.062,0,0,1-.77.149,1.28,1.28,0,0,1-.534-.08.279.279,0,0,1-.157-.276,1.854,1.854,0,0,1,.375-.807,14.9,14.9,0,0,1,1.086-1.421,1.072,1.072,0,0,1,.59-.307,8.371,8.371,0,0,1,.89-.169c.223-.024.439-.042.642-.047s.379-.017.525-.032a1.066,1.066,0,0,0,.136-.008.466.466,0,0,1,.1-.011q.714-.81,1.444-1.727t1.5-1.845c.436-.526.876-1.053,1.324-1.58s.9-1.033,1.343-1.52q.455-.493.9-.948c.3-.3.6-.591.9-.867a22.521,22.521,0,0,1,1.9-1.56,2.043,2.043,0,0,1,.985-.453.932.932,0,0,1,.743.336,1.27,1.27,0,0,1,.284.848,3.021,3.021,0,0,1-.178.977,6.66,6.66,0,0,1-.452,1.036q-.16.3-.336.592l-.355.593q-.259.414-.506.789c-.163.25-.31.488-.442.712a.47.47,0,0,1,.245.089.2.2,0,0,1,.091.168c0,.065-.093.2-.276.4a7.139,7.139,0,0,1-.671.643l-.286.237c-.1.078-.2.157-.309.235a6.872,6.872,0,0,1-.7.446,1.292,1.292,0,0,1-.564.186.383.383,0,0,1-.317-.147.637.637,0,0,1-.118-.406,2.99,2.99,0,0,1,.118-.8,4.307,4.307,0,0,1,.337-.84,7.065,7.065,0,0,1,.571-1c.224-.329.449-.64.671-.928.172-.211.337-.408.495-.592s.309-.349.454-.495a.472.472,0,0,0,.06-.068.374.374,0,0,0,.038-.069.119.119,0,0,0,.032-.061.348.348,0,0,0,.008-.057.1.1,0,0,0-.1-.1.37.37,0,0,0-.187.069,1.722,1.722,0,0,0-.268.227c-.146.132-.286.266-.433.405s-.3.278-.454.424c-.252.25-.5.506-.742.768s-.477.527-.7.79l-2.429,2.8Zm-3.218.789a25.405,25.405,0,0,1-2.714,1.895,3.454,3.454,0,0,1-1.532.552.759.759,0,0,1-.6-.286,1,1,0,0,1-.251-.681,2.2,2.2,0,0,1,.082-.571,2.843,2.843,0,0,1,.235-.592,6.488,6.488,0,0,1,.425-.75c.166-.25.333-.493.505-.73.144-.2.288-.386.433-.562s.277-.344.4-.5a24.784,24.784,0,0,0-2.311,1.836,25.8,25.8,0,0,0-2.094,2.091,1.929,1.929,0,0,1-.334.306.515.515,0,0,1-.277.11c-.25,0-.426-.155-.524-.466a6.466,6.466,0,0,1-.169-1.628,4.95,4.95,0,0,1,.712-2.605,22.55,22.55,0,0,1,1.56-2.271c.078-.091.152-.186.227-.285s.149-.195.226-.285c.263-.343.537-.679.82-1.008s.567-.644.859-.947a21.444,21.444,0,0,1,2.26-2.182,3.285,3.285,0,0,1,1.512-.877.658.658,0,0,1,.118.009.561.561,0,0,1,.118.031,1.076,1.076,0,0,1,.338.185.407.407,0,0,1,.156.327,3.927,3.927,0,0,1-.986,1.787q-.988,1.272-2.29,2.693c-.1.12-.215.238-.325.356s-.222.238-.326.356q-1.123,1.225-2.152,2.259t-1.482,1.491l-.019.75c.236-.171.546-.422.927-.75s.8-.672,1.245-1.027c.12-.092.233-.183.346-.276s.227-.183.346-.277a18.783,18.783,0,0,1,1.559-1.067,2.572,2.572,0,0,1,1.206-.454.458.458,0,0,1,.086.01.469.469,0,0,0,.09.01,1.121,1.121,0,0,1,.533.334.8.8,0,0,1,.237.555,1.228,1.228,0,0,1-.326.739,10.531,10.531,0,0,1-.741.82.03.03,0,0,1-.01.009l-.009.01c-.277.291-.53.569-.76.839a1.188,1.188,0,0,0-.344.74.471.471,0,0,0,.106.346.475.475,0,0,0,.347.108,2.226,2.226,0,0,0,.977-.287,15.185,15.185,0,0,0,1.61-1.016c0,.067,0,.135-.01.208a2.066,2.066,0,0,0-.01.207v.414Zm-8.728,0c-.2.172-.421.356-.671.553s-.514.4-.789.614c-.237.183-.487.365-.75.541s-.52.338-.772.485a7.814,7.814,0,0,1-1,.454,2.71,2.71,0,0,1-.937.177,1.155,1.155,0,0,1-.878-.346,1.339,1.339,0,0,1-.325-.958,3.62,3.62,0,0,1,.218-1.1,9.087,9.087,0,0,1,.613-1.4c-.185.158-.337.285-.454.377l-.335.256-.012.01c-.006.006-.017.016-.029.029a1.644,1.644,0,0,0-.207.148,2.565,2.565,0,0,1-.267.188v-.434a1.853,1.853,0,0,1,.01-.207c.007-.073.017-.141.03-.208.393-.3.717-.555.966-.76s.467-.4.652-.582a1.7,1.7,0,0,0,.217-.217c.067-.08.131-.151.2-.218.105-.132.215-.272.326-.423s.233-.326.365-.524c-.133-.013-.243-.02-.336-.02h-.235c-.159,0-.334.011-.523.03s-.453.063-.78.128c.2-.316.371-.592.52-.828s.294-.441.426-.614a2.294,2.294,0,0,1,.949-.719,5.627,5.627,0,0,1,1.636-.267c.291-.42.531-.75.722-.988a2.49,2.49,0,0,1,.56-.532,1.244,1.244,0,0,1,.389-.168,2.029,2.029,0,0,1,.462-.049.959.959,0,0,1,.5.1.328.328,0,0,1,.157.3.608.608,0,0,1-.108.3c-.073.119-.148.243-.229.375a.144.144,0,0,0-.057.049.332.332,0,0,1-.04.051l-.188.256c-.061.08-.108.152-.149.218.145,0,.267,0,.368.01s.191.017.284.03l.238.038c.077.015.176.028.3.04l-.416.711c-.092.17-.175.325-.246.464s-.142.259-.208.365a1.514,1.514,0,0,1-.741.643,5.149,5.149,0,0,1-1.591.166,14.075,14.075,0,0,0-1.351,2.1,3.657,3.657,0,0,0-.482,1.529,1.16,1.16,0,0,0,.148.652.518.518,0,0,0,.463.216,1.913,1.913,0,0,0,.739-.2,7.855,7.855,0,0,0,.9-.473c.09-.055.187-.109.285-.169s.194-.115.285-.167c.24-.172.465-.333.684-.483s.4-.275.542-.367a2.015,2.015,0,0,0-.03.208c-.006.072-.011.141-.011.207v.414Z" transform="translate(-711.414 -727.759)"/><g transform="translate(0)"><path class="d" d="M415.913,760.32c2.961-2.148,7.107-2.342,9-5.1a3.5,3.5,0,0,1,1.255,1.877c-2.674,2.123-7.029,3.41-8.152,4.538a2.839,2.839,0,0,1-2.1-1.317" transform="translate(-415.07 -745.382)"/><path class="d" d="M415.913,723.2c2.713-2,7.717-4.013,10.253-5.965a3.447,3.447,0,0,1,.292,2.02c-2.676,2.124-7.321,4.134-8.445,5.264a2.836,2.836,0,0,1-2.1-1.319" transform="translate(-415.07 -717.231)"/><path class="d" d="M415.913,743c2.961-2.15,7.107-2.343,9-5.1a3.487,3.487,0,0,1,1.255,1.876c-2.674,2.124-7.029,3.41-8.152,4.54a2.844,2.844,0,0,1-2.1-1.318" transform="translate(-415.07 -732.551)"/><path class="e" d="M413.5,722.948c.557.822,1.313,1.49,3.773,1.406.934-.029,2.667.033,4.243.117,1.512.081,3.472,1.114,3.01,3.147a1.66,1.66,0,0,1-.773,1.08c-.416-.931-.665-2.13-2.606-2.242-1.959-.109-4.044.026-6-.1-1.826-.12-3.576-1.781-1.643-3.406" transform="translate(-412.658 -721.467)"/><path class="d" d="M416.753,777.919c2.934-1.994,6.85-2.71,8.682-5.38a3.5,3.5,0,0,1,1.255,1.879c-2.674,2.122-7,3.891-8.12,5.021a2.865,2.865,0,0,1-1.833-.961.372.372,0,0,1,.016-.558" transform="translate(-415.595 -758.214)"/><path class="e" d="M413.5,774.9c.557.822,1.313,1.49,3.773,1.409.934-.033,2.667.031,4.243.115,1.512.08,3.472,1.113,3.01,3.146a1.662,1.662,0,0,1-.773,1.081c-.416-.932-.665-2.132-2.606-2.242-1.959-.112-4.044.024-6-.1-1.826-.121-3.576-1.782-1.643-3.406" transform="translate(-412.658 -759.966)"/><path class="e" d="M413.5,740.263c.557.824,1.313,1.489,3.773,1.409.934-.03,2.667.031,4.243.116,1.512.081,3.472,1.116,3.01,3.147a1.66,1.66,0,0,1-.773,1.08c-.416-.932-.665-2.131-2.606-2.24-1.959-.112-4.044.023-6-.105-1.826-.119-3.576-1.781-1.643-3.406" transform="translate(-412.658 -734.298)"/><path class="e" d="M413.5,757.589c.557.821,1.313,1.488,3.773,1.408.934-.032,2.667.031,4.243.115,1.512.08,3.472,1.113,3.01,3.146a1.667,1.667,0,0,1-.773,1.081c-.416-.932-.665-2.132-2.606-2.243-1.959-.109-4.044.027-6-.1-1.826-.12-3.576-1.782-1.643-3.405" transform="translate(-412.658 -747.136)"/></g></g></g></svg>