<svg xmlns="http://www.w3.org/2000/svg" width="89.036" height="65.496" viewBox="0 0 89.036 65.496"><defs><style>.a{fill:none;stroke:#5f9597;stroke-linecap:round;stroke-linejoin:round;stroke-width:2px;}</style></defs><g transform="translate(-488 -1938.491)"><g transform="translate(5.922 -185.627)"><path class="a" d="M547.116,2134.512h13.772a3.438,3.438,0,0,1,3.439,3.438V2178.9"/><path class="a" d="M488.864,2178.9l.094-40.952a3.438,3.438,0,0,1,3.438-3.438h12.457"/><path class="a" d="M483.172,2183.2a3.438,3.438,0,0,1,3.436-3.438h80.067a3.439,3.439,0,0,1,3.439,3.438v1.977a3.439,3.439,0,0,1-3.439,3.438H486.516a3.438,3.438,0,0,1-3.438-3.437Z"/></g><g transform="translate(5.922 -185.627)"><circle class="a" cx="10.074" cy="10.074" r="10.074" transform="translate(515.831 2126.286) rotate(-3.17)"/><path class="a" d="M529.634,2134.833a3.2,3.2,0,1,1-3.187-3.523A3.367,3.367,0,0,1,529.634,2134.833Z"/><path class="a" d="M520.883,2144.187a5.573,5.573,0,1,1,11.129,0"/><circle class="a" cx="10.074" cy="10.074" r="10.074" transform="translate(498.898 2152.97) rotate(-3.17)"/><path class="a" d="M512.7,2161.517a3.2,3.2,0,1,1-3.186-3.523A3.368,3.368,0,0,1,512.7,2161.517Z"/><path class="a" d="M503.949,2170.871a5.573,5.573,0,1,1,11.129,0"/><path class="a" d="M553.752,2162.471a10.074,10.074,0,1,1-10.074-10.073A10.074,10.074,0,0,1,553.752,2162.471Z"/><path class="a" d="M546.863,2161.517a3.2,3.2,0,1,1-3.185-3.523A3.366,3.366,0,0,1,546.863,2161.517Z"/><path class="a" d="M538.114,2170.871a5.572,5.572,0,1,1,11.128,0"/><line class="a" y1="7.233" x2="4.6" transform="translate(515.973 2145.709)"/><line class="a" x1="10.932" transform="translate(521.08 2163.099)"/><line class="a" x2="4.898" y2="7.57" transform="translate(532.327 2145.557)"/></g></g></svg>