<svg xmlns="http://www.w3.org/2000/svg" width="704.315" height="702.816" viewBox="0 0 704.315 702.816"><defs><style>.a{opacity:0.02;isolation:isolate;}.b,.c{fill:none;stroke:#0e2637;stroke-linecap:round;stroke-miterlimit:10;stroke-width:10px;}.b{stroke-linejoin:round;}</style></defs><g class="a" transform="translate(5.044 5.044)"><g transform="translate(0 0)"><path class="b" d="M997.4,1372.769c94.049,166.531,35.312,377.778-131.208,471.849S488.4,1879.929,394.328,1713.4s-35.311-377.766,131.209-471.837S903.325,1206.238,997.4,1372.769Z" transform="translate(-349.493 -1196.724)"/><line class="c" x2="307.456" y2="544.297" transform="translate(209.234 103.594)"/><path class="b" d="M771.867,1204.344A699.144,699.144,0,0,1,350.1,1412.852" transform="translate(-343.052 -1116.33)"/><path class="b" d="M806.951,1225.228A693.031,693.031,0,0,1,573,1440.631a695.074,695.074,0,0,1-201.242,75.74" transform="translate(-114.623 -895.981)"/><path class="b" d="M952.12,1209.433a696.993,696.993,0,0,1-600.087,338.954" transform="translate(-322.71 -1062.635)"/></g></g></svg>