<svg xmlns="http://www.w3.org/2000/svg" width="215.926" height="156.397" viewBox="0 0 215.926 156.397"><defs><style>.a{fill:#dec61e;}.b{fill:#15729d;}.c{fill:#3390c3;}.d{fill:#fff;}.e{fill:#d2d2d2;}.f{fill:#cb4f26;}.g{fill:#d8662a;}.h{fill:#010101;}</style></defs><g transform="translate(-1202.711 -1537.638)"><rect class="a" width="74.36" height="74.36" transform="translate(1344.276 1596.163)"/><path d="M1394.226,1654.257c1.5,2.446,3.448,4.242,6.9,4.242,2.894,0,4.746-1.445,4.746-3.445,0-2.4-1.9-3.246-5.091-4.639l-1.746-.749c-5.042-2.149-8.391-4.84-8.391-10.529,0-5.241,3.992-9.231,10.236-9.231,4.44,0,7.635,1.547,9.935,5.6l-5.441,3.493c-1.2-2.149-2.49-2.995-4.494-2.995a3.04,3.04,0,0,0-3.345,2.995c0,2.1,1.3,2.945,4.3,4.244l1.749.748c5.936,2.546,9.285,5.141,9.285,10.977,0,6.29-4.938,9.737-11.576,9.737-6.49,0-10.682-3.092-12.733-7.145Zm-24.681.606c1.1,1.946,2.1,3.594,4.5,3.594,2.294,0,3.745-.9,3.745-4.391v-23.76h6.984v23.853c0,7.237-4.241,10.53-10.433,10.53-5.593,0-8.835-2.9-10.482-6.383Z"/><path class="b" d="M1209.542,1666.916l-6.831-76.589h75.032l-6.834,76.578-30.727,8.519Z"/><path class="c" d="M1240.231,1668.912l24.826-6.884,5.84-65.438h-30.666Z"/><path class="d" d="M1240.228,1624.337h12.431l.857-9.619h-13.288v-9.394h23.554l-.226,2.521-2.307,25.885h-21.022Z"/><path class="e" d="M1240.285,1648.732l-.039.012-10.464-2.826-.669-7.492h-9.429l1.317,14.75,19.242,5.342.042-.013Z"/><path class="d" d="M1251.859,1633.334l-1.129,12.579-10.478,2.827v9.773l19.256-5.337.142-1.587,1.634-18.256Z"/><path class="e" d="M1240.261,1605.324v9.394h-22.69l-.188-2.111-.427-4.762-.226-2.521Z"/><path class="e" d="M1240.228,1624.339v9.393H1229.9l-.185-2.111-.43-4.763-.226-2.52Z"/><path class="f" d="M1265.751,1681.474l-10.083-113.1h110.8l-10.093,113.082L1311,1694.035Z"/><path class="g" d="M1311.068,1684.419l36.664-10.164,8.628-96.634h-45.292Z"/><path class="e" d="M1311.068,1619.568h-18.354l-1.269-14.2h19.624v-13.872h-34.783l.333,3.723,3.408,38.225h31.041Z"/><path class="e" d="M1311.068,1655.592l-.06.018-15.447-4.172-.991-11.062h-13.923l1.943,21.779,28.415,7.887.063-.017Z"/><path class="h" d="M1265.976,1537.638h7.049v6.965h6.448v-6.965h7.049v21.09h-7.049v-7.061h-6.446v7.061h-7.051v-21.09Z"/><path class="h" d="M1295.793,1544.632h-6.206v-6.994h19.462v6.994h-6.2v14.1h-7.051v-14.1Z"/><path class="h" d="M1312.139,1537.638h7.351l4.523,7.411,4.518-7.411h7.351v21.09h-7.02v-10.453l-4.849,7.5h-.122l-4.854-7.5v10.453h-6.9v-21.09Z"/><path class="h" d="M1339.389,1537.638h7.053v14.119h9.912v6.971h-16.965v-21.09Z"/><path class="d" d="M1311.021,1619.568v13.871H1328.1l-1.61,17.99-15.468,4.176v14.432l28.434-7.882.208-2.343,3.261-36.519.338-3.725h-32.241Z"/><path class="d" d="M1311.021,1591.492v13.872h33.5l.278-3.118.633-7.031.331-3.723Z"/></g></svg>