<svg xmlns="http://www.w3.org/2000/svg" width="67.986" height="55.919" viewBox="0 0 67.986 55.919"><defs><style>.a{fill:none;}.a,.b{stroke:#35474e;stroke-linecap:round;stroke-linejoin:round;stroke-width:2px;}.b{fill:#f1f1f1;}</style></defs><g transform="translate(1 1)"><path class="a" d="M617.388,324.105a3.36,3.36,0,0,1-3.362,3.34H554.738a3.34,3.34,0,0,1-3.336-3.34V276.862a3.336,3.336,0,0,1,3.336-3.336h59.288a3.357,3.357,0,0,1,3.362,3.336Z" transform="translate(-551.402 -273.526)"/><line class="b" x2="65.346" transform="translate(0 13.255)"/><path class="a" d="M562,281.289a1.6,1.6,0,1,1-1.6-1.6A1.6,1.6,0,0,1,562,281.289Z" transform="translate(-552.597 -274.521)"/><path class="a" d="M569.81,281.289a1.6,1.6,0,1,1-1.6-1.6A1.6,1.6,0,0,1,569.81,281.289Z" transform="translate(-553.857 -274.521)"/><path class="a" d="M577.618,281.289a1.6,1.6,0,1,1-1.6-1.6A1.6,1.6,0,0,1,577.618,281.289Z" transform="translate(-555.118 -274.521)"/><path class="a" d="M603.037,312.329v-3.8l-3.451-1.268a12.582,12.582,0,0,0-1.3-3.266l.034,0,1.644-3.423-2.682-2.688-3.419,1.628,0,.005a12.325,12.325,0,0,0-3.263-1.275l-1.268-3.486h-3.8l-1.269,3.486a12.473,12.473,0,0,0-3.266,1.318l-.005-.027-3.42-1.638-2.689,2.683,1.628,3.419.006,0a12.946,12.946,0,0,0-1.488,3.264l-3.7,1.268v3.8l3.7,1.268a12.8,12.8,0,0,0,1.425,3.265l.026.005-1.611,3.421,2.7,2.69,3.424-1.628.006-.005a12.933,12.933,0,0,0,3.268,1.452l1.269,3.663h3.8L590.6,322.8a12.645,12.645,0,0,0,3.263-1.408l.007-.018,3.422,1.617,2.69-2.695-1.629-3.425,0-.006a12.519,12.519,0,0,0,1.24-3.267Zm-15.611,4.437a6.339,6.339,0,1,1,6.342-6.338A6.337,6.337,0,0,1,587.426,316.765Z" transform="translate(-554.619 -276.953)"/></g></svg>