<svg xmlns="http://www.w3.org/2000/svg" width="72.224" height="55.017" viewBox="0 0 72.224 55.017"><defs><style>.a{fill:none;stroke:#35474e;stroke-linecap:round;stroke-linejoin:round;stroke-width:2px;}</style></defs><g transform="translate(1 1)"><path class="a" d="M1021.043,318.761V281.256a3.306,3.306,0,0,0-3.312-3.286H959.317a3.286,3.286,0,0,0-3.286,3.286v37.505" transform="translate(-953.424 -277.97)"/><path class="a" d="M1028.622,334.833h2.555a3.575,3.575,0,0,0,3.577-3.553v-1.806H1026.6" transform="translate(-964.53 -286.075)"/><path class="a" d="M1001.862,329.474H952.937v1.806a3.554,3.554,0,0,0,3.55,3.553h45.375" transform="translate(-952.937 -286.075)"/><g transform="translate(23.036 15.425)"><path class="a" d="M986.646,300.36l-4.4,3.223-1.967-7.307Z" transform="translate(-980.275 -296.276)"/><line class="a" x2="1.891" y2="2.584" transform="translate(4.169 5.696)"/></g><g transform="translate(50.971 36.077)"><path class="a" d="M1024.527,332.175a5.55,5.55,0,0,1-5.549,5.55h0a5.55,5.55,0,0,1-5.55-5.55v-5.841a5.549,5.549,0,0,1,5.55-5.549h0a5.55,5.55,0,0,1,5.549,5.549Z" transform="translate(-1013.428 -320.785)"/><line class="a" y2="3.223" transform="translate(5.55 4.321)"/></g><path class="a" d="M996.365,305.019v6.23a4.982,4.982,0,0,0,4.982,4.982h0a4.982,4.982,0,0,0,4.983-4.982v-5.267a4.981,4.981,0,0,1,4.982-4.982h0a4.981,4.981,0,0,1,4.982,4.982v11.7" transform="translate(-959.771 -281.594)"/></g></svg>