<svg xmlns="http://www.w3.org/2000/svg" width="46.354" height="55.884" viewBox="0 0 46.354 55.884"><defs><style>.a{fill:none;stroke:#35474e;stroke-linecap:round;stroke-linejoin:round;stroke-width:2px;}</style></defs><g transform="translate(1 1)"><line class="a" x2="24.684" transform="translate(9.922 29.587)"/><line class="a" x2="24.684" transform="translate(9.922 22.468)"/><line class="a" x2="14.105" transform="translate(9.922 14.486)"/><line class="a" x2="24.684" transform="translate(9.922 36.654)"/><line class="a" x2="24.684" transform="translate(9.922 43.718)"/><path class="a" d="M913.769,278.707a3.025,3.025,0,0,0,3.03,3.006h9.915l-12.944-12.944Z" transform="translate(-882.36 -268.769)"/><path class="a" d="M903.615,268.769h-28.4a3.006,3.006,0,0,0-3.005,3.006v47.869a3.009,3.009,0,0,0,3.005,3.009H913.53a3.028,3.028,0,0,0,3.03-3.009V281.713" transform="translate(-872.206 -268.769)"/></g></svg>