<svg xmlns="http://www.w3.org/2000/svg" width="97.793" height="69.346" viewBox="0 0 97.793 69.346"><defs><style>.a{fill:#ffb629;}.b{fill:#4db2de;}.c{fill:#80b259;}.d{fill:#29578e;}</style></defs><g transform="translate(-52.115 -21.871)"><path class="a" d="M107.422,31.7a3.128,3.128,0,0,1,3.092,1.739c.142.316,1.5.81,1.451,1.566-.045.613-2.032,1.487-3.123,3.839-.1.189-.311.371-.368,1.616a16.567,16.567,0,0,1-.9,2.619c-1.144,2.173-.926,3.908-1.314,4.452-.66.931-1.191.714-1.336.517-.285-.384-.744-.362-.923-.757a9.031,9.031,0,0,1-.034-1.123c.012-.143.024-.284.038-.431s0-.295,0-.444c.046-.405.129-.8.171-1.207.023-.257.01-.534.016-.8.009-.14.015-.277.024-.416-.011-.116-.02-.227-.039-.334s-.049-.191-.077-.285c-.027-.152-.04-.305-.074-.455a6.449,6.449,0,0,1-.137-.647,2.878,2.878,0,0,1,.06-.454c.011-.27-.026-.526-.026-.8v-.453a1.513,1.513,0,0,0-.005-.31,1.385,1.385,0,0,0-.133-.311c-.066-.142-.088-.3-.143-.453-.036-.055-.07-.111-.106-.167a2.975,2.975,0,0,1-.172-.337c-.106-.252-.47-1.049-.595-1.477-.152-.517.716-.789,1.217-1.44s.736-3.075,3.434-3.247" transform="translate(-6.332 -1.228)"/><path class="b" d="M89.933,29.877a23.113,23.113,0,0,1,5.621,2.111,5.126,5.126,0,0,1,.506.311c.311.242.629.483.931.745l.528.517c.167.156.377.26.554.408.054.06.112.122.169.182a5.212,5.212,0,0,1,.479.519,3.608,3.608,0,0,1,.244.434c.053.082.108.161.161.241s.083.175.138.259.118.175.176.263.091.174.138.259c.066.094.132.182.2.272.061.115.106.227.162.342.052.093.13.17.175.264.07.15.106.306.165.465.038.1.1.2.145.3.048.155.094.31.14.462.036.087.07.173.108.26.05.154.068.323.108.481.028.08.05.161.074.243.017.1.034.2.053.305.038.157.1.313.131.473.021.133.039.267.06.4s.1.268.131.409c.012.1.025.2.041.293.027.168.084.324.116.484.022.129.043.257.063.388a3.612,3.612,0,0,1,.1.431,4.748,4.748,0,0,1-.007.591c0,.156-.117,1.483-.185,2.012,0,.016-.046,1.034-.048,1.4a.949.949,0,0,0,.108.745c.014.021.1-.032.122-.017.278.228.712.394.854.649a.309.309,0,0,1,.034.065c.091.306-.33,1.109-.5,1.32a5.327,5.327,0,0,1-2.938,1.585c-3.125,1.387-4.228,1.242-4.447,1.184-2.7-.738-4.241-3.519-4.748-4.158.191.238-.7-.409-.665-1.533a2.658,2.658,0,0,1,1.2-1.955c.675-1.044-1.807-1.334-4.462-4.276-.687-.761-.958-2.457,1.4-3.129.194-.6-3.8-1.695-4.835-4.568-.836-2.317.969-3.763,7.494-2.436" transform="translate(-3.768 -0.938)"/><path class="c" d="M76.669,24.037c5.307-3.4,20.555-2.868,25.987,2.629-2.816-2.1-16.73-5.73-26.391-2.031Zm25.914,2.327c3.523-.4,14.7-5.818,26.93-3.044-9.588-3.523-24.891.12-26.93,3.044M86.713,54.483c-.784-2.041-1.539-4.395-3.465-11.1-2.333-8.122-6.628-17.029-6.918-18.706-.832,5.209,3.557,11.084,5.718,19.012,1.53,5.6,2.579,11.318,4.618,12.158a.5.5,0,0,0,.054.021h0l.012,0c.032.009.065.018.1.025.125.03.256.054.393.074a7.984,7.984,0,0,0,2.015-.016C98,54.6,110.233,53.509,118.578,56c1.067-4.9,9.954-30.6,10.922-32.672-4.79,7.509-9.63,22.747-11.251,32.042-6.965-2.292-23.618-2.356-31.535-.886m38.733-29.278c-1.06-1.938-3.706-1.967-8.063,2.394s-5.3,4.209-9.908,9.238a12.563,12.563,0,0,0-1.219,1.518,17.487,17.487,0,0,0-2.824,5.588,7.935,7.935,0,0,1-.591,2.5c-.825,1.4-.122,1.754-.28,2.46-.154.672-.518,1.064-.543,1.319-.554,5.258,6.832-2.8,7.764-3.663,4.68-4.32,6.313-6.886,5.46-5.464,1.1-1.845,1.061-3.146,1.555-3.874s2.219-3.065,2.191-3.026c5.4-5.837,6.882-8.212,6.46-8.99" transform="translate(-3.015 0)"/><path class="d" d="M82.2,32.692c1.105-1.333,3.606-1.661,6.22-1.458a11.319,11.319,0,0,1,7.225,3.114c3.168,3.35,2.96,8.445,2.406,11.967,2.157-3.887.675-8,4.754-10.919.231-.164.763.366.6.535-2.307,2.492-2.143,7.606-4.985,11.413-.065.084-.711-.183-.574-.408-.132.346-.417.144-.684-.012a.616.616,0,0,1-.336-.69c.668-4.609-.064-9.069-3.962-12.083a11.5,11.5,0,0,0-6.779-1.626,3.759,3.759,0,0,0-2.432.727c-.947.949,4.484,2.516,4.527,3.938.039,1.282-1.969,1.459-2.1,1.9-.185.623,4.923,1.9,4.869,3.237-.048,1.155-1.743,1.47-1.788,1.959-.1,1.033,1.856,1.366,3.066,4.594.025.076-.019.517-.206.6-.157.072-.73-.35-.958-.639-2.056-2.59-3.745-2.448-3.684-3.564.068-1.332,1.643-1.976,2.206-2.647-.918-1.465-5.4-2.152-4.978-3.856.332-1.33,1.828-1.261,1.914-1.775.065-.391-1.193-.9-2.411-1.586-1.381-.78-2.705-1.772-1.91-2.73m19.76,6.1a1.288,1.288,0,0,0-.248.737c.026.087.173.048.236.1s.058.164.137.173a2.411,2.411,0,0,0,1.438-.759c1.187-1.018,5.189-5.021,6.174-5.685.633-.426,3.474-2.666,5.549-3.875,1.162-.675,2.008-.8,2.282-.665.6.307-.752,1.522-2.565,3.078-4.23,3.625-5.029,5.522-5.349,6.706s-8.871,9.071-9.647,10.208c-.219.318-.615.9-.456,1.074a1.017,1.017,0,0,0,.314.26c.159.1.542-.14.855-.362,2.894-2.081,10.144-10.183,11.3-11.76.988-1.355,1.472-3.262,1.885-3.692.717-.743,6.217-5.322,4.782-6.159-2.406-1.4-7.364,2.432-9.057,3.663a36.435,36.435,0,0,0-7.624,6.959m-1-4.659c-.694,0-.766,1.124-.087,1.126.855,0,.98-1.126.087-1.126m-1.924,1.091c.07-.242.675-1.625,1.782-1.588,1.144.04,1.2.435,1.41.711a2.764,2.764,0,0,0,1.673.841c.306,0,.24-.3.1-.567a2.068,2.068,0,0,0-.542-.662,2.031,2.031,0,0,0-1.907-1.547,2.67,2.67,0,0,0-2.709,2.724c-.017.21.034.386.2.088M61.426,61.693c.465-.042.947-.108,1.434-.2l-.157.794a1.429,1.429,0,0,0-.983.483,2.992,2.992,0,0,0-.526,1.306l-2.431,11.9c-.791,3.875-1.6,6.361-2.5,7.679a5.967,5.967,0,0,1-3.977,2.478l-.171-1.163a3.036,3.036,0,0,0,1.6-1.545,28.03,28.03,0,0,0,1.425-5.359l3.369-16.4c.1.011.19.018.284.024.473.046.9.068,1.275.068.439,0,.888-.023,1.358-.068m14.54,8.561c-.5,2.444-1.3,4.137-2.415,5.082a7.577,7.577,0,0,1-5.009,1.417q-3.351,0-4.429-1.417t-.337-5.082l1.384-6.761a1.26,1.26,0,0,0-.068-.941,1.038,1.038,0,0,0-.81-.353l.116-.57c.458.064.916.109,1.361.145s.892.045,1.34.045c.432,0,.887-.016,1.354-.045.08-.009.167-.018.248-.024l-1.75,8.633c-.357,1.748-.38,2.9-.073,3.467s1,.844,2.076.844a3.184,3.184,0,0,0,2.408-.838A7.571,7.571,0,0,0,72.7,70.385l1.41-6.891a1.272,1.272,0,0,0-.069-.948,1.04,1.04,0,0,0-.809-.353l.115-.563c.464.064.918.109,1.373.145s.9.045,1.35.045.9-.016,1.367-.045c.082-.009.163-.018.243-.024Zm11.371-6.183a3.054,3.054,0,0,0-2.033-.537h-1.6l-.885,4.344h1.463a4.213,4.213,0,0,0,2.327-.587,2.491,2.491,0,0,0,1.124-1.648A1.537,1.537,0,0,0,87.337,64.072Zm-.444,6.189a3.77,3.77,0,0,0-2.365-.591h-2.07l-.974,4.758H83.7a4.381,4.381,0,0,0,2.495-.637,2.74,2.74,0,0,0,1.2-1.808A1.621,1.621,0,0,0,86.893,70.26Zm3.12-3a5.713,5.713,0,0,1-2.618,1.25,4.175,4.175,0,0,1,2.825,1.119,2.737,2.737,0,0,1,.562,2.532,4.515,4.515,0,0,1-2.32,3.128,10.265,10.265,0,0,1-5.077,1.086H76.745l.12-.573a1.546,1.546,0,0,0,.952-.352,1.735,1.735,0,0,0,.456-.954L80.86,61.67h5.664a6.95,6.95,0,0,1,3.908.843,2.287,2.287,0,0,1,.852,2.533A3.917,3.917,0,0,1,90.013,67.259Zm10.055-5.629-.115.57a1.562,1.562,0,0,0-.957.353,1.736,1.736,0,0,0-.451.944L96.285,74.569a1.271,1.271,0,0,0,.063.954,1.069,1.069,0,0,0,.807.356l-.114.565c-.542-.07-1.038-.13-1.477-.168s-.846-.057-1.223-.057-.807.018-1.256.057-.962.1-1.524.168l.116-.565a1.589,1.589,0,0,0,.956-.356,1.723,1.723,0,0,0,.451-.954l2.569-12.82c.1.008.2.016.294.026.445.029.893.045,1.336.045s.889-.016,1.355-.045S99.582,61.694,100.068,61.63Zm11.738,11.554a14.1,14.1,0,0,0-.515,1.521,12.869,12.869,0,0,0-.4,1.669H99.205l.122-.573a1.559,1.559,0,0,0,.952-.35,1.691,1.691,0,0,0,.451-.946l2.553-12.756c.1.005.2.016.3.026.444.029.892.045,1.335.045.379,0,.813-.016,1.307-.045s1.042-.081,1.635-.145l-.115.57a1.625,1.625,0,0,0-1.058.3,1.678,1.678,0,0,0-.5.992l-2.22,10.859h4.727a3.826,3.826,0,0,0,1.836-.193,1.529,1.529,0,0,0,.8-1.049Zm4.575-3.5-.823-5.793-4.512,7.178a3.537,3.537,0,0,1,2.06-1.283A19.628,19.628,0,0,1,116.382,69.685Zm33.019-8.01h.405c-.138.85-.246,1.628-.33,2.349s-.135,1.41-.169,2.064h-.493a2.731,2.731,0,0,0-.384-1.921,2.352,2.352,0,0,0-1.767-.517l-1.808.015-2.042,10a2.732,2.732,0,0,0-.017,1.776c.178.265.59.409,1.239.442l-.117.5c-.619-.071-1.19-.067-1.718-.1a19.792,19.792,0,0,0-3.013.071c-.024,0-.056,0-.08.005l2.55-12.688h-4.6c0,.011,0-.011-.007,0l-2.587,12.71h-2.473l-5.482-11.94-1.965,9.607a1.986,1.986,0,0,0,.036,1.39,1.539,1.539,0,0,0,1.16.408l-.1.536a18.732,18.732,0,0,0-2.731-.08c-.993.008-1.967-.01-2.869-.01s-1.746.013-2.63.066a.828.828,0,0,0-.093.008l-.769-5.136-5.49-.031-1.578,2.374s.217.068-.472.068c-.742,0-1.967-.034-1.967-.034-.1.164,6.607-10.2,6.607-10.2a3.753,3.753,0,0,0,.233-.4,1.134,1.134,0,0,0,.1-.272.342.342,0,0,0-.149-.408,1.467,1.467,0,0,0-.7-.16l.123-.534c.386.052.773.088,1.165.114s.793.036,1.213.036c.373,0,.766-.011,1.185-.036s.853-.062,1.3-.114c.039.377.077.7.118.976s.084.515.122.735l2.117,11.03a2.558,2.558,0,0,0,.436,1.152,1.057,1.057,0,0,0,.76.294c.063,0,.126,0,.181-.005v.005l.312-.005.814-4.007,1.644-8.041a2.082,2.082,0,0,0,.022-1.179c-.1-.2-.374-.324-.808-.383l.115-.57c.385.052.771.088,1.167.114s.8.036,1.224.036.85-.011,1.275-.036.857-.062,1.28-.114l4.49,10.108,2.026-10.063c.038,0,.079.005.116.005C140.093,61.666,144.845,61.675,149.4,61.675Zm.507,22.166q-.113.55-.21,1.131t-.178,1.187h-.273a1.674,1.674,0,0,0-1.018-1.55,2.67,2.67,0,0,0-1.114-.22,2.453,2.453,0,0,0-.868.142,1.567,1.567,0,0,0-.605.4,1.308,1.308,0,0,0-.309.619.758.758,0,0,0,.036.5.872.872,0,0,0,.348.35,3.784,3.784,0,0,0,.64.284c.26.091.565.2.911.312a5.579,5.579,0,0,1,1.277.579,1.788,1.788,0,0,1,.683.758,1.663,1.663,0,0,1,.072,1.031,2.478,2.478,0,0,1-.446.978,3.28,3.28,0,0,1-.875.813,4.522,4.522,0,0,1-1.252.559,5.922,5.922,0,0,1-1.578.2,7.273,7.273,0,0,1-1.454-.144,6.363,6.363,0,0,1-1.309-.416c.056-.249.108-.48.152-.693s.083-.405.121-.579c.018-.087.045-.236.084-.453s.086-.5.145-.856h.249a2.1,2.1,0,0,0,.226,1.116,1.7,1.7,0,0,0,.75.715,2.669,2.669,0,0,0,1.19.251,3.1,3.1,0,0,0,1-.154,1.852,1.852,0,0,0,.7-.416,1.182,1.182,0,0,0,.34-.6.89.89,0,0,0-.027-.528.817.817,0,0,0-.33-.358,3.259,3.259,0,0,0-.611-.281c-.246-.09-.533-.192-.864-.3a7.143,7.143,0,0,1-1.022-.431,2.586,2.586,0,0,1-.69-.509,1.415,1.415,0,0,1-.345-.64,1.919,1.919,0,0,1,.008-.825,2.626,2.626,0,0,1,.43-.983,3.067,3.067,0,0,1,.815-.779,4.165,4.165,0,0,1,1.164-.511,5.59,5.59,0,0,1,1.461-.182,7.6,7.6,0,0,1,1.424.127,5.075,5.075,0,0,1,1.157.359m-7.4-.384q-.11.539-.194,1.058c-.059.344-.1.682-.141,1.011H141.9a1.7,1.7,0,0,0,0-.5.46.46,0,0,0-.163-.292.761.761,0,0,0-.357-.135,3.9,3.9,0,0,0-.584-.032h-2.548l-.465,2.271h1.664a1.8,1.8,0,0,0,.5-.052.6.6,0,0,0,.313-.2,1.083,1.083,0,0,0,.188-.406h.241c-.068.265-.128.5-.178.7s-.094.373-.122.511q-.113.55-.212,1.212h-.251a.843.843,0,0,0-.01-.412.335.335,0,0,0-.227-.2,1.642,1.642,0,0,0-.474-.048h-1.664l-.54,2.635h2.825a2.027,2.027,0,0,0,.745-.109,1.046,1.046,0,0,0,.486-.4,3.1,3.1,0,0,0,.346-.792h.3c-.138.429-.269.846-.386,1.25s-.229.8-.327,1.185h-6.672l.068-.328a.857.857,0,0,0,.535-.188.921.921,0,0,0,.255-.531l1.264-6.168a.673.673,0,0,0-.038-.529.568.568,0,0,0-.458-.189l.066-.328Zm-7.864.744c-.027.127-.053.252-.079.377-.052.267-.1.53-.145.794s-.082.525-.116.787h-.287a1.883,1.883,0,0,0-.185-.918,1.269,1.269,0,0,0-.567-.57,1.989,1.989,0,0,0-.921-.194,2.866,2.866,0,0,0-1.056.2,3.027,3.027,0,0,0-.914.573,3.447,3.447,0,0,0-.7.892,4.121,4.121,0,0,0-.423,1.165,3.737,3.737,0,0,0-.05,1.322,2.514,2.514,0,0,0,.4,1.043,2.055,2.055,0,0,0,.785.68,2.425,2.425,0,0,0,1.1.243,3.7,3.7,0,0,0,1.2-.215,6.241,6.241,0,0,0,1.3-.657l-.463,1.347a5.377,5.377,0,0,1-1.393.633,5.493,5.493,0,0,1-1.508.2,3.936,3.936,0,0,1-.936-.11,3.373,3.373,0,0,1-.834-.325,3.063,3.063,0,0,1-1.332-1.441,3.525,3.525,0,0,1-.283-1.114,4.265,4.265,0,0,1,.077-1.248A5.273,5.273,0,0,1,128,85.96a5.478,5.478,0,0,1,1.2-1.371,5.564,5.564,0,0,1,1.617-.914,5.665,5.665,0,0,1,1.911-.333,4.572,4.572,0,0,1,1.1.126,3.446,3.446,0,0,1,.907.349C134.7,83.947,134.675,84.074,134.648,84.2Zm-17.062,7.227a.867.867,0,0,0,.453-.127.7.7,0,0,0,.241-.328,3.743,3.743,0,0,0,.147-.566l1.184-5.776a2.18,2.18,0,0,0,.06-.492.342.342,0,0,0-.129-.269.833.833,0,0,0-.381-.122l.065-.316c.227.031.448.055.672.067s.444.022.671.022.451-.007.692-.022.487-.036.74-.067l2.541,5.688.916-4.466a1.506,1.506,0,0,0,.039-.535.364.364,0,0,0-.2-.282,1.074,1.074,0,0,0-.486-.089l.063-.316c.239.031.473.055.7.067s.436.022.635.022.419-.007.633-.022.427-.036.647-.067l-.065.316a1.05,1.05,0,0,0-.409.094.6.6,0,0,0-.253.259,1.84,1.84,0,0,0-.153.491l-1.461,7.127h-1.388l-3.09-6.71L119.56,90.42a1.813,1.813,0,0,0-.052.584.4.4,0,0,0,.2.311,1.161,1.161,0,0,0,.516.113l-.066.316a8.462,8.462,0,0,0-1.263-.113c-.215,0-.437.007-.665.027s-.466.047-.709.086Zm.208-7.971c-.074.36-.14.712-.2,1.058s-.1.682-.141,1.011h-.276a1.761,1.761,0,0,0,0-.5.468.468,0,0,0-.163-.292.768.768,0,0,0-.357-.135,3.916,3.916,0,0,0-.584-.032h-2.548l-.466,2.271h1.664a1.8,1.8,0,0,0,.5-.052.606.606,0,0,0,.314-.2,1.111,1.111,0,0,0,.188-.406h.239c-.066.265-.126.5-.178.7s-.092.373-.122.511q-.113.55-.21,1.212h-.251a.843.843,0,0,0-.01-.412.343.343,0,0,0-.227-.2,1.656,1.656,0,0,0-.474-.048h-1.666l-.54,2.635h2.825a2.043,2.043,0,0,0,.746-.109,1.055,1.055,0,0,0,.486-.4,3.165,3.165,0,0,0,.346-.792h.3c-.138.429-.269.846-.386,1.25s-.231.8-.328,1.185h-6.672l.068-.328a.857.857,0,0,0,.535-.188.932.932,0,0,0,.255-.531L111.74,84.5a.671.671,0,0,0-.039-.529.564.564,0,0,0-.456-.189l.067-.328Zm-10.51.058c.252.02.5.031.754.031a11.524,11.524,0,0,0,1.574-.114l-.066.316a.87.87,0,0,0-.536.2.965.965,0,0,0-.256.535L107.48,90.7a.711.711,0,0,0,.038.536.562.562,0,0,0,.457.2l-.068.328c-.27-.038-.532-.068-.787-.091s-.5-.034-.74-.034-.488.012-.752.034-.533.053-.812.091l.066-.328a.851.851,0,0,0,.537-.2.94.94,0,0,0,.256-.536l1.277-6.218a.71.71,0,0,0-.038-.535.573.573,0,0,0-.457-.2l.065-.316C106.779,83.47,107.032,83.5,107.285,83.515Zm-2.518.686c-.028.127-.053.252-.079.377-.053.267-.1.53-.145.794s-.082.525-.116.787h-.287a1.913,1.913,0,0,0-.185-.918,1.27,1.27,0,0,0-.568-.57,1.983,1.983,0,0,0-.922-.194,2.86,2.86,0,0,0-1.054.2,3.045,3.045,0,0,0-.916.573,3.454,3.454,0,0,0-.7.892,4.019,4.019,0,0,0-.425,1.165,3.717,3.717,0,0,0-.05,1.322,2.5,2.5,0,0,0,.4,1.043,2.065,2.065,0,0,0,.784.68,2.432,2.432,0,0,0,1.106.243,3.659,3.659,0,0,0,1.2-.215,6.193,6.193,0,0,0,1.3-.657l-.464,1.347a5.372,5.372,0,0,1-1.392.633,5.5,5.5,0,0,1-1.508.2,3.931,3.931,0,0,1-.936-.11,3.379,3.379,0,0,1-.835-.325,3.067,3.067,0,0,1-1.331-1.441,3.454,3.454,0,0,1-.282-1.114,4.262,4.262,0,0,1,.075-1.248,5.27,5.27,0,0,1,.678-1.708,5.5,5.5,0,0,1,1.207-1.371,5.564,5.564,0,0,1,1.617-.914,5.66,5.66,0,0,1,1.91-.333,4.6,4.6,0,0,1,1.1.126,3.458,3.458,0,0,1,.907.349C104.823,83.947,104.794,84.074,104.767,84.2Zm-7.622-.889c-.084.482-.156.976-.22,1.48h-.342a2.135,2.135,0,0,0-.345-1.165,2.162,2.162,0,0,0-.92-.766,3.366,3.366,0,0,0-1.389-.274,3.053,3.053,0,0,0-1.081.177,1.906,1.906,0,0,0-.754.5,1.6,1.6,0,0,0-.386.769.935.935,0,0,0,.046.621,1.075,1.075,0,0,0,.432.437,4.709,4.709,0,0,0,.8.353c.323.115.7.244,1.135.388a7.03,7.03,0,0,1,1.591.723,2.246,2.246,0,0,1,.853.945,2.078,2.078,0,0,1,.087,1.283A3.082,3.082,0,0,1,96.094,90,4.147,4.147,0,0,1,95,91.015a5.605,5.605,0,0,1-1.562.7,7.234,7.234,0,0,1-1.965.256,8.991,8.991,0,0,1-1.813-.18,7.755,7.755,0,0,1-1.632-.519c.072-.311.136-.6.189-.862s.108-.5.152-.721c.023-.11.059-.3.1-.565s.108-.624.183-1.067h.311a2.609,2.609,0,0,0,.278,1.391,2.129,2.129,0,0,0,.937.891,3.326,3.326,0,0,0,1.483.312,3.884,3.884,0,0,0,1.241-.192,2.315,2.315,0,0,0,.871-.517,1.441,1.441,0,0,0,.422-.75,1.093,1.093,0,0,0-.032-.659,1.006,1.006,0,0,0-.41-.444A4.149,4.149,0,0,0,93,87.733c-.309-.112-.666-.238-1.076-.377a8.96,8.96,0,0,1-1.275-.538,3.185,3.185,0,0,1-.862-.635,1.739,1.739,0,0,1-.429-.8,2.374,2.374,0,0,1,.011-1.028,3.187,3.187,0,0,1,.533-1.224,3.8,3.8,0,0,1,1.017-.97,5.123,5.123,0,0,1,1.45-.637,6.9,6.9,0,0,1,1.822-.227,9.566,9.566,0,0,1,1.772.156,6.259,6.259,0,0,1,1.442.449C97.314,82.362,97.224,82.83,97.145,83.312Zm-9.254.145c-.074.36-.141.712-.2,1.058s-.1.682-.14,1.011h-.277a1.7,1.7,0,0,0,0-.5.472.472,0,0,0-.162-.292.776.776,0,0,0-.359-.135,3.9,3.9,0,0,0-.583-.032H83.627l-.466,2.271h1.667a1.8,1.8,0,0,0,.5-.052.6.6,0,0,0,.312-.2,1.083,1.083,0,0,0,.19-.406h.239c-.066.265-.128.5-.178.7s-.092.373-.121.511q-.113.55-.211,1.212H85.31a.82.82,0,0,0-.011-.412.336.336,0,0,0-.226-.2,1.654,1.654,0,0,0-.473-.048H82.933l-.54,2.635h2.825a2.04,2.04,0,0,0,.746-.109,1.046,1.046,0,0,0,.484-.4,3.04,3.04,0,0,0,.347-.792h.3q-.207.643-.386,1.25c-.122.405-.229.8-.328,1.185H79.714l.067-.328a.845.845,0,0,0,.535-.188.928.928,0,0,0,.256-.531L81.837,84.5a.683.683,0,0,0-.039-.529.566.566,0,0,0-.457-.189l.066-.328Zm-7.546,0q-.11.539-.194,1.058c-.059.344-.1.682-.14,1.011h-.279a1.64,1.64,0,0,0,0-.5.47.47,0,0,0-.16-.292.761.761,0,0,0-.353-.135,3.855,3.855,0,0,0-.579-.032H76.323l-.518,2.523h1.463a1.878,1.878,0,0,0,.5-.049.579.579,0,0,0,.306-.194,1.1,1.1,0,0,0,.185-.412H78.5c-.065.252-.124.482-.174.688s-.1.385-.127.536-.065.346-.1.548-.067.423-.1.662h-.253a.81.81,0,0,0-.01-.414.339.339,0,0,0-.224-.2,1.493,1.493,0,0,0-.475-.053H75.578l-.513,2.5a.684.684,0,0,0,.052.559.631.631,0,0,0,.531.172l-.068.328c-.326-.038-.622-.068-.89-.091s-.509-.034-.725-.034c-.244,0-.5.012-.757.034s-.528.053-.807.091l.067-.328a.846.846,0,0,0,.536-.2.963.963,0,0,0,.258-.536l1.27-6.193a.675.675,0,0,0-.039-.529.566.566,0,0,0-.457-.189l.067-.328Zm-10.269.058c.249.02.5.031.752.031a11.517,11.517,0,0,0,1.575-.114l-.065.316a.864.864,0,0,0-.536.2.948.948,0,0,0-.256.535L70.272,90.7a.691.691,0,0,0,.038.536.559.559,0,0,0,.454.2l-.066.328c-.27-.038-.533-.068-.786-.091s-.5-.034-.74-.034-.491.012-.752.034-.534.053-.812.091l.066-.328a.85.85,0,0,0,.536-.2.951.951,0,0,0,.256-.536l1.275-6.218a.7.7,0,0,0-.036-.535.574.574,0,0,0-.456-.2l.063-.316C69.571,83.47,69.824,83.5,70.077,83.515Zm-8.468-2.171c.317.024.633.038.95.038.274,0,.586-.015.937-.038s.743-.06,1.167-.108l-.082.4a1.122,1.122,0,0,0-.759.218,1.2,1.2,0,0,0-.356.707l-1.582,7.722h2.951a2.333,2.333,0,0,0,.97-.186,1.932,1.932,0,0,0,.724-.575,3.725,3.725,0,0,0,.532-.995l.339.048c-.2.526-.382,1.053-.543,1.577s-.3,1.047-.42,1.566H58.5l.085-.414a1.078,1.078,0,0,0,.675-.24,1.165,1.165,0,0,0,.325-.669l1.6-7.834a.886.886,0,0,0-.046-.677.718.718,0,0,0-.577-.248l.082-.4C60.969,81.285,61.29,81.32,61.609,81.344Z" transform="translate(0 -0.75)"/></g></svg>