<svg xmlns="http://www.w3.org/2000/svg" width="217.137" height="98.402" viewBox="0 0 217.137 98.402"><defs><style>.a{fill:#d0eb51;}.b{fill:#bf2e2e;}.c{fill:#ef5854;}.d{fill:#1b9b05;}.e{fill:#d0d051;}.f{fill:#93d636;}.f,.g,.h{opacity:0.85;}.f,.g,.h,.i,.m{isolation:isolate;}.g{fill:#93a136;}.h{fill:#93d69f;}.i{fill:#527185;opacity:0.1;}.j{fill:#6c747a;}.k{fill:#565c69;}.l{fill:#454a54;}.m{fill:#b4c2cc;opacity:0.2;}</style></defs><g transform="translate(-2293.307 -5324.625)"><g transform="translate(2381.597 5324.625)"><path class="a" d="M2489.418,5324.625H2434.41a4.081,4.081,0,0,0-4.019,4.092V5393.5l19.028,19.027h40a4.079,4.079,0,0,0,4.017-4.092v-79.719A4.08,4.08,0,0,0,2489.418,5324.625Z" transform="translate(-2430.391 -5324.625)"/><g transform="translate(13.406 32.748)"><path class="b" d="M2451.526,5378.764l2.281,2.281a1.093,1.093,0,0,0,1.546,0l3.707-3.707a1.093,1.093,0,0,0-1.546-1.546l-2.935,2.935-1.508-1.507a1.093,1.093,0,0,0-1.545,1.545Z" transform="translate(-2451.206 -5375.472)"/></g><g transform="translate(13.406 21.852)"><path class="b" d="M2451.526,5361.846l2.281,2.281a1.093,1.093,0,0,0,1.546,0l3.707-3.708a1.093,1.093,0,0,0-1.546-1.546l-2.935,2.935-1.508-1.507a1.093,1.093,0,0,0-1.545,1.545Z" transform="translate(-2451.206 -5358.553)"/></g><path class="c" d="M2488.069,5362.2a1.679,1.679,0,0,1-1.68,1.68h-12.835a1.679,1.679,0,0,1-1.679-1.68h0a1.679,1.679,0,0,1,1.679-1.679h12.835a1.68,1.68,0,0,1,1.68,1.679Z" transform="translate(-2445.157 -5337.402)"/><path class="d" d="M2495.19,5379.5a1.68,1.68,0,0,1-1.68,1.68h-19.956a1.679,1.679,0,0,1-1.679-1.68h0a1.679,1.679,0,0,1,1.679-1.68h19.956a1.68,1.68,0,0,1,1.68,1.68Z" transform="translate(-2445.157 -5343.559)"/><g transform="translate(13.406 43.645)"><path class="b" d="M2451.526,5395.683l2.281,2.281a1.093,1.093,0,0,0,1.546,0l3.707-3.707a1.093,1.093,0,0,0-1.546-1.546l-2.935,2.935-1.508-1.507a1.092,1.092,0,0,0-1.545,1.544Z" transform="translate(-2451.206 -5392.391)"/></g><path class="d" d="M2495.19,5396.8a1.68,1.68,0,0,1-1.68,1.68h-19.956a1.68,1.68,0,0,1-1.679-1.68h0a1.679,1.679,0,0,1,1.679-1.68h19.956a1.68,1.68,0,0,1,1.68,1.68Z" transform="translate(-2445.157 -5349.716)"/><g transform="translate(13.406 54.541)"><path class="b" d="M2451.526,5412.6l2.281,2.281a1.093,1.093,0,0,0,1.546,0l3.707-3.707a1.093,1.093,0,0,0-1.546-1.546l-2.935,2.935-1.508-1.508a1.093,1.093,0,0,0-1.545,1.545Z" transform="translate(-2451.206 -5409.309)"/></g><path class="d" d="M2495.19,5414.1a1.68,1.68,0,0,1-1.68,1.68h-19.956a1.679,1.679,0,0,1-1.679-1.68h0a1.679,1.679,0,0,1,1.679-1.679h19.956a1.679,1.679,0,0,1,1.68,1.679Z" transform="translate(-2445.157 -5355.874)"/><path class="e" d="M2449.419,5435.656a4.082,4.082,0,0,0-4.02-4.092h-15.008l19.028,19.028Z" transform="translate(-2430.391 -5362.688)"/></g><rect class="f" width="69.837" height="16.832" rx="5.476" transform="translate(2293.307 5333.018)"/><rect width="36.205" height="3.979" transform="translate(2300.3 5339.444)"/><path class="g" d="M5.476,0H64.361a5.476,5.476,0,0,1,5.476,5.476v5.881a5.477,5.477,0,0,1-5.477,5.477H5.476A5.476,5.476,0,0,1,0,11.357V5.476A5.476,5.476,0,0,1,5.476,0Z" transform="translate(2319.507 5356.332)"/><rect width="48.73" height="3.98" transform="translate(2326.5 5362.759)"/><path class="h" d="M5.476,0H64.361a5.476,5.476,0,0,1,5.476,5.476v5.881a5.477,5.477,0,0,1-5.477,5.477H5.476A5.476,5.476,0,0,1,0,11.357V5.476A5.476,5.476,0,0,1,5.476,0Z" transform="translate(2293.307 5379.65)"/><rect width="27.925" height="3.98" transform="translate(2300.3 5386.077)"/><g transform="translate(2430.672 5332.055)"><path class="i" d="M2540.622,5345.8a27.176,27.176,0,1,1-24.6,29.531A27.176,27.176,0,0,1,2540.622,5345.8Z" transform="translate(-2509.905 -5339.551)"/><path class="j" d="M2584.96,5430.783l7.813-6.131,21.481,27.847-7.814,6.131Z" transform="translate(-2534.483 -5367.658)"/><path class="k" d="M2574.006,5427.444c1.417,1.8,7.38,1.593,12.057-2.077s6.3-9.414,4.881-11.219c-.085-.107-3.14,4.716-7.387,8.027S2573.881,5427.283,2574.006,5427.444Z" transform="translate(-2530.583 -5363.919)"/><path class="l" d="M2513.684,5389.948a33.253,33.253,0,1,0,5.625-46.69A33.254,33.254,0,0,0,2513.684,5389.948Zm3.066-2.405a29.356,29.356,0,1,1,41.216,4.964A29.357,29.357,0,0,1,2516.75,5387.543Z" transform="translate(-2506.586 -5336.161)"/><path class="m" d="M2616.661,5455.714l-2.5,1.962-18.6-24.174a1.491,1.491,0,0,1,.252-2.092l.157-.122a1.489,1.489,0,0,1,2.091.251Z" transform="translate(-2538.143 -5369.907)"/></g></g></svg>