<svg xmlns="http://www.w3.org/2000/svg" width="2356.6" height="839.266" viewBox="0 0 2356.6 839.266"><defs><style>.a{opacity:0.14;}.b{fill:#d266ad;}.c{fill:#f1ce30;}.d{fill:#e70020;}.e{fill:#222221;}.f{fill:#fff;}.g{fill:#7b00d0;}.h{fill:#7fff45;}</style></defs><g class="a" transform="translate(-35 -1422.388)"><g transform="translate(35 1422.388)"><path class="b" d="M407.435-451.992a172.155,172.155,0,0,1-12.218,22.031,156.1,156.1,0,0,1-9.608-22.155c-.481-1.4-2.543-2.343-3.657-.966a222.92,222.92,0,0,0-16.107,22.693,71.638,71.638,0,0,1-11.9-20.728c-.6-1.611-3.02-2.294-3.945-.515-4.979,9.579-11.052,18.084-17.552,26.635q-6.61-12.516-13.231-25.026a2.177,2.177,0,0,0-3.719,0,187.42,187.42,0,0,1-17.038,21.934,152.313,152.313,0,0,1-10.53-21.03c-.6-1.487-2.8-2.168-3.7-.484-3.841,7.214-8.719,15.954-8.875,24.28a1.031,1.031,0,0,0,1.9.517c3.657-5.782,5.746-12.573,8.6-18.909a158.416,158.416,0,0,0,10.462,20.191,2.109,2.109,0,0,0,3.276.422,194.048,194.048,0,0,0,17.5-21.712q5.833,11.082,11.689,22.15a1.963,1.963,0,0,0,2.988.657,1.632,1.632,0,0,0,2.25.093,101.936,101.936,0,0,0,17.576-23.6,77.915,77.915,0,0,0,12.972,20.347,2.2,2.2,0,0,0,3.419-.441,218.25,218.25,0,0,1,14.813-21.5,162.591,162.591,0,0,0,10.33,22.54,2.207,2.207,0,0,0,3.766,0A172.33,172.33,0,0,0,411.19-449.8C412.352-452.321,408.608-454.533,407.435-451.992Z" transform="translate(-24.593 572.667)"/><path class="c" d="M699.252-425.065A193.167,193.167,0,0,1,676.935-437.8c-2.333-1.52-4.381,2.129-2.16,3.695a147.093,147.093,0,0,0,18.773,11.087,116.364,116.364,0,0,1-19.7,9.08,2.214,2.214,0,0,0-.521,3.994l18.05,10.591c-6.277,3.149-12.58,6.324-18.6,9.911a1.438,1.438,0,0,0-.681,1.087,2.044,2.044,0,0,0-.287,3.638c6.244,3.923,12.645,7.588,18.925,11.456a56.315,56.315,0,0,1-22.289,6.936c-2.025.2-3.154,2.942-1.106,4.082a131.41,131.41,0,0,1,23.289,16.488l-22.225,6.875c-1.647.51-2.251,3.073-.513,3.926,8.189,4.022,16.351,8.132,24.729,11.749,1.728.746,3.239-1.595,1.518-2.6-6.379-3.713-12.936-7.114-19.5-10.5l20.863-6.4a2.2,2.2,0,0,0,.964-3.649,134.742,134.742,0,0,0-21.6-16.548,60.891,60.891,0,0,0,21.209-8.437,2.218,2.218,0,0,0,0-3.784c-6.666-4.229-13.384-8.5-20.375-12.192,7.212-3.048,14.246-6.583,21.259-10.046a2.169,2.169,0,0,0,0-3.716l-17.506-10.336a119.91,119.91,0,0,0,19.793-9.877C700.547-422.089,700.8-424.326,699.252-425.065Z" transform="translate(221.318 589.974)"/><path class="c" d="M197.931-201.137l-23.683-14.192c-2.406-1.442-4.594,2.315-2.194,3.753q10.234,6.133,20.468,12.27a141.166,141.166,0,0,1-20.678,9.66,2.209,2.209,0,0,0-.521,3.981q10.593,6.395,20.728,13.461a145.079,145.079,0,0,1-23.538,13.862c-1.535.717-1.308,2.994,0,3.773l20.767,12.35a96.358,96.358,0,0,1-21.572,12.977c-1.334.585-1.329,2.527-.443,3.439a60.412,60.412,0,0,0,16.817,12.249q-8.716,5.535-17.434,11.066a2.179,2.179,0,0,0,0,3.709,94.393,94.393,0,0,0,24.2,12.387c1.559.541,2.686-2.043,1.139-2.7A110.1,110.1,0,0,1,171.541-100.5l18.143-11.46c1.72-1.088,1.158-3.266-.52-3.975A55.3,55.3,0,0,1,172.605-126.7a100.074,100.074,0,0,0,22.014-14.262,2.2,2.2,0,0,0-.443-3.434l-20.01-11.9a145.05,145.05,0,0,0,22.758-14.056,2.221,2.221,0,0,0,0-3.768q-9.638-6.82-19.671-13.013a147.293,147.293,0,0,0,20.678-10.252A2.2,2.2,0,0,0,197.931-201.137Z" transform="translate(-93.625 749.343)"/><path class="b" d="M655.266-100.888q-6.774,11.971-13.547,23.944l-13.285-16c-1.911-2.3-4.485-7.191-8.251-6.682-3.31.446-5.244,5.654-6.663,7.9q-5.735,9.09-11.472,18.177A129.352,129.352,0,0,0,581.609-97.4a2.214,2.214,0,0,0-3.439.443q-6.5,12.726-12.993,25.453-9.019-10.407-18.039-20.818a2.167,2.167,0,0,0-3.372.435c-5.518,8.97-11.06,17.918-16.369,27.012-.959,1.645,1.466,3,2.522,1.474,5.438-7.87,10.682-15.862,15.934-23.856q9.129,10.566,18.259,21.131a2.182,2.182,0,0,0,3.406-.438q6.578-12.846,13.16-25.692A125.241,125.241,0,0,1,600.192-68.4a2.211,2.211,0,0,0,3.774,0l8.328-13.2c1.354-2.145,6.809-13.112,8.794-13.013,2.18.109,7.555,8.719,9,10.462l10.433,12.555a2.192,2.192,0,0,0,3.419-.44q7.539-13.332,15.075-26.661C660.4-101.134,656.644-103.327,655.266-100.888Z" transform="translate(133.824 829.749)"/><path class="d" d="M808.77-231.633c-4.314,5.071-8.654,10.074-13.23,14.9L778.846-234a2.223,2.223,0,0,0-3.093,0,170.787,170.787,0,0,0-15.817,17.255q-5.112-5.564-10.221-11.126c-1.805-1.963-4.4-6-7.477-6.135-3.193-.135-4.868,3.064-6.554,5.14-3.155,3.887-6.159,7.914-9.191,11.907-3.805-5.172-7.6-10.356-11.477-15.476-.873-1.153-2.735-1.486-3.541,0-3.31,6.109-6.549,12.207-9.607,18.444a1.358,1.358,0,0,0,2.343,1.37c3.188-4.961,6.213-9.989,9.208-15.059,3.7,5.141,7.459,10.242,11.2,15.356.714.976,2.435,1.631,3.364.433q3.656-4.7,7.31-9.406,1.828-2.351,3.652-4.7,1.058-3.687,3.766-1.645c5.273.873,12.208,11.887,15.782,15.779a2.189,2.189,0,0,0,3.089,0,170.927,170.927,0,0,1,15.683-17.48q8.374,8.665,16.75,17.328a2.215,2.215,0,0,0,3.1,0,205.036,205.036,0,0,0,14.678-16.6C813.427-230.73,810.578-233.755,808.77-231.633Z" transform="translate(243.614 732.339)"/><path class="b" d="M274.476-346.058a1.852,1.852,0,0,0-2.357-1.756,1.756,1.756,0,0,0-1.779-1.72c-12.648.5-25.412,2.774-37.972,4.323-11.746,1.447-23.525,2.761-35.22,4.576a1.272,1.272,0,0,0-1.078,1.121c-.749.4-1.049,1.655-.111,2.079,23.719,10.706,48.955,20.663,73.942,27.96a1.679,1.679,0,0,0,2.258-1.435,1.574,1.574,0,0,0,2.025-1.479C274.791-323.515,274.944-334.925,274.476-346.058Zm-72.671,8.08c11.26-1.005,22.5-2.369,33.727-3.634,11.658-1.315,23.623-2.028,35.142-4.283-.45,10.845-.308,21.945.266,32.793l-.034-.018C248.432-322.313,224.966-330.435,201.805-337.978Z" transform="translate(-74.903 651.758)"/><path class="c" d="M624.251-421.721l-.137,0a2.217,2.217,0,0,0,.057-1.065C617.746-457,610.533-491.061,604.2-525.3c-.323-1.748-2.9-1.932-3.711-.485C581.41-491.7,561.716-457.86,543.919-423.09a1.05,1.05,0,0,0,.007,1.02c-1.707.018-1.609,2.4,0,2.6,26.492,3.144,53.7,2.486,80.321,1.688C626.778-417.862,626.788-421.8,624.251-421.721Zm-78.378-.35c19.41-31.676,37.211-64.376,55.385-96.781,5.91,32.448,11.726,64.993,18.837,97.193l.008.026C595.334-421.07,570.632-422.181,545.874-422.072Z" transform="translate(143.577 526.749)"/><path class="b" d="M830.365-372.737c-11.008-6.958-26.058-14-39.153-15.007a.684.684,0,0,0-.608.277.743.743,0,0,0-.917.38c-11.407,23.263-20.966,47.42-32.368,70.71-.777,1.587,1,4.084,2.738,2.74,23.108-17.833,46.6-35.307,69.231-53.744a1.721,1.721,0,0,0,.375-2.206A1.7,1.7,0,0,0,830.365-372.737Zm-65.8,50.519c9.954-20.71,19.81-41.937,26.569-63.822,5.278,2.738,11.1,4.4,16.6,6.642,6.546,2.663,12.767,5.881,19.145,8.862l-.018.01C805.752-354.92,785.219-338.445,764.564-322.218Z" transform="translate(278.48 625.304)"/><path class="c" d="M420.235-68.44c-12.765-18.5-26.378-36.957-41.714-53.424l-.008-.008a1.418,1.418,0,0,0-1.846-.692,134.714,134.714,0,0,0-37.581,23.418,1.17,1.17,0,0,0-.249,1.461,1.3,1.3,0,0,0,.038,2.458,714.8,714.8,0,0,1,78.607,29.54C419.121-64.949,421.5-66.606,420.235-68.44ZM341.1-97.283c11.633-7.223,23.307-14.129,35.106-21.036,12.472,15.222,24.908,30.3,36.463,46.21A543.352,543.352,0,0,0,341.1-97.283Z" transform="translate(14.804 816.706)"/><path class="d" d="M789.822-113.234q-24.883,8.538-49.761,17.1c-15.328,5.285-31.71,9.642-46.334,16.688-.852-.774-2.292.471-1.681,1.525,7.186,12.363,14.421,24.581,20.986,37.294,1.108,2.145,4.258.261,3.221-1.882A208.957,208.957,0,0,0,694.9-77.955c16.112-3.441,32.008-10.081,47.6-15.312q21.675-7.27,43.336-14.575c-4.019,5.451-9.574,9.971-14.334,14.619q-9.291,9.071-18.575,18.148L734.356-56.925c-5.443,5.317-11.273,13.231-18.169,16.548-1.893.911-.554,3.893,1.409,3.344,6.12-1.712,10.569-8.233,14.952-12.521L754.59-71.119q10.441-10.214,20.883-20.43c5.94-5.814,12.775-11.3,16.52-18.86C792.681-111.8,791.525-113.819,789.822-113.234Z" transform="translate(237.445 822.587)"/><path class="d" d="M272.975-76.03c-25.733,3.537-51.477,7.01-77.2,10.643-1.74.246-2.141,3.2-.508,3.9,22.758,9.625,46.015,18.76,69.9,25.223a2.041,2.041,0,0,0,3.607-.5c4.436-11.746,6.137-24.684,6.961-37.157C275.84-75.5,274.267-76.207,272.975-76.03Zm-7.766,37.1c-20.4-7.637-40.842-14.956-60.94-23.343q33.455-4.494,66.888-9.136C270.179-60.295,267.742-49.789,265.209-38.933Z" transform="translate(-75.617 846.039)"/><path class="d" d="M546.329-242.13c-15.095-21.139-30.136-42.317-45.311-63.4-1.026-1.427-3.832-.406-3.683,1.36,2.059,24.623,4.781,49.462,10.162,73.614a2.041,2.041,0,0,0,2.119,2.96c12.461-1.531,24.708-6.042,36.134-11.112C547.193-239.346,547.087-241.069,546.329-242.13Zm-36.454,10.369c-2.722-21.611-5.746-43.113-7.663-64.806q19.532,27.529,39.184,54.973C531.1-237.29,520.663-234.564,509.876-231.761Z" transform="translate(115.048 683.219)"/><path class="d" d="M145.363-291.021c-3.323-.34-6.645-.7-9.973-1-1.862-.169-3.858-.521-5.451.7-1.769,1.359-2.207,3.978-2.769,5.97a51.341,51.341,0,0,0-1.857,8.582l0,.016a.836.836,0,0,0,.241,1.458c4.8,1.1,9.872,1.473,14.541,3.071a1.473,1.473,0,0,0,1.8-1.021,80.644,80.644,0,0,1,4.863-15.349A1.642,1.642,0,0,0,145.363-291.021ZM139.29-275.13a103.212,103.212,0,0,1-10.894-1.409c.756-2.807,1.447-11.462,4.583-12.36,1.394-.4,3.815.336,5.26.469,1.61.15,3.221.29,4.83.432A64.426,64.426,0,0,0,139.29-275.13Z" transform="translate(-119.178 691.743)"/><path class="e" d="M475.208-465.26l-11.785-7.908c-2.031-1.364-4.928-4.174-7.71-3.838-2.585.313-4.195,3.076-5.663,4.846-2.683,3.234-5.438,6.417-7.94,9.794a1.372,1.372,0,0,0-.068,1.579,1.214,1.214,0,0,0-.4,2.152c5.643,4.2,11.583,8.039,17.038,12.48a1.776,1.776,0,0,0,2.73-.352,85.225,85.225,0,0,1,14.161-15.937A1.814,1.814,0,0,0,475.208-465.26Zm-15.761,15.553c-5.281-3.185-10.322-6.775-15.486-10.151a1.439,1.439,0,0,0,.834-.435c2.8-3.025,8.316-13.05,12.868-12.374,2.24.332,5.949,3.972,7.867,5.252l5.907,3.942A86.456,86.456,0,0,0,459.447-449.707Z" transform="translate(79.703 558.024)"/><path class="f" d="M491.231-203.88l-11.785-7.909c-2.031-1.363-4.93-4.172-7.712-3.836-2.585.311-4.193,3.076-5.663,4.845-2.683,3.234-5.438,6.417-7.94,9.794a1.369,1.369,0,0,0-.067,1.579,1.213,1.213,0,0,0-.4,2.152c5.641,4.2,11.581,8.039,17.038,12.48a1.772,1.772,0,0,0,2.729-.352,85.229,85.229,0,0,1,14.163-15.937A1.812,1.812,0,0,0,491.231-203.88ZM475.47-188.327c-5.283-3.185-10.323-6.775-15.486-10.152a1.434,1.434,0,0,0,.834-.435c2.8-3.024,8.315-13.05,12.866-12.374,2.24.332,5.951,3.972,7.868,5.252l5.905,3.942A86.384,86.384,0,0,0,475.47-188.327Z" transform="translate(89.781 745.93)"/><path class="f" d="M194.864-451.888c-3.178-3.261-8.341-11.125-13.309-11.42-2.717-.16-5.43,2.233-7.575,3.532l-11.407,6.9a1.79,1.79,0,0,0-.358,2.773,115.553,115.553,0,0,0,13.9,13.111,1.783,1.783,0,0,0,1.693.3,1.02,1.02,0,0,0,1.3-.194,82.892,82.892,0,0,1,15.429-12.387A1.689,1.689,0,0,0,194.864-451.888Zm-16.483,12.35a162.012,162.012,0,0,1-12.166-11.477c3.947-2.613,8.175-5.91,12.389-7.455,4.851-1.777,9.072,3.768,12.532,7.531A73.141,73.141,0,0,0,178.381-439.538Z" transform="translate(-96.075 566.653)"/><path class="c" d="M793-467.269c-3.273-2.437-6.519-4.908-9.817-7.31-1.356-.989-2.808-2.457-4.646-2.281-1.908.181-3.242,1.957-4.467,3.177q-4.44,4.421-8.779,8.947a1.515,1.515,0,0,0-.223.349,1.082,1.082,0,0,0-1.041,1.566,54.536,54.536,0,0,0,13.239,13.956,1.553,1.553,0,0,0,2.152,0c4.724-5.21,9.282-10.579,13.906-15.88A1.641,1.641,0,0,0,793-467.269Zm-14.93,15.31a53.008,53.008,0,0,1-10.894-10.229,1.651,1.651,0,0,0,.4-.264c1.979-1.96,3.927-3.949,5.882-5.933,1.455-1.477,3.307-4.381,5.418-4.524,2.082-.142,4.3,2.361,5.94,3.571l5.027,3.711C785.9-461.087,781.933-456.566,778.07-451.959Z" transform="translate(282.727 558.125)"/><path class="c" d="M818.582-295.159c-2.339-2.374-6.243-8.362-10.322-7.82-2.276.3-4.425,2.836-6.047,4.187-2.932,2.44-5.954,4.811-8.746,7.412a.966.966,0,0,0-1.256,1.329c2.7,5.36,6.3,9.884,9.941,14.606a1.593,1.593,0,0,0,2.706,0,25.444,25.444,0,0,1,8.869-8.411c2.069-1.15,4.6-1.66,6.342-3.338C823.147-290.164,821.014-292.693,818.582-295.159Zm-9.607,10.516a27.041,27.041,0,0,0-5.728,6.01,60.273,60.273,0,0,1-8.059-10.325c3.2-2.38,6.057-5.255,9.325-7.533a6.559,6.559,0,0,1,6.026-2.093l2.144,2.157c.922.927,4.887,3.838,5,5.032C817.976-288.368,810.885-286.088,808.975-284.643Z" transform="translate(300.473 684.315)"/><path class="b" d="M656.825-311.352a1.681,1.681,0,0,0-1.657-1.657l-18.273-.059a1.684,1.684,0,0,0-1.658,1.658c-.041,6.085-.528,12.371.015,18.431a1.48,1.48,0,0,0,2.944.161.7.7,0,0,0,.556.645c5.267,1.034,11.071.481,16.426.544a1.5,1.5,0,0,0,1.458-1.456C657.242-299.08,656.828-305.322,656.825-311.352Zm-18.074,17.64a.687.687,0,0,0-.482.406c.538-5.4.29-10.983.282-16.439l14.948.047c-.049,5.031-.28,10.178.1,15.185C648.693-294.461,643.488-294.73,638.751-293.712Z" transform="translate(201.649 677.095)"/><path class="g" d="M674.364-141.143c-3.214-3.592-6.524-7.1-9.786-10.656a1.646,1.646,0,0,0-1.981-.256,61.97,61.97,0,0,0-14.3,13.661.976.976,0,0,0,.213,1.368,1.563,1.563,0,0,0-.134,2.289c3.99,4.6,8.572,8.755,12.888,13.057a1.736,1.736,0,0,0,2.417,0q4.831-4.758,9.664-9.514c1.4-1.383,3.947-3.136,3.9-5.459C677.216-138.505,675.48-139.9,674.364-141.143Zm-6.384,10.486q-2.742,2.676-5.48,5.351c-3.881-3.959-7.688-8.065-11.865-11.69a1.774,1.774,0,0,0-.353-.21,79.264,79.264,0,0,1,12.907-11.27l4.646,5.1c1.408,1.544,5.589,4.939,5.469,6.863S669.348-132,667.979-130.656Z" transform="translate(209.791 790.57)"/><path class="b" d="M377.085-52.852a94.874,94.874,0,0,0-16.211-9.115,1.775,1.775,0,0,0-2.321.609,66.7,66.7,0,0,0-8.914,15.067c-.595,1.429,1.307,2.489,2.439,1.854a105.143,105.143,0,0,0,17.99,9.468,1.569,1.569,0,0,0,2.317-1.329,31.332,31.332,0,0,1,5.3-14.261A1.71,1.71,0,0,0,377.085-52.852Zm-7.606,14.5a79.93,79.93,0,0,1-16.292-7.712,86.15,86.15,0,0,1,7.386-12.316,94.582,94.582,0,0,1,13.371,7.464A30.718,30.718,0,0,0,369.479-38.35Z" transform="translate(22.07 854.776)"/><path class="e" d="M144.433-52.951c-5.057-5.22-8.07-11.118-11.781-17.226-.582-.955-2.216-.344-1.854.782,2.157,6.705,7.417,12.85,12.409,17.67A.868.868,0,0,0,144.433-52.951Z" transform="translate(-115.557 849.441)"/><path class="e" d="M142.789-60.06a46.613,46.613,0,0,1-3.825-6.3,67.9,67.9,0,0,1-2.517-7.557c-.432-1.3-2.664-1.181-2.53.342.459,5.3,3.53,11.035,7.2,14.811C141.94-57.919,143.477-59.038,142.789-60.06Z" transform="translate(-113.566 846.819)"/><path class="e" d="M294.7-324.63c-1.97,5.946-5.045,10.42-11.166,12.65a.791.791,0,0,0,.42,1.523c6.142-1.683,12.035-7.349,12.7-13.907C296.774-325.531,295.034-325.644,294.7-324.63Z" transform="translate(-19.788 668.347)"/><path class="e" d="M301.947-324.568a19.11,19.11,0,0,1-11.273,14.808c-1.041.484-.306,2.2.78,1.852A19.644,19.644,0,0,0,304.646-324.2C304.819-325.728,302.2-326.095,301.947-324.568Z" transform="translate(-15.268 668.241)"/><path class="e" d="M180.818-410.767c-8.176.178-15.206-2.418-19.384-9.9-.518-.929-1.854-.112-1.409.824,3.548,7.468,12.666,13.119,21.061,11.05A1.01,1.01,0,0,0,180.818-410.767Z" transform="translate(-97.195 601.013)"/><path class="e" d="M184.816-412.536a69.973,69.973,0,0,1-16.367-9.134c-.953-.749-2.321.556-1.36,1.36a53.979,53.979,0,0,0,16.807,9.957C185.156-409.923,186.069-412,184.816-412.536Z" transform="translate(-92.901 600.427)"/><path class="e" d="M142.984-316.121a14.5,14.5,0,0,0-17.019,7.334.808.808,0,0,0,1.395.815,13.347,13.347,0,0,1,15-5.9A1.169,1.169,0,0,0,142.984-316.121Z" transform="translate(-118.624 674.267)"/><path class="e" d="M148.254-318.61a19.172,19.172,0,0,0-18.084-2.1c-.94.362-.569,1.865.425,1.541,5.87-1.918,11.4-.787,16.436,2.646C148.334-315.629,149.492-317.706,148.254-318.61Z" transform="translate(-116.261 670.472)"/><path class="e" d="M488.3-446.095c-3.625-4.956-3.975-10.768-1.538-16.322.64-1.461-1.386-2.753-2.2-1.284-3.372,6.12-2.224,13.57,2.033,18.917C487.352-443.83,489.022-445.1,488.3-446.095Z" transform="translate(105.778 566.004)"/><path class="e" d="M494.477-464.692a1.177,1.177,0,0,0-1.952-1.137c-3.563,3.39-3.05,10.387-.792,14.307.484.839,1.935.285,1.6-.674a14.421,14.421,0,0,1-.893-6.635C492.709-461,493.832-462.672,494.477-464.692Z" transform="translate(110.403 564.875)"/><path class="e" d="M699.275-466.126a24.063,24.063,0,0,0-13.728-6.624c-1.505-.207-2.2,2.054-.645,2.336a24.689,24.689,0,0,1,12.418,6.242C698.635-462.984,700.55-464.865,699.275-466.126Z" transform="translate(232.49 560.71)"/><path class="e" d="M705.433-466.21a38.465,38.465,0,0,0-12.412-9.667,1.067,1.067,0,0,0-1.077,1.841,52.107,52.107,0,0,1,11.666,9.647C704.727-463.142,706.5-464.96,705.433-466.21Z" transform="translate(237.146 558.676)"/><path class="e" d="M689.715-331.1c-1.489,1.865-2.084,4.032-3.934,5.716-1.922,1.751-4.094,2.352-6.417,3.333-.8.336-.3,1.442.4,1.489,2.6.173,5.457-1.391,7.416-2.988,1.914-1.561,4.343-4.193,4.366-6.792C691.555-331.2,690.316-331.849,689.715-331.1Z" transform="translate(229.302 663.982)"/><path class="e" d="M697.174-327.942c-2.264,6.187-6.542,10.752-12.927,12.76a.971.971,0,0,0,.515,1.872c6.85-1.7,12.979-7.055,15.03-13.911C700.3-328.916,697.766-329.559,697.174-327.942Z" transform="translate(232.202 665.862)"/><path class="e" d="M806.919-417.912c-6.567-2.745-10.346-10-7.336-16.84.368-.839-.8-1.582-1.262-.738-3.941,7.178-.386,17.869,7.9,20.112C807.9-414.921,808.431-417.28,806.919-417.912Z" transform="translate(303.379 590.689)"/><path class="e" d="M811.449-421.01c-5.223-1.639-9.028-6.062-8.07-11.829.176-1.061-1.406-1.538-1.64-.453-1.3,6,2.6,13.559,9.075,14.583A1.2,1.2,0,0,0,811.449-421.01Z" transform="translate(306.383 592.018)"/><path class="e" d="M792.421-182.043c-7.109,3-10.09,12.977-8.238,19.909.248.92,1.851.771,1.722-.233a18.236,18.236,0,0,1,1.476-10.411c1.538-3.177,3.99-5.031,6.55-7.31C795.083-181.112,793.613-182.548,792.421-182.043Z" transform="translate(295.159 769.18)"/><path class="e" d="M803.354-181.027c-6.546,1.611-12.013,8.468-14.333,14.46-.4,1.021,1.29,1.732,1.774.748a26.954,26.954,0,0,1,5.534-7.766c2.411-2.3,5.2-3.488,7.964-5.213A1.225,1.225,0,0,0,803.354-181.027Z" transform="translate(298.503 769.779)"/><path class="e" d="M773.391-51.57c-8.39,1.652-15.113.358-21.251-5.941-.643-.66-1.859.217-1.308,1.01,4.871,7.013,15.507,10.753,23.506,7.176C775.678-49.925,774.672-51.823,773.391-51.57Z" transform="translate(274.429 857.559)"/><path class="e" d="M777.7-56.893c-6.756,1.284-12.975-.14-18.938-3.4a.928.928,0,0,0-.937,1.6c5.98,4.351,13.4,5.607,20.614,4.48C780.186-54.482,779.471-57.229,777.7-56.893Z" transform="translate(278.653 855.874)"/><path class="e" d="M627.685-37.36c-4.825-4.309-5.729-9.519-5.433-15.662a1.165,1.165,0,0,0-2.277-.31c-1.781,6.252,1.667,13.295,6.508,17.174C627.319-35.488,628.518-36.617,627.685-37.36Z" transform="translate(191.9 859.82)"/><path class="e" d="M627.322-56.263c.072,5.057-.036,10.156.267,15.2a1,1,0,0,0,1.992,0c.3-5.048.2-10.147.267-15.2A1.264,1.264,0,0,0,627.322-56.263Z" transform="translate(196.821 857.723)"/><path class="e" d="M461.394-109.527c-6.63,2.958-11.262,11.977-9.354,19.067a.863.863,0,0,0,1.688-.23c.407-7.383,2.8-12.387,8.932-16.67A1.255,1.255,0,0,0,461.394-109.527Z" transform="translate(86.285 824.899)"/><path class="e" d="M471.952-109.7a27.541,27.541,0,0,0-14.041,16.454c-.332,1.111,1.411,1.9,1.916.808a30.534,30.534,0,0,1,13.625-14.7C475.147-108.065,473.658-110.514,471.952-109.7Z" transform="translate(90.225 824.773)"/><path class="e" d="M262.1-109.411c-8.536-.207-15.709-3.069-20.407-10.54a1.126,1.126,0,0,0-1.943,1.135c4.278,7.826,13.64,13.445,22.7,11.952C263.934-107.107,263.516-109.377,262.1-109.411Z" transform="translate(-47.08 818.089)"/><path class="e" d="M262.774-115.531a82,82,0,0,1-17.141-6.388.946.946,0,0,0-.953,1.632,43.909,43.909,0,0,0,17.4,7.257C263.695-112.768,264.423-115.094,262.774-115.531Z" transform="translate(-44.161 817.111)"/><path class="e" d="M336.12-28.442c-4.412-4.227-6.322-8.922-7.337-14.836-.2-1.186-2.056-.875-2.057.279-.011,6.008,3.462,12.169,8.095,15.857C335.722-26.425,336.995-27.6,336.12-28.442Z" transform="translate(7.726 866.186)"/><path class="e" d="M338.119-32.214c-3.432-4.167-4.363-9.168-3.509-14.411.236-1.451-1.867-2.108-2.253-.621a17.923,17.923,0,0,0,4.415,16.38C337.605-29.944,338.888-31.283,338.119-32.214Z" transform="translate(10.944 863.633)"/><path class="e" d="M589.773-365.387c-5.834,3.015-8.344,10.465-6.593,16.571a.971.971,0,0,0,1.872-.516c-1.284-5.738,1.271-10.721,5.943-13.963A1.212,1.212,0,0,0,589.773-365.387Z" transform="translate(168.709 640.109)"/><path class="e" d="M602-363.455c-5.4,1.929-10.335,6.62-13.81,11.04-.871,1.109.595,2.691,1.592,1.592a44.771,44.771,0,0,1,6.358-5.9c2.189-1.631,4.643-2.765,6.9-4.265C604.241-361.789,603.521-364,602-363.455Z" transform="translate(172.039 641.453)"/><path class="c" d="M247.856-489.589c-12.971,0-12.992,20.16,0,20.16C260.829-469.429,260.85-489.589,247.856-489.589Z" transform="translate(-48.012 550.126)"/><path class="e" d="M324.1-382.706c-6.927,0-6.938,10.768,0,10.768S331.045-382.706,324.1-382.706Z" transform="translate(2.807 627.952)"/><path class="h" d="M639.61-468.987c-7.518,0-7.531,11.684,0,11.684S647.14-468.987,639.61-468.987Z" transform="translate(201.001 563.086)"/><path class="d" d="M768.334-439.252a14.638,14.638,0,0,0-9.96-4.126,10.616,10.616,0,0,0-5.428,1.214,10.575,10.575,0,0,0-4.534,2.913,10.565,10.565,0,0,0-2.913,4.534,10.61,10.61,0,0,0-1.212,5.428c.163,3.643,1.359,7.42,4.125,9.96a14.642,14.642,0,0,0,9.962,4.126,10.612,10.612,0,0,0,5.426-1.214,10.565,10.565,0,0,0,4.534-2.913,10.536,10.536,0,0,0,2.913-4.534,10.6,10.6,0,0,0,1.214-5.426C772.3-432.935,771.1-436.713,768.334-439.252Z" transform="translate(270.395 585.456)"/><path class="c" d="M671.51-269.442a6.28,6.28,0,0,0-4.415-1.828,6.284,6.284,0,0,0-4.413,1.828c-.552.608-1.119,1.2-1.655,1.821a6.483,6.483,0,0,0-1.8,4.553,6.041,6.041,0,0,0,1.732,4.187,6.029,6.029,0,0,0,4.185,1.73,6.469,6.469,0,0,0,4.552-1.8c.618-.538,1.209-1.109,1.812-1.663A6.292,6.292,0,0,0,671.51-269.442Z" transform="translate(216.893 706.321)"/><path class="b" d="M849.02-229.69a10.615,10.615,0,0,0-1.693-5.3c-1.963-3.045-4.885-5.725-8.522-6.554s-7.794-.684-10.99,1.438a16.281,16.281,0,0,0-5.79,5.842,14.956,14.956,0,0,0-1.438,10.99,10.76,10.76,0,0,0,2.553,4.85,10.771,10.771,0,0,0,4,3.672c3.31,1.75,7.319,2.626,10.99,1.438a14.93,14.93,0,0,0,8.035-5.773c.015-.023.033-.042.047-.064a10.743,10.743,0,0,0,2.553-4.85A10.811,10.811,0,0,0,849.02-229.69Z" transform="translate(318.097 727.299)"/><path class="b" d="M431.55-68.462a10.271,10.271,0,0,0-1.189-.894,12.2,12.2,0,0,0-3.4-2.815,14.521,14.521,0,0,0-8.983-1.671,14.465,14.465,0,0,0-8.09,3.876,14.147,14.147,0,0,0-4.126,9.962A14.566,14.566,0,0,0,416.1-46.42a14.221,14.221,0,0,0,10.856-1.421,16.813,16.813,0,0,0,3.3-2.751,10.446,10.446,0,0,0,1.3-.956C437.439-55.271,437.439-64.739,431.55-68.462Z" transform="translate(57.439 847.346)"/><path class="d" d="M662.276-106.32c-7.517,0-7.53,11.682,0,11.682S669.807-106.32,662.276-106.32Z" transform="translate(215.26 827.001)"/><path class="g" d="M805.92-92.168a7.511,7.511,0,0,0-9.364-6.238,6.744,6.744,0,0,0-2.5,1.023,9.111,9.111,0,0,0-2.633,2.633,7.259,7.259,0,0,0-.87,4.675,7.46,7.46,0,0,0,5.254,6.1,6.806,6.806,0,0,0,2.747.31,8.3,8.3,0,0,0,5.3-2.2A7.22,7.22,0,0,0,805.92-92.168Z" transform="translate(299.457 831.841)"/><path class="g" d="M139.935-155l-.9-.7q-.907-.381-1.813-.766a7.3,7.3,0,0,0-4.946.383,7.543,7.543,0,0,0-4.669,6.941,7.918,7.918,0,0,0,3.762,6.559,7.5,7.5,0,0,0,4.843.9,7.323,7.323,0,0,0,4.035-1.784C144.03-146.047,143.924-152.62,139.935-155Z" transform="translate(-117.537 786.867)"/><path class="d" d="M438.414-264.222l-11.93-24.9c-1.212-2.528-5.109-.6-3.9,1.921l10.307,21.525a141.2,141.2,0,0,1-22.577-3.346,2.21,2.21,0,0,0-2.629,3.035q5.31,11.177,9.867,22.66a144.993,144.993,0,0,1-27.28-1.417c-1.675-.248-2.742,1.777-2.08,3.147q5.259,10.879,10.514,21.755a96.324,96.324,0,0,1-25.151-1.07c-1.435-.248-2.5,1.375-2.266,2.624a60.388,60.388,0,0,0,7.274,19.493q-10.322-.193-20.647-.383a2.179,2.179,0,0,0-2.046,3.094,94.4,94.4,0,0,0,13.357,23.677c1,1.311,3.367-.222,2.439-1.624a110.28,110.28,0,0,1-10.762-20.79l21.456.445c2.035.042,2.768-2.087,1.758-3.6a55.3,55.3,0,0,1-7.878-18.11,100.17,100.17,0,0,0,26.228.241,2.205,2.205,0,0,0,1.525-3.11q-5.066-10.478-10.133-20.956a145.227,145.227,0,0,0,26.736.824,2.22,2.22,0,0,0,2.077-3.142q-4.279-11.006-9.232-21.7a147.407,147.407,0,0,0,22.9,2.851A2.2,2.2,0,0,0,438.414-264.222Z" transform="translate(25.95 695.6)"/><path class="g" d="M342.054-257.385c-.122-.36-.244-.719-.368-1.078q-.545-.821-1.091-1.64a7.291,7.291,0,0,0-4.337-2.408,7.543,7.543,0,0,0-7.722,3.216,7.923,7.923,0,0,0-.479,7.546,7.514,7.514,0,0,0,3.543,3.423,7.321,7.321,0,0,0,4.35.736C340.536-247.661,344.073-253.2,342.054-257.385Z" transform="translate(8.098 712.418)"/><path class="h" d="M272.113-246.01c-13.855,0-13.878,21.533,0,21.533C285.97-224.477,285.993-246.01,272.113-246.01Z" transform="translate(-33.17 724.276)"/><path class="d" d="M143.616-376.392a11.875,11.875,0,0,0-8.059-3.338,24.192,24.192,0,0,0-5.941.692,11.7,11.7,0,0,0-6.689,5.143,11.6,11.6,0,0,0-1.129,8.624,11.192,11.192,0,0,0,2.879,4.938,11.167,11.167,0,0,0,4.939,2.879,21.584,21.584,0,0,0,4.309.614c.544-.015,1.088-.062,1.632-.1a12.09,12.09,0,0,0,8.059-3.338,8.551,8.551,0,0,0,2.356-3.669,8.589,8.589,0,0,0,.982-4.39A11.52,11.52,0,0,0,143.616-376.392Z" transform="translate(-121.422 630.21)"/><path class="d" d="M490.115-370.8a11.874,11.874,0,0,0-8.059-3.34,24.278,24.278,0,0,0-5.941.694,11.7,11.7,0,0,0-6.689,5.143,11.6,11.6,0,0,0-1.127,8.624,11.173,11.173,0,0,0,2.877,4.938,11.174,11.174,0,0,0,4.939,2.879,21.593,21.593,0,0,0,4.309.613c.544-.015,1.088-.06,1.632-.094a12.086,12.086,0,0,0,8.059-3.338,8.55,8.55,0,0,0,2.356-3.669,8.588,8.588,0,0,0,.982-4.39A11.513,11.513,0,0,0,490.115-370.8Z" transform="translate(96.549 634.146)"/></g><g transform="translate(1224.217 1422.388)"><path class="b" d="M407.435-451.992a172.155,172.155,0,0,1-12.218,22.031,156.1,156.1,0,0,1-9.608-22.155c-.481-1.4-2.543-2.343-3.657-.966a222.92,222.92,0,0,0-16.107,22.693,71.638,71.638,0,0,1-11.9-20.728c-.6-1.611-3.02-2.294-3.945-.515-4.979,9.579-11.052,18.084-17.552,26.635q-6.61-12.516-13.231-25.026a2.177,2.177,0,0,0-3.719,0,187.42,187.42,0,0,1-17.038,21.934,152.313,152.313,0,0,1-10.53-21.03c-.6-1.487-2.8-2.168-3.7-.484-3.841,7.214-8.719,15.954-8.875,24.28a1.031,1.031,0,0,0,1.9.517c3.657-5.782,5.746-12.573,8.6-18.909a158.416,158.416,0,0,0,10.462,20.191,2.109,2.109,0,0,0,3.276.422,194.048,194.048,0,0,0,17.5-21.712q5.833,11.082,11.689,22.15a1.963,1.963,0,0,0,2.988.657,1.632,1.632,0,0,0,2.25.093,101.936,101.936,0,0,0,17.576-23.6,77.915,77.915,0,0,0,12.972,20.347,2.2,2.2,0,0,0,3.419-.441,218.25,218.25,0,0,1,14.813-21.5,162.591,162.591,0,0,0,10.33,22.54,2.207,2.207,0,0,0,3.766,0A172.33,172.33,0,0,0,411.19-449.8C412.352-452.321,408.608-454.533,407.435-451.992Z" transform="translate(-24.593 572.667)"/><path class="c" d="M699.252-425.065A193.167,193.167,0,0,1,676.935-437.8c-2.333-1.52-4.381,2.129-2.16,3.695a147.093,147.093,0,0,0,18.773,11.087,116.364,116.364,0,0,1-19.7,9.08,2.214,2.214,0,0,0-.521,3.994l18.05,10.591c-6.277,3.149-12.58,6.324-18.6,9.911a1.438,1.438,0,0,0-.681,1.087,2.044,2.044,0,0,0-.287,3.638c6.244,3.923,12.645,7.588,18.925,11.456a56.315,56.315,0,0,1-22.289,6.936c-2.025.2-3.154,2.942-1.106,4.082a131.41,131.41,0,0,1,23.289,16.488l-22.225,6.875c-1.647.51-2.251,3.073-.513,3.926,8.189,4.022,16.351,8.132,24.729,11.749,1.728.746,3.239-1.595,1.518-2.6-6.379-3.713-12.936-7.114-19.5-10.5l20.863-6.4a2.2,2.2,0,0,0,.964-3.649,134.742,134.742,0,0,0-21.6-16.548,60.891,60.891,0,0,0,21.209-8.437,2.218,2.218,0,0,0,0-3.784c-6.666-4.229-13.384-8.5-20.375-12.192,7.212-3.048,14.246-6.583,21.259-10.046a2.169,2.169,0,0,0,0-3.716l-17.506-10.336a119.91,119.91,0,0,0,19.793-9.877C700.547-422.089,700.8-424.326,699.252-425.065Z" transform="translate(221.318 589.974)"/><path class="c" d="M197.931-201.137l-23.683-14.192c-2.406-1.442-4.594,2.315-2.194,3.753q10.234,6.133,20.468,12.27a141.166,141.166,0,0,1-20.678,9.66,2.209,2.209,0,0,0-.521,3.981q10.593,6.395,20.728,13.461a145.079,145.079,0,0,1-23.538,13.862c-1.535.717-1.308,2.994,0,3.773l20.767,12.35a96.358,96.358,0,0,1-21.572,12.977c-1.334.585-1.329,2.527-.443,3.439a60.412,60.412,0,0,0,16.817,12.249q-8.716,5.535-17.434,11.066a2.179,2.179,0,0,0,0,3.709,94.393,94.393,0,0,0,24.2,12.387c1.559.541,2.686-2.043,1.139-2.7A110.1,110.1,0,0,1,171.541-100.5l18.143-11.46c1.72-1.088,1.158-3.266-.52-3.975A55.3,55.3,0,0,1,172.605-126.7a100.074,100.074,0,0,0,22.014-14.262,2.2,2.2,0,0,0-.443-3.434l-20.01-11.9a145.05,145.05,0,0,0,22.758-14.056,2.221,2.221,0,0,0,0-3.768q-9.638-6.82-19.671-13.013a147.293,147.293,0,0,0,20.678-10.252A2.2,2.2,0,0,0,197.931-201.137Z" transform="translate(-93.625 749.343)"/><path class="b" d="M655.266-100.888q-6.774,11.971-13.547,23.944l-13.285-16c-1.911-2.3-4.485-7.191-8.251-6.682-3.31.446-5.244,5.654-6.663,7.9q-5.735,9.09-11.472,18.177A129.352,129.352,0,0,0,581.609-97.4a2.214,2.214,0,0,0-3.439.443q-6.5,12.726-12.993,25.453-9.019-10.407-18.039-20.818a2.167,2.167,0,0,0-3.372.435c-5.518,8.97-11.06,17.918-16.369,27.012-.959,1.645,1.466,3,2.522,1.474,5.438-7.87,10.682-15.862,15.934-23.856q9.129,10.566,18.259,21.131a2.182,2.182,0,0,0,3.406-.438q6.578-12.846,13.16-25.692A125.241,125.241,0,0,1,600.192-68.4a2.211,2.211,0,0,0,3.774,0l8.328-13.2c1.354-2.145,6.809-13.112,8.794-13.013,2.18.109,7.555,8.719,9,10.462l10.433,12.555a2.192,2.192,0,0,0,3.419-.44q7.539-13.332,15.075-26.661C660.4-101.134,656.644-103.327,655.266-100.888Z" transform="translate(133.824 829.749)"/><path class="d" d="M808.77-231.633c-4.314,5.071-8.654,10.074-13.23,14.9L778.846-234a2.223,2.223,0,0,0-3.093,0,170.787,170.787,0,0,0-15.817,17.255q-5.112-5.564-10.221-11.126c-1.805-1.963-4.4-6-7.477-6.135-3.193-.135-4.868,3.064-6.554,5.14-3.155,3.887-6.159,7.914-9.191,11.907-3.805-5.172-7.6-10.356-11.477-15.476-.873-1.153-2.735-1.486-3.541,0-3.31,6.109-6.549,12.207-9.607,18.444a1.358,1.358,0,0,0,2.343,1.37c3.188-4.961,6.213-9.989,9.208-15.059,3.7,5.141,7.459,10.242,11.2,15.356.714.976,2.435,1.631,3.364.433q3.656-4.7,7.31-9.406,1.828-2.351,3.652-4.7,1.058-3.687,3.766-1.645c5.273.873,12.208,11.887,15.782,15.779a2.189,2.189,0,0,0,3.089,0,170.927,170.927,0,0,1,15.683-17.48q8.374,8.665,16.75,17.328a2.215,2.215,0,0,0,3.1,0,205.036,205.036,0,0,0,14.678-16.6C813.427-230.73,810.578-233.755,808.77-231.633Z" transform="translate(243.614 732.339)"/><path class="b" d="M274.476-346.058a1.852,1.852,0,0,0-2.357-1.756,1.756,1.756,0,0,0-1.779-1.72c-12.648.5-25.412,2.774-37.972,4.323-11.746,1.447-23.525,2.761-35.22,4.576a1.272,1.272,0,0,0-1.078,1.121c-.749.4-1.049,1.655-.111,2.079,23.719,10.706,48.955,20.663,73.942,27.96a1.679,1.679,0,0,0,2.258-1.435,1.574,1.574,0,0,0,2.025-1.479C274.791-323.515,274.944-334.925,274.476-346.058Zm-72.671,8.08c11.26-1.005,22.5-2.369,33.727-3.634,11.658-1.315,23.623-2.028,35.142-4.283-.45,10.845-.308,21.945.266,32.793l-.034-.018C248.432-322.313,224.966-330.435,201.805-337.978Z" transform="translate(-74.903 651.758)"/><path class="c" d="M624.251-421.721l-.137,0a2.217,2.217,0,0,0,.057-1.065C617.746-457,610.533-491.061,604.2-525.3c-.323-1.748-2.9-1.932-3.711-.485C581.41-491.7,561.716-457.86,543.919-423.09a1.05,1.05,0,0,0,.007,1.02c-1.707.018-1.609,2.4,0,2.6,26.492,3.144,53.7,2.486,80.321,1.688C626.778-417.862,626.788-421.8,624.251-421.721Zm-78.378-.35c19.41-31.676,37.211-64.376,55.385-96.781,5.91,32.448,11.726,64.993,18.837,97.193l.008.026C595.334-421.07,570.632-422.181,545.874-422.072Z" transform="translate(143.577 526.749)"/><path class="b" d="M830.365-372.737c-11.008-6.958-26.058-14-39.153-15.007a.684.684,0,0,0-.608.277.743.743,0,0,0-.917.38c-11.407,23.263-20.966,47.42-32.368,70.71-.777,1.587,1,4.084,2.738,2.74,23.108-17.833,46.6-35.307,69.231-53.744a1.721,1.721,0,0,0,.375-2.206A1.7,1.7,0,0,0,830.365-372.737Zm-65.8,50.519c9.954-20.71,19.81-41.937,26.569-63.822,5.278,2.738,11.1,4.4,16.6,6.642,6.546,2.663,12.767,5.881,19.145,8.862l-.018.01C805.752-354.92,785.219-338.445,764.564-322.218Z" transform="translate(278.48 625.304)"/><path class="c" d="M420.235-68.44c-12.765-18.5-26.378-36.957-41.714-53.424l-.008-.008a1.418,1.418,0,0,0-1.846-.692,134.714,134.714,0,0,0-37.581,23.418,1.17,1.17,0,0,0-.249,1.461,1.3,1.3,0,0,0,.038,2.458,714.8,714.8,0,0,1,78.607,29.54C419.121-64.949,421.5-66.606,420.235-68.44ZM341.1-97.283c11.633-7.223,23.307-14.129,35.106-21.036,12.472,15.222,24.908,30.3,36.463,46.21A543.352,543.352,0,0,0,341.1-97.283Z" transform="translate(14.804 816.706)"/><path class="d" d="M789.822-113.234q-24.883,8.538-49.761,17.1c-15.328,5.285-31.71,9.642-46.334,16.688-.852-.774-2.292.471-1.681,1.525,7.186,12.363,14.421,24.581,20.986,37.294,1.108,2.145,4.258.261,3.221-1.882A208.957,208.957,0,0,0,694.9-77.955c16.112-3.441,32.008-10.081,47.6-15.312q21.675-7.27,43.336-14.575c-4.019,5.451-9.574,9.971-14.334,14.619q-9.291,9.071-18.575,18.148L734.356-56.925c-5.443,5.317-11.273,13.231-18.169,16.548-1.893.911-.554,3.893,1.409,3.344,6.12-1.712,10.569-8.233,14.952-12.521L754.59-71.119q10.441-10.214,20.883-20.43c5.94-5.814,12.775-11.3,16.52-18.86C792.681-111.8,791.525-113.819,789.822-113.234Z" transform="translate(237.445 822.587)"/><path class="d" d="M272.975-76.03c-25.733,3.537-51.477,7.01-77.2,10.643-1.74.246-2.141,3.2-.508,3.9,22.758,9.625,46.015,18.76,69.9,25.223a2.041,2.041,0,0,0,3.607-.5c4.436-11.746,6.137-24.684,6.961-37.157C275.84-75.5,274.267-76.207,272.975-76.03Zm-7.766,37.1c-20.4-7.637-40.842-14.956-60.94-23.343q33.455-4.494,66.888-9.136C270.179-60.295,267.742-49.789,265.209-38.933Z" transform="translate(-75.617 846.039)"/><path class="d" d="M546.329-242.13c-15.095-21.139-30.136-42.317-45.311-63.4-1.026-1.427-3.832-.406-3.683,1.36,2.059,24.623,4.781,49.462,10.162,73.614a2.041,2.041,0,0,0,2.119,2.96c12.461-1.531,24.708-6.042,36.134-11.112C547.193-239.346,547.087-241.069,546.329-242.13Zm-36.454,10.369c-2.722-21.611-5.746-43.113-7.663-64.806q19.532,27.529,39.184,54.973C531.1-237.29,520.663-234.564,509.876-231.761Z" transform="translate(115.048 683.219)"/><path class="d" d="M145.363-291.021c-3.323-.34-6.645-.7-9.973-1-1.862-.169-3.858-.521-5.451.7-1.769,1.359-2.207,3.978-2.769,5.97a51.341,51.341,0,0,0-1.857,8.582l0,.016a.836.836,0,0,0,.241,1.458c4.8,1.1,9.872,1.473,14.541,3.071a1.473,1.473,0,0,0,1.8-1.021,80.644,80.644,0,0,1,4.863-15.349A1.642,1.642,0,0,0,145.363-291.021ZM139.29-275.13a103.212,103.212,0,0,1-10.894-1.409c.756-2.807,1.447-11.462,4.583-12.36,1.394-.4,3.815.336,5.26.469,1.61.15,3.221.29,4.83.432A64.426,64.426,0,0,0,139.29-275.13Z" transform="translate(-119.178 691.743)"/><path class="e" d="M475.208-465.26l-11.785-7.908c-2.031-1.364-4.928-4.174-7.71-3.838-2.585.313-4.195,3.076-5.663,4.846-2.683,3.234-5.438,6.417-7.94,9.794a1.372,1.372,0,0,0-.068,1.579,1.214,1.214,0,0,0-.4,2.152c5.643,4.2,11.583,8.039,17.038,12.48a1.776,1.776,0,0,0,2.73-.352,85.225,85.225,0,0,1,14.161-15.937A1.814,1.814,0,0,0,475.208-465.26Zm-15.761,15.553c-5.281-3.185-10.322-6.775-15.486-10.151a1.439,1.439,0,0,0,.834-.435c2.8-3.025,8.316-13.05,12.868-12.374,2.24.332,5.949,3.972,7.867,5.252l5.907,3.942A86.456,86.456,0,0,0,459.447-449.707Z" transform="translate(79.703 558.024)"/><path class="f" d="M491.231-203.88l-11.785-7.909c-2.031-1.363-4.93-4.172-7.712-3.836-2.585.311-4.193,3.076-5.663,4.845-2.683,3.234-5.438,6.417-7.94,9.794a1.369,1.369,0,0,0-.067,1.579,1.213,1.213,0,0,0-.4,2.152c5.641,4.2,11.581,8.039,17.038,12.48a1.772,1.772,0,0,0,2.729-.352,85.229,85.229,0,0,1,14.163-15.937A1.812,1.812,0,0,0,491.231-203.88ZM475.47-188.327c-5.283-3.185-10.323-6.775-15.486-10.152a1.434,1.434,0,0,0,.834-.435c2.8-3.024,8.315-13.05,12.866-12.374,2.24.332,5.951,3.972,7.868,5.252l5.905,3.942A86.384,86.384,0,0,0,475.47-188.327Z" transform="translate(89.781 745.93)"/><path class="f" d="M194.864-451.888c-3.178-3.261-8.341-11.125-13.309-11.42-2.717-.16-5.43,2.233-7.575,3.532l-11.407,6.9a1.79,1.79,0,0,0-.358,2.773,115.553,115.553,0,0,0,13.9,13.111,1.783,1.783,0,0,0,1.693.3,1.02,1.02,0,0,0,1.3-.194,82.892,82.892,0,0,1,15.429-12.387A1.689,1.689,0,0,0,194.864-451.888Zm-16.483,12.35a162.012,162.012,0,0,1-12.166-11.477c3.947-2.613,8.175-5.91,12.389-7.455,4.851-1.777,9.072,3.768,12.532,7.531A73.141,73.141,0,0,0,178.381-439.538Z" transform="translate(-96.075 566.653)"/><path class="c" d="M793-467.269c-3.273-2.437-6.519-4.908-9.817-7.31-1.356-.989-2.808-2.457-4.646-2.281-1.908.181-3.242,1.957-4.467,3.177q-4.44,4.421-8.779,8.947a1.515,1.515,0,0,0-.223.349,1.082,1.082,0,0,0-1.041,1.566,54.536,54.536,0,0,0,13.239,13.956,1.553,1.553,0,0,0,2.152,0c4.724-5.21,9.282-10.579,13.906-15.88A1.641,1.641,0,0,0,793-467.269Zm-14.93,15.31a53.008,53.008,0,0,1-10.894-10.229,1.651,1.651,0,0,0,.4-.264c1.979-1.96,3.927-3.949,5.882-5.933,1.455-1.477,3.307-4.381,5.418-4.524,2.082-.142,4.3,2.361,5.94,3.571l5.027,3.711C785.9-461.087,781.933-456.566,778.07-451.959Z" transform="translate(282.727 558.125)"/><path class="c" d="M818.582-295.159c-2.339-2.374-6.243-8.362-10.322-7.82-2.276.3-4.425,2.836-6.047,4.187-2.932,2.44-5.954,4.811-8.746,7.412a.966.966,0,0,0-1.256,1.329c2.7,5.36,6.3,9.884,9.941,14.606a1.593,1.593,0,0,0,2.706,0,25.444,25.444,0,0,1,8.869-8.411c2.069-1.15,4.6-1.66,6.342-3.338C823.147-290.164,821.014-292.693,818.582-295.159Zm-9.607,10.516a27.041,27.041,0,0,0-5.728,6.01,60.273,60.273,0,0,1-8.059-10.325c3.2-2.38,6.057-5.255,9.325-7.533a6.559,6.559,0,0,1,6.026-2.093l2.144,2.157c.922.927,4.887,3.838,5,5.032C817.976-288.368,810.885-286.088,808.975-284.643Z" transform="translate(300.473 684.315)"/><path class="b" d="M656.825-311.352a1.681,1.681,0,0,0-1.657-1.657l-18.273-.059a1.684,1.684,0,0,0-1.658,1.658c-.041,6.085-.528,12.371.015,18.431a1.48,1.48,0,0,0,2.944.161.7.7,0,0,0,.556.645c5.267,1.034,11.071.481,16.426.544a1.5,1.5,0,0,0,1.458-1.456C657.242-299.08,656.828-305.322,656.825-311.352Zm-18.074,17.64a.687.687,0,0,0-.482.406c.538-5.4.29-10.983.282-16.439l14.948.047c-.049,5.031-.28,10.178.1,15.185C648.693-294.461,643.488-294.73,638.751-293.712Z" transform="translate(201.649 677.095)"/><path class="g" d="M674.364-141.143c-3.214-3.592-6.524-7.1-9.786-10.656a1.646,1.646,0,0,0-1.981-.256,61.97,61.97,0,0,0-14.3,13.661.976.976,0,0,0,.213,1.368,1.563,1.563,0,0,0-.134,2.289c3.99,4.6,8.572,8.755,12.888,13.057a1.736,1.736,0,0,0,2.417,0q4.831-4.758,9.664-9.514c1.4-1.383,3.947-3.136,3.9-5.459C677.216-138.505,675.48-139.9,674.364-141.143Zm-6.384,10.486q-2.742,2.676-5.48,5.351c-3.881-3.959-7.688-8.065-11.865-11.69a1.774,1.774,0,0,0-.353-.21,79.264,79.264,0,0,1,12.907-11.27l4.646,5.1c1.408,1.544,5.589,4.939,5.469,6.863S669.348-132,667.979-130.656Z" transform="translate(209.791 790.57)"/><path class="b" d="M377.085-52.852a94.874,94.874,0,0,0-16.211-9.115,1.775,1.775,0,0,0-2.321.609,66.7,66.7,0,0,0-8.914,15.067c-.595,1.429,1.307,2.489,2.439,1.854a105.143,105.143,0,0,0,17.99,9.468,1.569,1.569,0,0,0,2.317-1.329,31.332,31.332,0,0,1,5.3-14.261A1.71,1.71,0,0,0,377.085-52.852Zm-7.606,14.5a79.93,79.93,0,0,1-16.292-7.712,86.15,86.15,0,0,1,7.386-12.316,94.582,94.582,0,0,1,13.371,7.464A30.718,30.718,0,0,0,369.479-38.35Z" transform="translate(22.07 854.776)"/><path class="e" d="M144.433-52.951c-5.057-5.22-8.07-11.118-11.781-17.226-.582-.955-2.216-.344-1.854.782,2.157,6.705,7.417,12.85,12.409,17.67A.868.868,0,0,0,144.433-52.951Z" transform="translate(-115.557 849.441)"/><path class="e" d="M142.789-60.06a46.613,46.613,0,0,1-3.825-6.3,67.9,67.9,0,0,1-2.517-7.557c-.432-1.3-2.664-1.181-2.53.342.459,5.3,3.53,11.035,7.2,14.811C141.94-57.919,143.477-59.038,142.789-60.06Z" transform="translate(-113.566 846.819)"/><path class="e" d="M294.7-324.63c-1.97,5.946-5.045,10.42-11.166,12.65a.791.791,0,0,0,.42,1.523c6.142-1.683,12.035-7.349,12.7-13.907C296.774-325.531,295.034-325.644,294.7-324.63Z" transform="translate(-19.788 668.347)"/><path class="e" d="M301.947-324.568a19.11,19.11,0,0,1-11.273,14.808c-1.041.484-.306,2.2.78,1.852A19.644,19.644,0,0,0,304.646-324.2C304.819-325.728,302.2-326.095,301.947-324.568Z" transform="translate(-15.268 668.241)"/><path class="e" d="M180.818-410.767c-8.176.178-15.206-2.418-19.384-9.9-.518-.929-1.854-.112-1.409.824,3.548,7.468,12.666,13.119,21.061,11.05A1.01,1.01,0,0,0,180.818-410.767Z" transform="translate(-97.195 601.013)"/><path class="e" d="M184.816-412.536a69.973,69.973,0,0,1-16.367-9.134c-.953-.749-2.321.556-1.36,1.36a53.979,53.979,0,0,0,16.807,9.957C185.156-409.923,186.069-412,184.816-412.536Z" transform="translate(-92.901 600.427)"/><path class="e" d="M142.984-316.121a14.5,14.5,0,0,0-17.019,7.334.808.808,0,0,0,1.395.815,13.347,13.347,0,0,1,15-5.9A1.169,1.169,0,0,0,142.984-316.121Z" transform="translate(-118.624 674.267)"/><path class="e" d="M148.254-318.61a19.172,19.172,0,0,0-18.084-2.1c-.94.362-.569,1.865.425,1.541,5.87-1.918,11.4-.787,16.436,2.646C148.334-315.629,149.492-317.706,148.254-318.61Z" transform="translate(-116.261 670.472)"/><path class="e" d="M488.3-446.095c-3.625-4.956-3.975-10.768-1.538-16.322.64-1.461-1.386-2.753-2.2-1.284-3.372,6.12-2.224,13.57,2.033,18.917C487.352-443.83,489.022-445.1,488.3-446.095Z" transform="translate(105.778 566.004)"/><path class="e" d="M494.477-464.692a1.177,1.177,0,0,0-1.952-1.137c-3.563,3.39-3.05,10.387-.792,14.307.484.839,1.935.285,1.6-.674a14.421,14.421,0,0,1-.893-6.635C492.709-461,493.832-462.672,494.477-464.692Z" transform="translate(110.403 564.875)"/><path class="e" d="M699.275-466.126a24.063,24.063,0,0,0-13.728-6.624c-1.505-.207-2.2,2.054-.645,2.336a24.689,24.689,0,0,1,12.418,6.242C698.635-462.984,700.55-464.865,699.275-466.126Z" transform="translate(232.49 560.71)"/><path class="e" d="M705.433-466.21a38.465,38.465,0,0,0-12.412-9.667,1.067,1.067,0,0,0-1.077,1.841,52.107,52.107,0,0,1,11.666,9.647C704.727-463.142,706.5-464.96,705.433-466.21Z" transform="translate(237.146 558.676)"/><path class="e" d="M689.715-331.1c-1.489,1.865-2.084,4.032-3.934,5.716-1.922,1.751-4.094,2.352-6.417,3.333-.8.336-.3,1.442.4,1.489,2.6.173,5.457-1.391,7.416-2.988,1.914-1.561,4.343-4.193,4.366-6.792C691.555-331.2,690.316-331.849,689.715-331.1Z" transform="translate(229.302 663.982)"/><path class="e" d="M697.174-327.942c-2.264,6.187-6.542,10.752-12.927,12.76a.971.971,0,0,0,.515,1.872c6.85-1.7,12.979-7.055,15.03-13.911C700.3-328.916,697.766-329.559,697.174-327.942Z" transform="translate(232.202 665.862)"/><path class="e" d="M806.919-417.912c-6.567-2.745-10.346-10-7.336-16.84.368-.839-.8-1.582-1.262-.738-3.941,7.178-.386,17.869,7.9,20.112C807.9-414.921,808.431-417.28,806.919-417.912Z" transform="translate(303.379 590.689)"/><path class="e" d="M811.449-421.01c-5.223-1.639-9.028-6.062-8.07-11.829.176-1.061-1.406-1.538-1.64-.453-1.3,6,2.6,13.559,9.075,14.583A1.2,1.2,0,0,0,811.449-421.01Z" transform="translate(306.383 592.018)"/><path class="e" d="M792.421-182.043c-7.109,3-10.09,12.977-8.238,19.909.248.92,1.851.771,1.722-.233a18.236,18.236,0,0,1,1.476-10.411c1.538-3.177,3.99-5.031,6.55-7.31C795.083-181.112,793.613-182.548,792.421-182.043Z" transform="translate(295.159 769.18)"/><path class="e" d="M803.354-181.027c-6.546,1.611-12.013,8.468-14.333,14.46-.4,1.021,1.29,1.732,1.774.748a26.954,26.954,0,0,1,5.534-7.766c2.411-2.3,5.2-3.488,7.964-5.213A1.225,1.225,0,0,0,803.354-181.027Z" transform="translate(298.503 769.779)"/><path class="e" d="M773.391-51.57c-8.39,1.652-15.113.358-21.251-5.941-.643-.66-1.859.217-1.308,1.01,4.871,7.013,15.507,10.753,23.506,7.176C775.678-49.925,774.672-51.823,773.391-51.57Z" transform="translate(274.429 857.559)"/><path class="e" d="M777.7-56.893c-6.756,1.284-12.975-.14-18.938-3.4a.928.928,0,0,0-.937,1.6c5.98,4.351,13.4,5.607,20.614,4.48C780.186-54.482,779.471-57.229,777.7-56.893Z" transform="translate(278.653 855.874)"/><path class="e" d="M627.685-37.36c-4.825-4.309-5.729-9.519-5.433-15.662a1.165,1.165,0,0,0-2.277-.31c-1.781,6.252,1.667,13.295,6.508,17.174C627.319-35.488,628.518-36.617,627.685-37.36Z" transform="translate(191.9 859.82)"/><path class="e" d="M627.322-56.263c.072,5.057-.036,10.156.267,15.2a1,1,0,0,0,1.992,0c.3-5.048.2-10.147.267-15.2A1.264,1.264,0,0,0,627.322-56.263Z" transform="translate(196.821 857.723)"/><path class="e" d="M461.394-109.527c-6.63,2.958-11.262,11.977-9.354,19.067a.863.863,0,0,0,1.688-.23c.407-7.383,2.8-12.387,8.932-16.67A1.255,1.255,0,0,0,461.394-109.527Z" transform="translate(86.285 824.899)"/><path class="e" d="M471.952-109.7a27.541,27.541,0,0,0-14.041,16.454c-.332,1.111,1.411,1.9,1.916.808a30.534,30.534,0,0,1,13.625-14.7C475.147-108.065,473.658-110.514,471.952-109.7Z" transform="translate(90.225 824.773)"/><path class="e" d="M262.1-109.411c-8.536-.207-15.709-3.069-20.407-10.54a1.126,1.126,0,0,0-1.943,1.135c4.278,7.826,13.64,13.445,22.7,11.952C263.934-107.107,263.516-109.377,262.1-109.411Z" transform="translate(-47.08 818.089)"/><path class="e" d="M262.774-115.531a82,82,0,0,1-17.141-6.388.946.946,0,0,0-.953,1.632,43.909,43.909,0,0,0,17.4,7.257C263.695-112.768,264.423-115.094,262.774-115.531Z" transform="translate(-44.161 817.111)"/><path class="e" d="M336.12-28.442c-4.412-4.227-6.322-8.922-7.337-14.836-.2-1.186-2.056-.875-2.057.279-.011,6.008,3.462,12.169,8.095,15.857C335.722-26.425,336.995-27.6,336.12-28.442Z" transform="translate(7.726 866.186)"/><path class="e" d="M338.119-32.214c-3.432-4.167-4.363-9.168-3.509-14.411.236-1.451-1.867-2.108-2.253-.621a17.923,17.923,0,0,0,4.415,16.38C337.605-29.944,338.888-31.283,338.119-32.214Z" transform="translate(10.944 863.633)"/><path class="e" d="M589.773-365.387c-5.834,3.015-8.344,10.465-6.593,16.571a.971.971,0,0,0,1.872-.516c-1.284-5.738,1.271-10.721,5.943-13.963A1.212,1.212,0,0,0,589.773-365.387Z" transform="translate(168.709 640.109)"/><path class="e" d="M602-363.455c-5.4,1.929-10.335,6.62-13.81,11.04-.871,1.109.595,2.691,1.592,1.592a44.771,44.771,0,0,1,6.358-5.9c2.189-1.631,4.643-2.765,6.9-4.265C604.241-361.789,603.521-364,602-363.455Z" transform="translate(172.039 641.453)"/><path class="c" d="M247.856-489.589c-12.971,0-12.992,20.16,0,20.16C260.829-469.429,260.85-489.589,247.856-489.589Z" transform="translate(-48.012 550.126)"/><path class="e" d="M324.1-382.706c-6.927,0-6.938,10.768,0,10.768S331.045-382.706,324.1-382.706Z" transform="translate(2.807 627.952)"/><path class="h" d="M639.61-468.987c-7.518,0-7.531,11.684,0,11.684S647.14-468.987,639.61-468.987Z" transform="translate(201.001 563.086)"/><path class="d" d="M768.334-439.252a14.638,14.638,0,0,0-9.96-4.126,10.616,10.616,0,0,0-5.428,1.214,10.575,10.575,0,0,0-4.534,2.913,10.565,10.565,0,0,0-2.913,4.534,10.61,10.61,0,0,0-1.212,5.428c.163,3.643,1.359,7.42,4.125,9.96a14.642,14.642,0,0,0,9.962,4.126,10.612,10.612,0,0,0,5.426-1.214,10.565,10.565,0,0,0,4.534-2.913,10.536,10.536,0,0,0,2.913-4.534,10.6,10.6,0,0,0,1.214-5.426C772.3-432.935,771.1-436.713,768.334-439.252Z" transform="translate(270.395 585.456)"/><path class="c" d="M671.51-269.442a6.28,6.28,0,0,0-4.415-1.828,6.284,6.284,0,0,0-4.413,1.828c-.552.608-1.119,1.2-1.655,1.821a6.483,6.483,0,0,0-1.8,4.553,6.041,6.041,0,0,0,1.732,4.187,6.029,6.029,0,0,0,4.185,1.73,6.469,6.469,0,0,0,4.552-1.8c.618-.538,1.209-1.109,1.812-1.663A6.292,6.292,0,0,0,671.51-269.442Z" transform="translate(216.893 706.321)"/><path class="b" d="M849.02-229.69a10.615,10.615,0,0,0-1.693-5.3c-1.963-3.045-4.885-5.725-8.522-6.554s-7.794-.684-10.99,1.438a16.281,16.281,0,0,0-5.79,5.842,14.956,14.956,0,0,0-1.438,10.99,10.76,10.76,0,0,0,2.553,4.85,10.771,10.771,0,0,0,4,3.672c3.31,1.75,7.319,2.626,10.99,1.438a14.93,14.93,0,0,0,8.035-5.773c.015-.023.033-.042.047-.064a10.743,10.743,0,0,0,2.553-4.85A10.811,10.811,0,0,0,849.02-229.69Z" transform="translate(318.097 727.299)"/><path class="b" d="M431.55-68.462a10.271,10.271,0,0,0-1.189-.894,12.2,12.2,0,0,0-3.4-2.815,14.521,14.521,0,0,0-8.983-1.671,14.465,14.465,0,0,0-8.09,3.876,14.147,14.147,0,0,0-4.126,9.962A14.566,14.566,0,0,0,416.1-46.42a14.221,14.221,0,0,0,10.856-1.421,16.813,16.813,0,0,0,3.3-2.751,10.446,10.446,0,0,0,1.3-.956C437.439-55.271,437.439-64.739,431.55-68.462Z" transform="translate(57.439 847.346)"/><path class="d" d="M662.276-106.32c-7.517,0-7.53,11.682,0,11.682S669.807-106.32,662.276-106.32Z" transform="translate(215.26 827.001)"/><path class="g" d="M805.92-92.168a7.511,7.511,0,0,0-9.364-6.238,6.744,6.744,0,0,0-2.5,1.023,9.111,9.111,0,0,0-2.633,2.633,7.259,7.259,0,0,0-.87,4.675,7.46,7.46,0,0,0,5.254,6.1,6.806,6.806,0,0,0,2.747.31,8.3,8.3,0,0,0,5.3-2.2A7.22,7.22,0,0,0,805.92-92.168Z" transform="translate(299.457 831.841)"/><path class="g" d="M139.935-155l-.9-.7q-.907-.381-1.813-.766a7.3,7.3,0,0,0-4.946.383,7.543,7.543,0,0,0-4.669,6.941,7.918,7.918,0,0,0,3.762,6.559,7.5,7.5,0,0,0,4.843.9,7.323,7.323,0,0,0,4.035-1.784C144.03-146.047,143.924-152.62,139.935-155Z" transform="translate(-117.537 786.867)"/><path class="d" d="M438.414-264.222l-11.93-24.9c-1.212-2.528-5.109-.6-3.9,1.921l10.307,21.525a141.2,141.2,0,0,1-22.577-3.346,2.21,2.21,0,0,0-2.629,3.035q5.31,11.177,9.867,22.66a144.993,144.993,0,0,1-27.28-1.417c-1.675-.248-2.742,1.777-2.08,3.147q5.259,10.879,10.514,21.755a96.324,96.324,0,0,1-25.151-1.07c-1.435-.248-2.5,1.375-2.266,2.624a60.388,60.388,0,0,0,7.274,19.493q-10.322-.193-20.647-.383a2.179,2.179,0,0,0-2.046,3.094,94.4,94.4,0,0,0,13.357,23.677c1,1.311,3.367-.222,2.439-1.624a110.28,110.28,0,0,1-10.762-20.79l21.456.445c2.035.042,2.768-2.087,1.758-3.6a55.3,55.3,0,0,1-7.878-18.11,100.17,100.17,0,0,0,26.228.241,2.205,2.205,0,0,0,1.525-3.11q-5.066-10.478-10.133-20.956a145.227,145.227,0,0,0,26.736.824,2.22,2.22,0,0,0,2.077-3.142q-4.279-11.006-9.232-21.7a147.407,147.407,0,0,0,22.9,2.851A2.2,2.2,0,0,0,438.414-264.222Z" transform="translate(25.95 695.6)"/><path class="g" d="M342.054-257.385c-.122-.36-.244-.719-.368-1.078q-.545-.821-1.091-1.64a7.291,7.291,0,0,0-4.337-2.408,7.543,7.543,0,0,0-7.722,3.216,7.923,7.923,0,0,0-.479,7.546,7.514,7.514,0,0,0,3.543,3.423,7.321,7.321,0,0,0,4.35.736C340.536-247.661,344.073-253.2,342.054-257.385Z" transform="translate(8.098 712.418)"/><path class="h" d="M272.113-246.01c-13.855,0-13.878,21.533,0,21.533C285.97-224.477,285.993-246.01,272.113-246.01Z" transform="translate(-33.17 724.276)"/><path class="d" d="M143.616-376.392a11.875,11.875,0,0,0-8.059-3.338,24.192,24.192,0,0,0-5.941.692,11.7,11.7,0,0,0-6.689,5.143,11.6,11.6,0,0,0-1.129,8.624,11.192,11.192,0,0,0,2.879,4.938,11.167,11.167,0,0,0,4.939,2.879,21.584,21.584,0,0,0,4.309.614c.544-.015,1.088-.062,1.632-.1a12.09,12.09,0,0,0,8.059-3.338,8.551,8.551,0,0,0,2.356-3.669,8.589,8.589,0,0,0,.982-4.39A11.52,11.52,0,0,0,143.616-376.392Z" transform="translate(-121.422 630.21)"/><path class="d" d="M490.115-370.8a11.874,11.874,0,0,0-8.059-3.34,24.278,24.278,0,0,0-5.941.694,11.7,11.7,0,0,0-6.689,5.143,11.6,11.6,0,0,0-1.127,8.624,11.173,11.173,0,0,0,2.877,4.938,11.174,11.174,0,0,0,4.939,2.879,21.593,21.593,0,0,0,4.309.613c.544-.015,1.088-.06,1.632-.094a12.086,12.086,0,0,0,8.059-3.338,8.55,8.55,0,0,0,2.356-3.669,8.588,8.588,0,0,0,.982-4.39A11.513,11.513,0,0,0,490.115-370.8Z" transform="translate(96.549 634.146)"/></g></g></svg>