<svg xmlns="http://www.w3.org/2000/svg" width="172.861" height="62.992" viewBox="0 0 172.861 62.992"><defs><style>.a{fill:#fff;}</style></defs><g transform="translate(-547.866 -49)"><path class="a" d="M582.39,67.478q3.6-1.561,3.479-2.933l-1.136-.712q-3.053,1.942-3.219,2.652l.048.8A1.961,1.961,0,0,1,582.39,67.478Z" transform="translate(-2.083 -0.918)"/><path class="a" d="M598.539,82.584a22.018,22.018,0,0,1,1.136-6.534q.9-3.643,2.556-3.9l1.514-.214,1.751-.473c.569-.083,1.062-.167,1.486-.257-.085.348-.169.683-.255,1.038q-.449,2.038-.734,3.409l-.02.038q-1.338,2.128-2.37,4.033l-2.2,3.009a4.192,4.192,0,0,1-.566.374Q598.682,84.573,598.539,82.584ZM594.1,78.891c-.719,1.061-1.266,1.847-1.661,2.39A9.644,9.644,0,0,1,590.3,83.1q-2.153,1.469-2.3-.52a22.039,22.039,0,0,1,1.135-6.534q.9-3.643,2.557-3.9l1.514-.214.422-.114a1.892,1.892,0,0,0,.784.376l1.278.163h1.326l.544.451A66.044,66.044,0,0,1,594.1,78.891ZM568.316,62.643a28.281,28.281,0,0,1,2.25-5.785,5.58,5.58,0,0,1,3.3-3.064q1.953-.536,2.071,2.189A11.5,11.5,0,0,1,573.83,62.3a19.5,19.5,0,0,1-4.9,4.876q-1.681.757-1.6-.261A30.344,30.344,0,0,1,568.316,62.643Zm41.217,8.344a79.509,79.509,0,0,1,2.011-7.788,33.76,33.76,0,0,1,3.93-9.372q2.116-3.1,3.183-1.917,1.088,1.186-.509,5.87a35.409,35.409,0,0,1-3.988,8.272,59.491,59.491,0,0,1-3.609,5.016Q609.332,72.5,609.533,70.987ZM620.16,74.24a7.136,7.136,0,0,1,2.993-2.591q1.586-.64,1.858.295t-1.089,2.546q-1.361,1.608-5.833,3.9A13.9,13.9,0,0,1,620.16,74.24ZM626.4,79.6l-1.846,2.083a8.239,8.239,0,0,1-3.172,2.5,2.9,2.9,0,0,1-2.367.129,2.023,2.023,0,0,1-1.053-1.23,5.1,5.1,0,0,1-.19-1.633,2.424,2.424,0,0,1,.757-1.6,13.564,13.564,0,0,1,3.326-2.012,13.14,13.14,0,0,0,3.929-2.7,4.991,4.991,0,0,0,1.444-3.052,2.256,2.256,0,0,0-1.148-2.331q-1.265-.709-3.632.508a11.743,11.743,0,0,0-4.154,3.718,19.736,19.736,0,0,0-2.6,4.781c-.072.2-.121.4-.181.6a21.951,21.951,0,0,1-3.76,4.217q-2.627,1.728-3.669-.144l-.213-1.774a15.791,15.791,0,0,1,.488-4.228l.033.014q.19-.663.4-1.4.26-.355.5-.685,4.639-6.106,5.444-7.361.875-1.372,2.047-3.55t2.095-4.141a22.458,22.458,0,0,0,1.455-4.084,19.646,19.646,0,0,0,.6-4.059,3,3,0,0,0-1.279-2.828q-1.348-.885-3.526.523t-4.142,5.619a51.549,51.549,0,0,0-3.029,8.095q-.826,3.013-1.71,6.569c-.857.029-2.286-.013-4.326-.131a6.929,6.929,0,0,1-1.515-.993,8.21,8.21,0,0,1,.474-3.432l1.372-4.357q.971-2.244.64-3.216t-1.372-.309l-.829,1.419q-.829,2.249-2.13,7.526a8.186,8.186,0,0,1-1.446,3.43l-.446-.116q.024.355-5.278.048a6.928,6.928,0,0,1-1.515-.993,8.208,8.208,0,0,1,.474-3.432l1.372-4.357q.971-2.244.64-3.216t-1.373-.309l-.828,1.419q-.829,2.249-2.13,7.526-.875,3.41-1.857,3.7a14.037,14.037,0,0,1-3.515.3q-1.538,1.044.236,1.539l1.279.163h1.326l.544.451a66.075,66.075,0,0,1-3.466,6.083c-.844,1.246-1.458,2.124-1.856,2.654-1.709,1.809-2.9,2.753-3.577,2.813-.458-.062-.7-.276-.734-.638l.048-1,.355-2.012a30.442,30.442,0,0,1,2.84-9.324c.047-.948-.236-1.427-.852-1.444l-.567.307c-1.585,2.356-3.029,4.527-4.349,6.536l-.125.116c-.147.235-.309.477-.465.718l.053-.017-.037.056h-.042q-1.169,1.784-2.693,3.754a9.822,9.822,0,0,1-3.821,2.327,3.514,3.514,0,0,1-2.887-.107,3.68,3.68,0,0,1-1.514-2.308q1.158-3.053,1.478-4.166t.887-3.666a8.46,8.46,0,0,1,1.894-3.6q2.059-.83,5.065-4.309,5.254-5.941,5.491-10.768.024-4-3.857-3.811-5.729,1.7-8.592,12.379-1.349,5.727-5.183,7.051l-2.673.143a6.367,6.367,0,0,1-5.349-2.745,7.321,7.321,0,0,1,.153-5.668,13.136,13.136,0,0,1,5.053-5.385q4.425-2.129,6.3-1.493,2.415-.424,1.881-2.212t-5.738.249q-10.461,5.232-10.415,13.135.52,4.048,4.994,5.657a16.121,16.121,0,0,0,7.242.142q1.8-.851,1.266,1.657a41.61,41.61,0,0,1-1.2,4.5q-.568,1.942-4.236,3.455-1.61.381-2.828.7a21.711,21.711,0,0,0-3.089,1.134,5.449,5.449,0,0,0-2.745,2.473q-.048,1.469.982,1.611t2.544-1.633l2.721-1.066a13.986,13.986,0,0,1,4.876-.119q1.94.38,3.87.959a7.1,7.1,0,0,0,4.532-.388,12.712,12.712,0,0,0,5.334-5.562l1.553-1.942a10.316,10.316,0,0,0,.557-.992l.011,0a46.758,46.758,0,0,0-1.3,6.225q-.5,2.65,1.3,3.289a3.56,3.56,0,0,0,2.437-.213,13.859,13.859,0,0,0,4.15-4.363c.1-.114.21-.23.324-.358a29.41,29.41,0,0,0,3.526-5.242,45.946,45.946,0,0,0-1.207,5.846q-.591,4.165,2.248,4.282a4.307,4.307,0,0,0,3.007-1.4q1.728-1.348,5.278-6.554l-.014-.11c.4-.643.809-1.318,1.22-2.068a45.935,45.935,0,0,0-1.207,5.846q-.591,4.165,2.248,4.282a4.306,4.306,0,0,0,3.007-1.4,26.318,26.318,0,0,0,4.166-4.961l-.119,2.43.072.047q.544,4.24,3.572,4.095l1.918-.639a15.351,15.351,0,0,0,4.343-4.151,7.806,7.806,0,0,0,.07,1.18,4.5,4.5,0,0,0,1.551,3.054,4.008,4.008,0,0,0,3.621.341q2.863-.851,7.1-6.933C627.264,79.264,626.916,79.27,626.4,79.6Z" transform="translate(-0.079)"/><path class="a" d="M554.7,103.4a.525.525,0,0,0-.165.026.119.119,0,0,0-.088.1,3.531,3.531,0,0,1-.132.626,1.439,1.439,0,0,1-.208.411,1,1,0,0,1-.31.265,2.828,2.828,0,0,1-.436.19,1.738,1.738,0,0,1-.4.075c-.177.018-.367.024-.569.024-.159,0-.313,0-.461-.019a2.8,2.8,0,0,1-.4-.056,1.968,1.968,0,0,1-.443-.176.724.724,0,0,1-.279-.284,1.314,1.314,0,0,1-.139-.455,5.017,5.017,0,0,1-.038-.676v-4.4a5.389,5.389,0,0,1,.038-.707.966.966,0,0,1,.164-.448.737.737,0,0,1,.367-.253,2.594,2.594,0,0,1,.632-.109.113.113,0,0,0,.1-.068.394.394,0,0,0,.044-.146.265.265,0,0,0-.025-.139.113.113,0,0,0-.108-.063c-.176,0-.341,0-.492.012l-.448.025c-.148.008-.3.018-.455.025s-.323.013-.5.013q-.456,0-.974-.038t-.922-.038a.127.127,0,0,0-.115.063.264.264,0,0,0-.037.139.3.3,0,0,0,.037.146.122.122,0,0,0,.115.068,2.167,2.167,0,0,1,.626.12.814.814,0,0,1,.36.272,1.071,1.071,0,0,1,.17.456,4.27,4.27,0,0,1,.045.67v4.967a3.613,3.613,0,0,1-.045.649.634.634,0,0,1-.17.354.764.764,0,0,1-.367.177,6.26,6.26,0,0,1-.632.108.178.178,0,0,0-.132.083.263.263,0,0,0-.044.145.233.233,0,0,0,.044.139.15.15,0,0,0,.132.064c.3-.017.594-.037.9-.057s.619-.033.947-.033h4.587c.127,0,.206-.023.24-.068a.214.214,0,0,0,.051-.107,6.771,6.771,0,0,1,.038-.942c.033-.309.071-.638.114-.993a.09.09,0,0,0-.057-.1A.321.321,0,0,0,554.7,103.4Z" transform="translate(0 -2.979)"/><path class="a" d="M569.055,97.118a5.594,5.594,0,0,0-.733.044,4.838,4.838,0,0,1-.657.045,5.316,5.316,0,0,1-.7-.045,5.087,5.087,0,0,0-.644-.044.1.1,0,0,0-.1.063.368.368,0,0,0-.025.139.361.361,0,0,0,.031.146.1.1,0,0,0,.095.068c.152.019.279.029.38.033a.63.63,0,0,1,.252.057.432.432,0,0,1,.171.158,1.309,1.309,0,0,1,.132.322,1.994,1.994,0,0,1,.076.424c.017.181.029.371.038.568s.013.4.013.6v2.628a3.027,3.027,0,0,1-.644,2.144,2.465,2.465,0,0,1-1.871.675,2.234,2.234,0,0,1-1.011-.215,2.1,2.1,0,0,1-.714-.574,2.435,2.435,0,0,1-.423-.841,3.613,3.613,0,0,1-.139-1.012V99.051a5.41,5.41,0,0,1,.038-.707.957.957,0,0,1,.164-.448.741.741,0,0,1,.367-.253,2.6,2.6,0,0,1,.632-.109.111.111,0,0,0,.1-.068.347.347,0,0,0,.044-.146.256.256,0,0,0-.024-.139.113.113,0,0,0-.108-.063c-.177,0-.341,0-.492.012s-.3.02-.449.032-.3.023-.455.032-.323.013-.5.013q-.454,0-.973-.045t-.922-.044a.126.126,0,0,0-.114.063.272.272,0,0,0-.038.139.313.313,0,0,0,.038.146.122.122,0,0,0,.114.068,2.153,2.153,0,0,1,.625.12.813.813,0,0,1,.361.272,1.073,1.073,0,0,1,.17.456,4.278,4.278,0,0,1,.045.67v3.538a4.762,4.762,0,0,0,.2,1.485,2.29,2.29,0,0,0,.626,1,2.573,2.573,0,0,0,1.074.562,5.924,5.924,0,0,0,1.536.176,4.521,4.521,0,0,0,1.567-.239,2.552,2.552,0,0,0,1.042-.69,2.725,2.725,0,0,0,.582-1.1,5.432,5.432,0,0,0,.184-1.472v-2.1c0-.151,0-.328-.007-.531s0-.4.007-.6.022-.386.044-.563a1.622,1.622,0,0,1,.095-.417,2.1,2.1,0,0,1,.158-.322.467.467,0,0,1,.158-.158.5.5,0,0,1,.221-.057c.088,0,.208-.014.36-.033a.122.122,0,0,0,.115-.068.3.3,0,0,0,.037-.146.264.264,0,0,0-.037-.139A.127.127,0,0,0,569.055,97.118Z" transform="translate(-0.742 -2.979)"/><path class="a" d="M584.251,105.293a3.65,3.65,0,0,1-.417-.062.956.956,0,0,1-.29-.115.931.931,0,0,1-.234-.2c-.071-.084-.154-.193-.247-.328q-.594-.86-1.245-1.706t-1.295-1.706c-.084-.117-.1-.215-.051-.29q.353-.481.777-1.068t.765-1.068l.392-.53a2.78,2.78,0,0,1,.4-.455c.068-.051.125-.091.171-.12a.45.45,0,0,1,.159-.063,1.416,1.416,0,0,1,.2-.026c.076,0,.173-.009.291-.02a.123.123,0,0,0,.114-.062.264.264,0,0,0,.037-.139.3.3,0,0,0-.037-.145.123.123,0,0,0-.114-.069,5.411,5.411,0,0,0-.67.038,5.1,5.1,0,0,1-.632.038,7.1,7.1,0,0,1-.733-.038,7.506,7.506,0,0,0-.771-.038.116.116,0,0,0-.1.063.309.309,0,0,0-.044.139.254.254,0,0,0,.025.139.151.151,0,0,0,.133.075c.109.019.212.031.31.038a.869.869,0,0,1,.252.058.388.388,0,0,1,.171.132.4.4,0,0,1,.063.239,1.327,1.327,0,0,1-.176.55q-.177.349-.411.715c-.156.244-.312.477-.468.694s-.276.385-.359.493-.16.106-.228.013q-.391-.48-.727-.967t-.625-.93c-.093-.134-.167-.25-.221-.346a.55.55,0,0,1-.083-.272.294.294,0,0,1,.183-.271,1.9,1.9,0,0,1,.6-.147.116.116,0,0,0,.1-.075.3.3,0,0,0,.019-.139.373.373,0,0,0-.037-.139.1.1,0,0,0-.083-.063q-.48,0-.941.038t-.891.038q-.4,0-.815-.038t-.878-.038a.11.11,0,0,0-.107.063.3.3,0,0,0-.032.139.264.264,0,0,0,.037.139.149.149,0,0,0,.114.075,2.207,2.207,0,0,1,.4.078,1.015,1.015,0,0,1,.291.138,1.252,1.252,0,0,1,.234.215,3.607,3.607,0,0,1,.235.315q.48.723,1.068,1.511t1.245,1.624a.223.223,0,0,1,.051.2.418.418,0,0,1-.063.144q-.469.608-.967,1.3t-.891,1.3q-.165.253-.3.417a1.215,1.215,0,0,1-.291.265,1.262,1.262,0,0,1-.367.158,3.544,3.544,0,0,1-.524.095.19.19,0,0,0-.145.083.268.268,0,0,0-.044.144.24.24,0,0,0,.044.14.153.153,0,0,0,.133.062,5.512,5.512,0,0,0,.758-.05,5.121,5.121,0,0,1,.707-.051,6.025,6.025,0,0,1,.765.051,5.932,5.932,0,0,0,.752.05.14.14,0,0,0,.12-.062.239.239,0,0,0,.044-.14.268.268,0,0,0-.044-.144.175.175,0,0,0-.12-.083,2.864,2.864,0,0,1-.316-.043,1.516,1.516,0,0,1-.3-.088.531.531,0,0,1-.215-.165.436.436,0,0,1-.082-.272,1.206,1.206,0,0,1,.183-.454c.123-.22.267-.457.436-.715s.343-.512.524-.765.335-.454.462-.607a.459.459,0,0,1,.113-.087c.034-.017.08.008.139.076.235.285.463.583.683.89s.43.614.631.917c.143.219.27.419.379.6a.924.924,0,0,1,.164.4c0,.076-.063.143-.189.2a2.006,2.006,0,0,1-.669.113.156.156,0,0,0-.114.083.3.3,0,0,0-.038.144.264.264,0,0,0,.038.14.126.126,0,0,0,.114.062,9.189,9.189,0,0,0,.935-.05,9.156,9.156,0,0,1,.934-.051,7.308,7.308,0,0,1,.859.051,7.669,7.669,0,0,0,.9.05.116.116,0,0,0,.1-.062.274.274,0,0,0,.037-.14.269.269,0,0,0-.044-.144A.175.175,0,0,0,584.251,105.293Z" transform="translate(-1.708 -2.979)"/><path class="a" d="M599.918,97.118a5.589,5.589,0,0,0-.733.044,4.842,4.842,0,0,1-.658.045,5.319,5.319,0,0,1-.7-.045,5.087,5.087,0,0,0-.645-.044.1.1,0,0,0-.1.063.389.389,0,0,0-.025.139.361.361,0,0,0,.032.146.1.1,0,0,0,.095.068c.152.019.279.029.38.033a.63.63,0,0,1,.252.057.434.434,0,0,1,.171.158,1.312,1.312,0,0,1,.132.322,2,2,0,0,1,.076.424q.025.272.037.568c.008.2.013.4.013.6v2.628a3.027,3.027,0,0,1-.644,2.144,2.465,2.465,0,0,1-1.871.675,2.234,2.234,0,0,1-1.011-.215,2.1,2.1,0,0,1-.714-.574,2.439,2.439,0,0,1-.423-.841,3.616,3.616,0,0,1-.139-1.012V99.051a5.389,5.389,0,0,1,.038-.707.956.956,0,0,1,.164-.448.737.737,0,0,1,.367-.253,2.6,2.6,0,0,1,.632-.109.111.111,0,0,0,.1-.068.363.363,0,0,0,.044-.146.256.256,0,0,0-.024-.139.113.113,0,0,0-.108-.063c-.177,0-.341,0-.494.012s-.3.02-.448.032-.3.023-.455.032-.322.013-.5.013q-.454,0-.973-.045t-.922-.044a.126.126,0,0,0-.115.063.272.272,0,0,0-.037.139.314.314,0,0,0,.037.146.122.122,0,0,0,.115.068,2.154,2.154,0,0,1,.625.12.8.8,0,0,1,.36.272,1.06,1.06,0,0,1,.171.456,4.271,4.271,0,0,1,.045.67v3.538a4.766,4.766,0,0,0,.2,1.485,2.291,2.291,0,0,0,.626,1,2.574,2.574,0,0,0,1.074.562,5.924,5.924,0,0,0,1.536.176,4.522,4.522,0,0,0,1.567-.239,2.552,2.552,0,0,0,1.042-.69,2.737,2.737,0,0,0,.582-1.1,5.439,5.439,0,0,0,.184-1.472v-2.1c0-.151,0-.328-.007-.531s0-.4.007-.6.022-.386.043-.563a1.652,1.652,0,0,1,.1-.417,2.107,2.107,0,0,1,.158-.322.459.459,0,0,1,.158-.158.5.5,0,0,1,.221-.057c.088,0,.208-.014.36-.033a.123.123,0,0,0,.114-.068.3.3,0,0,0,.038-.146.263.263,0,0,0-.038-.139A.127.127,0,0,0,599.918,97.118Z" transform="translate(-2.653 -2.979)"/><path class="a" d="M609.858,101.225a1.96,1.96,0,0,1-.55-.057c-.122-.038-.183-.165-.183-.386V98.293a.645.645,0,0,1,.159-.518,1.129,1.129,0,0,1,.65-.127,2.938,2.938,0,0,1,.771.088,1.1,1.1,0,0,1,.512.3,1.235,1.235,0,0,1,.284.543,3.27,3.27,0,0,1,.088.814,3.742,3.742,0,0,1-.083.854,1.251,1.251,0,0,1-.284.569,1.11,1.11,0,0,1-.537.314A3.021,3.021,0,0,1,609.858,101.225Zm4.342,3.254a.219.219,0,0,0-.145.013.177.177,0,0,0-.1.132.8.8,0,0,1-.215.378.426.426,0,0,1-.291.128.437.437,0,0,1-.3-.133.777.777,0,0,1-.209-.424c-.058-.251-.114-.512-.164-.776a3.5,3.5,0,0,0-.246-.778,2.818,2.818,0,0,0-.493-.733,3.036,3.036,0,0,0-.916-.645c-.06-.033-.089-.067-.089-.1s.029-.07.089-.087a3.715,3.715,0,0,0,.751-.247,2.018,2.018,0,0,0,.6-.411,1.829,1.829,0,0,0,.4-.606,2.192,2.192,0,0,0,.145-.834,2.141,2.141,0,0,0-.234-1.037,1.978,1.978,0,0,0-.619-.7,2.619,2.619,0,0,0-.878-.386,4.225,4.225,0,0,0-1-.12c-.3,0-.621.006-.954.019s-.751.023-1.257.032q-.455,0-.8-.026c-.227-.017-.484-.024-.771-.024a.126.126,0,0,0-.113.063.275.275,0,0,0,0,.278.123.123,0,0,0,.113.064c.093.008.19.022.291.038a2.685,2.685,0,0,1,.291.063.689.689,0,0,1,.36.226,1.088,1.088,0,0,1,.2.393,2.547,2.547,0,0,1,.083.493q.018.266.018.544v4.739a3.379,3.379,0,0,1-.043.606.748.748,0,0,1-.172.367.714.714,0,0,1-.354.2,3.7,3.7,0,0,1-.581.1.163.163,0,0,0-.127.083.256.256,0,0,0-.032.144.324.324,0,0,0,.045.14.123.123,0,0,0,.114.062,8.7,8.7,0,0,0,.91-.05,9.034,9.034,0,0,1,.948-.051,9.16,9.16,0,0,1,.935.051,11.017,11.017,0,0,0,1.112.05.154.154,0,0,0,.133-.062.24.24,0,0,0,.044-.14.291.291,0,0,0-.044-.158.138.138,0,0,0-.12-.07,3.708,3.708,0,0,1-.6-.087,1.075,1.075,0,0,1-.436-.209.875.875,0,0,1-.266-.405,2.169,2.169,0,0,1-.088-.688V102.2a.375.375,0,0,1,.152-.354.724.724,0,0,1,.366-.089,1.375,1.375,0,0,1,1,.355,2.62,2.62,0,0,1,.588,1.163q.051.189.114.436c.042.163.084.332.127.5s.086.343.132.511.095.326.145.468a.9.9,0,0,0,.442.506,1.521,1.521,0,0,0,.734.177,1.777,1.777,0,0,0,.487-.07,1.343,1.343,0,0,0,.442-.214,1.318,1.318,0,0,0,.335-.373,1.331,1.331,0,0,0,.177-.543.129.129,0,0,0-.044-.12A.3.3,0,0,0,614.2,104.479Z" transform="translate(-3.621 -2.979)"/><path class="a" d="M628.762,97.118a5.569,5.569,0,0,0-.675.038,4.952,4.952,0,0,1-.6.038,6.448,6.448,0,0,1-.7-.038,7.619,7.619,0,0,0-.815-.038.116.116,0,0,0-.1.063.272.272,0,0,0-.038.139.3.3,0,0,0,.032.139.129.129,0,0,0,.107.075c.127.019.242.033.348.046a.824.824,0,0,1,.271.074.385.385,0,0,1,.171.166.646.646,0,0,1,.057.3,1.62,1.62,0,0,1-.133.524q-.132.348-.366.815t-.544,1.018q-.31.549-.663,1.118c-.051.084-.093.116-.126.095a.265.265,0,0,1-.089-.095l-1.5-2.869a1.673,1.673,0,0,1-.24-.7.358.358,0,0,1,.2-.328,1.859,1.859,0,0,1,.676-.166.167.167,0,0,0,.12-.075.239.239,0,0,0,.044-.139.264.264,0,0,0-.039-.139.137.137,0,0,0-.126-.063q-.443,0-.91.038t-.935.038c-.287,0-.577-.013-.872-.038s-.611-.038-.948-.038a.116.116,0,0,0-.1.063.275.275,0,0,0,0,.278.142.142,0,0,0,.1.075c.22.036.4.065.55.09a.672.672,0,0,1,.385.215,4.524,4.524,0,0,1,.392.524q.239.36.474.746t.417.714q.183.329.234.429l1.087,2.111v1.657a3.724,3.724,0,0,1-.044.649.652.652,0,0,1-.177.361.781.781,0,0,1-.367.183,4.429,4.429,0,0,1-.625.095.155.155,0,0,0-.114.083.3.3,0,0,0-.037.145.264.264,0,0,0,.037.139.126.126,0,0,0,.114.064,8.587,8.587,0,0,0,.929-.057,9.086,9.086,0,0,1,.993-.057,7.555,7.555,0,0,1,.916.057,7.973,7.973,0,0,0,.966.057.152.152,0,0,0,.133-.064.24.24,0,0,0,.044-.139.272.272,0,0,0-.044-.145.172.172,0,0,0-.12-.083,4.624,4.624,0,0,1-.619-.095.785.785,0,0,1-.372-.183.682.682,0,0,1-.184-.361,3.219,3.219,0,0,1-.051-.649v-1.782l1.82-3.121q.139-.241.335-.556a3.117,3.117,0,0,1,.448-.568,1.377,1.377,0,0,1,.872-.457.112.112,0,0,0,.1-.068.377.377,0,0,0,.044-.146.265.265,0,0,0-.025-.139A.112.112,0,0,0,628.762,97.118Z" transform="translate(-4.479 -2.979)"/><path class="a" d="M720.583,79.015c-4.99-1.645-7.446-.523-7.471-.509l-.149.07.089-.834.064-.016c3.59-.853,7.5,1.1,7.539,1.117Zm-2.007,2.522c-.042-.02-4.215-1.85-5.74-1.3l-.332.118.229-.266a.575.575,0,0,0,.119-.409l-.012-.1.1-.006a10.377,10.377,0,0,1,5.726,1.8Zm-7.959-1.447.006-.059.1.023Zm-1.9-2.68-.078-.147c-.012-.023-1.313-2.393-6.295-4.054l.045-.179c.043.007,4.345.779,6.712,3.607l.042.05Zm-.627,1.426c-1.2-1.114-5.741-1.068-5.79-1.068l-.018-.183a10.363,10.363,0,0,1,5.973.6l.088.044-.05.084a.576.576,0,0,0-.053.424l.111.339ZM677.343,76.42a12.775,12.775,0,0,1-1.777,4.887A5.814,5.814,0,0,1,672.42,83.9a2.7,2.7,0,0,1-2.983-.64q-1.113-1.228-.555-4.448a10.534,10.534,0,0,1,2.993-5.691q2.437-2.475,4.19-1.02A4.308,4.308,0,0,1,677.343,76.42Zm-3.516,20.092a44.1,44.1,0,0,1-2.876,8.072q-1.679,3.48-3.56,4.379t-2.509-.8a7.809,7.809,0,0,1,.331-4.8,26.538,26.538,0,0,1,3.291-6.64,59.257,59.257,0,0,1,4.141-5.669q1.811-2.129,3.137-3.526Q675.021,91.923,673.827,96.512ZM657.368,79.093a18.989,18.989,0,0,1-3.859,3.5q-2.32,1.469-1.727-1.656a14.81,14.81,0,0,1,2.413-4.474,9.979,9.979,0,0,1,2.889-2.982q2.174-1.375,3.313.4A15.292,15.292,0,0,1,657.368,79.093ZM638.2,66.267l-2.319-.971-1.776-1.371a4.862,4.862,0,0,1-1.349-3.456q.024-3.2,3.385-4.452a7.355,7.355,0,0,1,5.36-.1,16.128,16.128,0,0,1,4.367,2.235,38.259,38.259,0,0,0-4.9,8.236ZM654.5,53.119q2.188-.556,2.922.722t-1.277,2.448q-2.012,1.171-5.988.13A8.527,8.527,0,0,1,654.5,53.119Zm71.337,21.359c-.079-.224-2.973-.375-3.98-.41a22.661,22.661,0,0,0-5.327.276,11.863,11.863,0,0,0-3.4,1.892c-.145-.373-.812-.551-1.271-.673l-.014.051.014-.052a5.444,5.444,0,0,0-1.536-.11c-.5-.681-1.433-1.964-2.264-3.08-1.524-2.049-6.9-4.725-7.337-4.419a18.686,18.686,0,0,0-3.13,6.3,37.1,37.1,0,0,0-.6,5.621,24.6,24.6,0,0,1-3.2,3.122,6.483,6.483,0,0,0,.514-1.352,8.136,8.136,0,0,0-1.007-6.319,6.978,6.978,0,0,1-.734-3.433,8.86,8.86,0,0,1,2.06-4.424q.069-.971-1.4-.569a9.464,9.464,0,0,0-3.787,4.19,59.681,59.681,0,0,1-3.6,5.136c-.521.711-1.034,1.372-1.539,2.009a13.779,13.779,0,0,1-3.738,3.339q-.471-.236-.5-.5l-.094-.9q1.161-4.877,2.13-8.048t-.271-3.1q-1.244.072-1.611,1.883t-.649.9a3.775,3.775,0,0,0-1.526-1.8q-1.244-.888-4-.308t-5.5,4.7a14.282,14.282,0,0,0-2.445,6.211,38.167,38.167,0,0,1-2.928,2.927l-.9.494q-1.113.215-.687-2.222l.331-2.2q.354-1.065,1.371-4.307,1.445-3.265,1.35-4.4l-.521-1.065-1.7.095q-1.752-.712-5.41,1.551a18.124,18.124,0,0,0-5.928,5.905c-.41.734-.759,1.418-1.058,2.064-1.879,3.41-3.732,4.361-4.942,4.554a4.579,4.579,0,0,1-1.38-.087q-1.8-.4-2.676-2.887-.615-1.848.4-6.888a31.628,31.628,0,0,1,1.94-6.01,16.164,16.164,0,0,0,6.342-1.8q3.574-2.011,2.722-3.1t-3.2,1.207q-1.3,1.278-4.993,1.728a59.2,59.2,0,0,1,3.643-6.463c.158-.267.308-.521.45-.757a32.859,32.859,0,0,0,3.562.284,8.959,8.959,0,0,0,4.793-1.278q2.437-1.373,2.532-3.443a2.543,2.543,0,0,0-2.059-2.734,5.735,5.735,0,0,0-4.164.236,17.743,17.743,0,0,0-4.615,3.336,14.078,14.078,0,0,0-4.215-1.419,17.345,17.345,0,0,0-6.649-.142q-4.712.877-6.284,4.153a5.531,5.531,0,0,0,.342,5.978,9.515,9.515,0,0,0,3.125,2.91q1.608,1.257,5.254,1.444h.236q-.212.568-.426,1.136a36.329,36.329,0,0,0-1.917,10.13,15.384,15.384,0,0,0,.618,3.923,5.413,5.413,0,0,0,4.605,3.126l-.012.051a7.991,7.991,0,0,0,5.906-2.745c0,.252,0,.5.024.757l.214.829.663.686a4.74,4.74,0,0,0,3.336-.734,28.763,28.763,0,0,0,6.556-6.461l-.8,4.118q-.168,3.715,2.7,3.1,1.743.073,4.4-3.357c.211,2.584,1.4,3.978,3.6,4.161q3.381.286,7.122-4.9-.355,1.845-.592,3.241-2.934,3.076-4.66,4.948-1.849,1.964-4.013,4.568a31.678,31.678,0,0,0-4.106,6.71,12.773,12.773,0,0,0-1.526,7.053q.414,2.945,2.662,3.456t5.1-2.57a26.168,26.168,0,0,0,4.888-8.21,83.416,83.416,0,0,0,3.809-14.509l1.042-1.231a39.049,39.049,0,0,0,5.727-6.329q3.357-3.708,4.177-4.062.934-.4,1.835,1.243a6.25,6.25,0,0,1,.65,3.8,6.739,6.739,0,0,1-1.171,3.361,3.431,3.431,0,0,1-2.059,1.419c-.756.142-1.232-.109-1.42-.757.347-1.356.2-2.166-.449-2.425a1.493,1.493,0,0,0-1.658.212,2.309,2.309,0,0,0-.7,1.8,2.425,2.425,0,0,0,1.385,2.059,6.155,6.155,0,0,0,4.237.367c.166-.065.317-.139.474-.21q4.137-.719,6.9-5.111a4.843,4.843,0,0,0,1.9.857,11.993,11.993,0,0,0,4.568.217A15.224,15.224,0,0,0,707,81.012a29.962,29.962,0,0,1-5.175,7.044A8.828,8.828,0,0,0,706.2,86.1a17.523,17.523,0,0,1-.237,3.257,16.194,16.194,0,0,0,4.046-6.566,15.464,15.464,0,0,0,2,8.483,16.911,16.911,0,0,1,.636-3.072,8.489,8.489,0,0,0,3.536,2.956,27.242,27.242,0,0,1-3.084-8.989,14.382,14.382,0,0,0,2.642,2.883,10.269,10.269,0,0,0,3.205,1.309,9.536,9.536,0,0,0,3.681.462,19.27,19.27,0,0,0,2.054-5.109A39.736,39.736,0,0,0,725.832,74.479Z" transform="translate(-5.117 -0.155)"/></g></svg>