<svg xmlns="http://www.w3.org/2000/svg" width="92.065" height="74.984" viewBox="0 0 92.065 74.984"><defs><style>.a{fill:#fff;}</style></defs><g transform="translate(-46.812 -84.271)"><g transform="translate(46.812 84.271)"><path class="a" d="M101.463,107.833a3.527,3.527,0,0,0-3.6-3.43H71.91a10.077,10.077,0,1,1,0-20.132H94.2v9.754H87.792L86.9,90.986H71.91a3.352,3.352,0,1,0,0,6.7H97.86a10.16,10.16,0,1,1,0,20.3H70.049l-.962,3.285h-6.47v-9.992H97.86A3.534,3.534,0,0,0,101.463,107.833ZM98.452,84.281v6.73c9.451.293,17.058,7.724,17.058,16.821,0,9.3-7.92,16.858-17.65,16.858H62.715l4.864,6.707H97.86c13.607,0,24.661-10.575,24.661-23.565C122.521,95.023,111.773,84.59,98.452,84.281Z" transform="translate(-42.59 -84.271)"/><path class="a" d="M63.61,141.382v.058c0,3.5-3.167,5.924-7.573,5.924a13.442,13.442,0,0,1-9.225-3.474l1.122-1.214a11.367,11.367,0,0,0,8.193,3.227c3.437,0,5.79-1.827,5.79-4.3v-.071c0-2.285-1.275-3.614-6.48-4.612-5.478-1.058-7.7-2.818-7.7-6.11v-.065c0-3.216,3.1-5.7,7.344-5.7a11.791,11.791,0,0,1,7.841,2.64l-1.064,1.268a10.225,10.225,0,0,0-6.836-2.45c-3.372,0-5.586,1.827-5.586,4.095v.071c0,2.289,1.242,3.678,6.667,4.726C61.386,136.431,63.61,138.225,63.61,141.382Zm6.4-15.186h-1.6v5.053H66v1.4h2.419v10.346c0,3.006,2.09,4.339,4.673,4.339a6.508,6.508,0,0,0,2.7-.556v-1.428a5.843,5.843,0,0,1-2.455.555c-1.926,0-3.326-.805-3.326-3.065v-10.19l5.853,0v-1.4H70.012Zm28,9.547v-4.493h-1.6v15.8h1.6v-6.474c0-5.144,3.353-7.9,7.212-7.9h.174V131A7.88,7.88,0,0,0,98.014,135.743ZM114.3,146a6.825,6.825,0,0,1-6.861-6.849v-.062a6.692,6.692,0,0,1,6.743-6.782,7.7,7.7,0,0,1,5.555,2.6l1.14-1.112a8.961,8.961,0,0,0-6.672-2.916,8.431,8.431,0,0,0-8.5,8.269v.065a8.362,8.362,0,0,0,8.5,8.211,8.735,8.735,0,0,0,6.8-3.132l-1.109-.931A7.62,7.62,0,0,1,114.3,146Zm24.575-6.911v.062a8.567,8.567,0,0,1-17.122.065v-.065a8.4,8.4,0,0,1,8.6-8.269A8.3,8.3,0,0,1,138.877,139.088Zm-1.731.062a6.791,6.791,0,0,0-6.858-6.844,6.686,6.686,0,0,0-6.8,6.782v.062A6.8,6.8,0,0,0,130.354,146a6.682,6.682,0,0,0,6.791-6.785ZM85.392,130.88a7.968,7.968,0,0,0-7.9,8.235v.066a8.053,8.053,0,0,0,8.164,8.245,8.978,8.978,0,0,0,6.908-2.98l-1.124-.919A7.663,7.663,0,0,1,85.726,146a6.446,6.446,0,0,1-6.483-5.856,8.8,8.8,0,0,1,.008-2.2,6.269,6.269,0,0,1,6.085-5.671c3.817,0,5.743,2.947,5.968,6.138h-9.34c-.276.384-.693.975-.968,1.365H93.01a3.282,3.282,0,0,0,.037-.623C93.048,134.483,90.075,130.88,85.392,130.88Z" transform="translate(-46.812 -72.442)"/></g></g></svg>