<?xml version="1.0" encoding="utf-8"?>
<!-- Generator: Adobe Illustrator 16.0.0, SVG Export Plug-In . SVG Version: 6.00 Build 0)  -->
<!DOCTYPE svg PUBLIC "-//W3C//DTD SVG 1.1//EN" "http://www.w3.org/Graphics/SVG/1.1/DTD/svg11.dtd">
<svg version="1.1" id="Isolation_Mode" xmlns="http://www.w3.org/2000/svg" xmlns:xlink="http://www.w3.org/1999/xlink" x="0px"
	 y="0px" width="110.75px" height="97.75px" viewBox="227.64 326.695 110.75 97.75"
	 enable-background="new 227.64 326.695 110.75 97.75" xml:space="preserve">
<path fill="#6DACDE" d="M293.676,364.017h-40.484v11.479h7.435l1.103-3.775h31.946c6.729,0,12.205-5.224,12.205-11.653
	c0-6.423-5.477-11.658-12.205-11.658h-29.811c-2.229,0-4.031-1.72-4.031-3.846c0-2.123,1.803-3.851,4.031-3.851h17.223l1.022,3.492
	h7.359V333h-25.604c-6.665,0-12.106,5.186-12.106,11.563c0,6.371,5.441,11.561,12.106,11.561h29.811c2.275,0,4.141,1.77,4.141,3.943
	C297.817,362.239,295.951,364.017,293.676,364.017"/>
<path fill="#6DACDE" d="M294.354,333.012v7.729c10.854,0.34,19.597,8.872,19.597,19.324c0,10.684-9.099,19.362-20.271,19.362
	h-40.374l5.587,7.708h34.787c15.629,0,28.33-12.146,28.33-27.07C322.007,345.351,309.658,333.365,294.354,333.012"/>
<path fill="#034EA2" d="M230.188,415.072l1.287-1.396c2.885,2.534,5.547,3.707,9.414,3.707c3.947,0,6.652-2.102,6.652-4.938v-0.08
	c0-2.627-1.471-4.152-7.444-5.3c-6.294-1.216-8.85-3.237-8.85-7.02v-0.076c0-3.692,3.567-6.54,8.44-6.54
	c3.836,0,6.346,1.005,9.007,3.031l-1.224,1.459c-2.484-2.025-4.963-2.815-7.851-2.815c-3.87,0-6.419,2.097-6.419,4.702v0.079
	c0,2.627,1.427,4.229,7.659,5.432c6.073,1.185,8.624,3.244,8.624,6.871v0.066c0,4.023-3.636,6.805-8.7,6.805
	C236.578,419.061,233.351,417.741,230.188,415.072"/>
<path fill="#034EA2" d="M255.006,414.042v-11.885h-2.778v-1.606h2.778v-5.804h1.833v5.804h6.721v1.609l-6.721-0.003v11.704
	c0,2.597,1.61,3.521,3.82,3.521c0.941,0,1.733-0.176,2.817-0.639v1.639c-0.973,0.425-1.918,0.644-3.107,0.644
	C257.406,419.026,255.006,417.494,255.006,414.042"/>
<path fill="#034EA2" d="M287.162,400.551H289v5.161c1.494-3.231,4.683-5.586,8.488-5.443v1.917h-0.197
	c-4.436,0-8.291,3.17-8.291,9.08v7.438h-1.838V400.551z"/>
<path fill="#034EA2" d="M297.846,409.696v-0.071c0-5.083,4.282-9.499,9.758-9.499c3.614,0,5.858,1.572,7.664,3.35l-1.312,1.278
	c-1.658-1.601-3.541-2.988-6.379-2.988c-4.365,0-7.746,3.446-7.746,7.791v0.068c0,4.375,3.502,7.868,7.887,7.868
	c2.697,0,4.803-1.324,6.421-3.027l1.272,1.068c-1.949,2.101-4.271,3.598-7.809,3.598
	C302.096,419.132,297.846,414.786,297.846,409.696"/>
<path fill="#034EA2" d="M316.274,409.696v-0.071c0-5.083,4.175-9.499,9.877-9.499c5.661,0,9.788,4.342,9.788,9.431v0.068
	c0,5.089-4.164,9.507-9.863,9.507C320.402,419.132,316.274,414.786,316.274,409.696 M333.953,409.696v-0.071
	c0-4.375-3.453-7.859-7.877-7.859c-4.541,0-7.814,3.521-7.814,7.791v0.068c0,4.375,3.443,7.868,7.891,7.868
	C330.686,417.493,333.953,413.975,333.953,409.696"/>
<path fill="#034EA2" d="M283.253,410.344c0.042-0.281,0.042-0.395,0.042-0.719c0-5.358-3.412-9.498-8.785-9.498
	c-5.178,0-9.081,4.203-9.081,9.461v0.07c0,5.666,4.354,9.474,9.376,9.474c3.694,0,5.978-1.429,7.935-3.421l-1.286-1.059
	c-1.571,1.593-3.598,2.841-6.566,2.841c-3.621,0-6.909-2.484-7.448-6.726c-0.172-1.294,0.009-2.531,0.009-2.531
	c0.548-3.743,3.373-6.513,6.989-6.513c4.388,0,6.605,3.384,6.86,7.049h-10.733c-0.315,0.44-0.796,1.122-1.11,1.571H283.253
	L283.253,410.344z"/>
</svg>
