<svg xmlns="http://www.w3.org/2000/svg" width="87.854" height="58.772" viewBox="0 0 87.854 58.772"><defs><style>.a,.b{fill:none;stroke:#5f9597;stroke-linecap:round;stroke-linejoin:round;stroke-width:2px;}.b{fill-rule:evenodd;}</style></defs><g transform="translate(-1327.108 -2128.728)"><line class="a" x1="51.413" transform="translate(1357.695 2142.038)"/><line class="a" x1="1.184" transform="translate(1391.019 2136.144)"/><line class="a" x1="1.183" transform="translate(1396.127 2136.144)"/><line class="a" x1="1.185" transform="translate(1401.234 2136.144)"/><path class="a" d="M1409.032,2183.765a2.734,2.734,0,0,1-2.735,2.735h-63.786a2.735,2.735,0,0,1-2.735-2.735l.025-16.57"/><path class="a" d="M1339.849,2132.465a2.738,2.738,0,0,1,2.737-2.737H1406.3a2.735,2.735,0,0,1,2.735,2.737v25.748"/><path class="a" d="M1354.908,2147.785l-2.926-1.1a1.885,1.885,0,0,1-1.008-2.436l1.293-2.845a.592.592,0,0,0-.118-.663l-1.671-1.671a.589.589,0,0,0-.664-.118l-2.846,1.291a1.758,1.758,0,0,1-1.429-.01,1.733,1.733,0,0,1-1.007-1l-1.1-2.926a.6.6,0,0,0-.553-.384h-2.366a.6.6,0,0,0-.553.384l-1.1,2.926a1.877,1.877,0,0,1-2.435,1.008l-2.846-1.291a.582.582,0,0,0-.659.118l-1.675,1.671a.589.589,0,0,0-.118.663l1.294,2.845a1.877,1.877,0,0,1-1.011,2.436l-2.924,1.1a.592.592,0,0,0-.384.553v2.365a.589.589,0,0,0,.384.551l2.924,1.1a1.881,1.881,0,0,1,1.011,2.435l-1.294,2.845a.588.588,0,0,0,.118.663l1.675,1.672a.582.582,0,0,0,.659.119l2.846-1.292a1.762,1.762,0,0,1,1.431.01,1.728,1.728,0,0,1,1,1l1.1,2.925a.594.594,0,0,0,.553.384h2.366a.592.592,0,0,0,.553-.384l1.1-2.925a1.881,1.881,0,0,1,2.436-1.008l2.846,1.292a.591.591,0,0,0,.664-.119l1.671-1.672a.591.591,0,0,0,.118-.663l-1.293-2.845a1.878,1.878,0,0,1,1.008-2.435l2.926-1.1a.592.592,0,0,0,.385-.551v-2.365A.6.6,0,0,0,1354.908,2147.785Z"/><path class="a" d="M1341.7,2144.793a4.727,4.727,0,1,1-4.729,4.727A4.727,4.727,0,0,1,1341.7,2144.793Z"/><path class="b" d="M1365.528,2154.581c2.9-2.456,7.864-1.862,10.384,1.183a13.017,13.017,0,0,1,1.621,2.8,3.31,3.31,0,0,0,2.043,1.92q9.324,2.949,18.64,5.919a3.817,3.817,0,0,0,3.469-.79,7.5,7.5,0,0,1,8.152-.392,7.583,7.583,0,0,1,4.125,7.049c0,.375-.07.751-.135,1.366-1.613-1.1-3.094-2.055-4.517-3.093a1.858,1.858,0,0,0-2.207-.2c-2.2,1.106-2.641,1.978-1.834,4.316a1.959,1.959,0,0,0,.777.8c1.461,1.009,2.942,1.991,4.7,3.171a22.1,22.1,0,0,1-2.578,1.093,7.637,7.637,0,0,1-9.224-4.367,5.065,5.065,0,0,0-3.544-3.143c-5.722-1.724-11.409-3.562-17.093-5.4a3.9,3.9,0,0,0-3.714.544,7.89,7.89,0,0,1-12.441-7.121,7.068,7.068,0,0,1,.148-.729,37.759,37.759,0,0,1,3.686,2.515,2.8,2.8,0,0,0,4.01.208.648.648,0,0,1,.207-.106c.823-.248.882-.795.894-1.6a3.839,3.839,0,0,0-2.292-3.769A38.694,38.694,0,0,1,1365.528,2154.581Z"/></g></svg>