<svg xmlns="http://www.w3.org/2000/svg" width="147.351" height="157.397" viewBox="0 0 147.351 157.397"><defs><style>.a,.f,.g{fill:none;stroke-miterlimit:10;}.a{stroke:#3780ba;opacity:0.2;}.b{fill:#dec61e;}.c{fill:#0080bb;}.d{fill:#fff;}.e{fill:#80af3c;}.f,.g{stroke:#000;}.g{stroke-dasharray:6 2;}.h{fill:#15729d;}.i{fill:#f7f7f7;}.j{fill:#b3b3b3;}</style></defs><g transform="translate(-408.508 -1545.056)"><path class="a" d="M9.254,0H71a9.254,9.254,0,0,1,9.254,9.254V147.143A9.254,9.254,0,0,1,71,156.4H9.253A9.253,9.253,0,0,1,0,147.143V9.254A9.254,9.254,0,0,1,9.254,0Z" transform="translate(425.975 1545.556)"/><path class="b" d="M495.1,1552.154h-7.723v2.818a4.529,4.529,0,0,1-4.374,4.671H449.2a4.529,4.529,0,0,1-4.373-4.671v-2.818H437.1a4.53,4.53,0,0,0-4.374,4.671v133.649a4.53,4.53,0,0,0,4.374,4.671H495.1a4.529,4.529,0,0,0,4.373-4.671V1556.825A4.528,4.528,0,0,0,495.1,1552.154Z" transform="translate(4.902 0)"/><g transform="translate(447.595 1586.963)"><path class="c" d="M489.667,1610.81a23.718,23.718,0,0,0-.607-9.838l-5.661,1.567a17.949,17.949,0,1,1-21.444-12.677l-1.357-5.714a23.822,23.822,0,1,0,29.069,26.662Z" transform="translate(-442.275 -1583.502)"/><path class="d" d="M468.726,1589.569a17.948,17.948,0,0,1,14.673,12.97l5.661-1.567a23.819,23.819,0,0,0-28.462-16.824l1.357,5.714A17.887,17.887,0,0,1,468.726,1589.569Z" transform="translate(-442.275 -1583.502)"/></g><path class="e" d="M4.123,0h50.72a4.123,4.123,0,0,1,4.123,4.123v5.5a4.124,4.124,0,0,1-4.124,4.124H4.124A4.124,4.124,0,0,1,0,9.62v-5.5A4.123,4.123,0,0,1,4.123,0Z" transform="translate(464.448 1669.005)"/><path class="f" d="M493.753,1665.086l-3.4,3.4-3.4-3.4h0l-3.4,3.4-3.4-3.4h0l-3.4,3.4-3.4-3.4h0l-3.4,3.4-3.4-3.4h0l-3.4,3.4-3.4-3.4" transform="translate(6.967 9.09)"/><g transform="translate(420.764 1571.545)"><path class="g" d="M531.226,1587.4V1629.1c0,4.754-4.394,8.608-9.815,8.608H430.577c-5.42,0-9.813-3.854-9.813-8.608v-44.475c0-4.754,4.394-8.608,9.813-8.608h86.651" transform="translate(-420.764 -1568.847)"/><g transform="translate(103.296)"><line class="f" x2="14.332" transform="translate(0 7.166)"/><line class="f" y1="14.332" transform="translate(7.166)"/></g></g><g transform="translate(520.925 1600.315)"><rect class="h" width="34.934" height="34.934" rx="5.989"/><path class="i" d="M523.677,1602.723a4.766,4.766,0,0,0-2.658,1.393,4.861,4.861,0,0,0-.948,1.5,4.051,4.051,0,0,0-.158,2.154,5.135,5.135,0,0,1,0,1.68,2.069,2.069,0,0,0,.088,1.313,5.412,5.412,0,0,0,.386,1.087,6.15,6.15,0,0,1,.395,1.285,5.257,5.257,0,0,0,.929,2.223c.286.414.306.514.335,1.482.06,1.56-.049,1.689-1.857,2.282-.514.168-1.067.365-1.234.435s-.475.177-.692.246a18.081,18.081,0,0,0-3.557,1.7c-.691.494-.81.77-.889,2.075l-.07,1.165H535.9v-.839c0-1.245-.138-1.749-.583-2.154-.78-.7-2.519-1.512-5.345-2.48a18.647,18.647,0,0,1-1.848-.7c-.366-.237-.444-.592-.4-1.778.028-1.077.028-1.1.385-1.581a5.642,5.642,0,0,0,.869-2.262,5.154,5.154,0,0,1,.405-1.186,4.23,4.23,0,0,0,.425-2.381,4.09,4.09,0,0,1-.01-1.412,4.247,4.247,0,0,0-.651-3.31A5.356,5.356,0,0,0,523.677,1602.723Z" transform="translate(-507.356 -1596.217)"/></g><g transform="translate(408.508 1653.2)"><rect class="j" width="34.934" height="34.933" rx="5.989"/><g transform="translate(6.387 8.935)"><path class="i" d="M424.061,1663.672l-9.166-5.163v10.215a1.385,1.385,0,0,0,1.385,1.384h19.389a1.386,1.386,0,0,0,1.386-1.384v-10.215l-9.166,5.164A4.325,4.325,0,0,1,424.061,1663.672Z" transform="translate(-414.895 -1653.045)"/><path class="i" d="M435.669,1653.045H416.28a1.385,1.385,0,0,0-1.385,1.385v2.359l9.166,5.163a4.325,4.325,0,0,0,3.828,0l9.166-5.164v-2.359A1.386,1.386,0,0,0,435.669,1653.045Z" transform="translate(-414.895 -1653.045)"/></g></g></g></svg>