<svg xmlns="http://www.w3.org/2000/svg" width="219.816" height="82.912" viewBox="0 0 219.816 82.912"><defs><style>.a{fill:#0080bb;}.a,.c,.d,.e,.f{fill-rule:evenodd;}.b{fill:#fff;}.c{fill:#b3b3b3;}.d{fill:#007691;}.e{fill:#80af3c;}.f{fill:#768730;}</style></defs><g transform="translate(-786.751 -1575.929)"><path class="a" d="M862.433,1594a41.455,41.455,0,1,0,0,46.777,41.45,41.45,0,0,1,0-46.777Z"/><path class="b" d="M803.426,1601.759l17.762-2.42.008,17.133-17.754.1Zm17.754,16.688.013,17.148-17.752-2.442,0-14.821Zm2.153-19.424,23.551-3.437v20.669l-23.551.187Zm23.556,19.585-.005,20.576-23.551-3.324-.033-17.291Z"/><path class="c" d="M930.885,1594a41.451,41.451,0,0,0-68.452,0,41.445,41.445,0,0,1,0,46.777,41.452,41.452,0,0,0,68.452,0,41.45,41.45,0,0,1,0-46.777Z"/><path class="b" d="M909.14,1616.816a10.347,10.347,0,0,1,4.943-8.7,10.688,10.688,0,0,0-8.368-4.537c-3.56-.36-6.948,2.1-8.754,2.1s-4.595-2.045-7.546-1.987a11.2,11.2,0,0,0-9.464,5.733c-4.032,7-1.028,17.365,2.9,23.044,1.924,2.776,4.213,5.9,7.222,5.788,2.9-.115,4-1.874,7.5-1.874s4.485,1.874,7.549,1.82c3.116-.061,5.093-2.837,7-5.622a25.123,25.123,0,0,0,3.167-6.506,10.1,10.1,0,0,1-6.141-9.253m-5.754-17a10.072,10.072,0,0,0,2.376-7.3,10.255,10.255,0,0,0-6.737,3.468,9.563,9.563,0,0,0-2.426,7.074,8.491,8.491,0,0,0,6.787-3.237"/><path class="d" d="M862.433,1594a41.45,41.45,0,0,0,0,46.777,41.445,41.445,0,0,0,0-46.777Z"/><path class="e" d="M965.112,1575.929A41.407,41.407,0,0,0,930.885,1594a41.445,41.445,0,0,1,0,46.777,41.455,41.455,0,1,0,34.227-64.845Z"/><path class="b" d="M978.36,1608.426c.009.1.011.212.011.32v18.086a3.473,3.473,0,0,1-3.449,3.511h-.136v7.154a2.783,2.783,0,0,1-5.565,0v-7.154h-6.989v7.154a2.783,2.783,0,0,1-5.566,0v-7.154h-.135a3.474,3.474,0,0,1-3.451-3.511v-18.086c0-.108.007-.215.016-.32Zm-29.751,1.609a2.783,2.783,0,0,0-2.783,2.783v11.937a2.783,2.783,0,0,0,5.565,0v-11.937A2.783,2.783,0,0,0,948.609,1610.035Zm34.235,0a2.783,2.783,0,0,0-2.783,2.783v11.937a2.783,2.783,0,0,0,5.565,0v-11.937A2.783,2.783,0,0,0,982.844,1610.035Zm-4.238-13.293-2.563,4.437a9.913,9.913,0,0,1,2.231,6.059h-25.1a9.921,9.921,0,0,1,2.231-6.061l-2.562-4.435a1.5,1.5,0,0,1,2.6-1.5l2.194,3.8a13.467,13.467,0,0,1,6.689-2.514h2.795a13.471,13.471,0,0,1,6.69,2.515l2.2-3.8a1.5,1.5,0,0,1,2.6,1.5Zm-16.618,5.509a1.439,1.439,0,0,0-2.878.009v.007a1.439,1.439,0,0,0,2.878-.007Zm10.746,0a1.44,1.44,0,0,0-2.88.009v.007a1.44,1.44,0,0,0,2.88-.007Z"/><path class="f" d="M930.885,1594a41.45,41.45,0,0,0,0,46.777,41.445,41.445,0,0,0,0-46.777Z"/></g></svg>