<svg xmlns="http://www.w3.org/2000/svg" xmlns:xlink="http://www.w3.org/1999/xlink" width="251.795" height="182.854" viewBox="0 0 251.795 182.854"><defs><style>.a{fill:none;}.b{fill:#7d959a;}.c{fill:#0a3f5c;}.d{fill:#ededed;}.e{fill:#cecece;opacity:0.87;isolation:isolate;}.f{fill:#cfd8db;}.g{fill:#eceff0;}.h{fill:#dbdbdb;}.i{fill:#f2f2f2;}.j{fill:#fff;}.k{fill:#dcd7d2;}.l{fill:#9dc6e8;}.m{clip-path:url(#a);}.n{fill:#f9a53d;}.o{fill:#c7cfe2;}.p{fill:#50667e;}.q{fill:#323d52;}.r{fill:#afb9d2;}</style><clipPath id="a"><rect class="a" width="36.938" height="38.723"/></clipPath></defs><g transform="translate(-4370.671 -5064.824)"><g transform="translate(4542.286 5064.824)"><path class="b" d="M4639.14,5138.7a12.42,12.42,0,0,0,4.923-1.631l2.286,2.513,3.4-3.1-2.211-2.426a12.463,12.463,0,0,0,2.34-4.712l3.3.153.214-4.59-3.224-.149a12.451,12.451,0,0,0-1.726-4.994l2.436-2.223-3.093-3.4-2.408,2.195a12.4,12.4,0,0,0-4.733-2.255l.156-3.373-4.59-.213-.156,3.357a12.413,12.413,0,0,0-4.857,1.737l-2.353-2.583-3.4,3.1,2.336,2.565a12.46,12.46,0,0,0-2.193,4.585l-3.578-.165-.213,4.589,3.523.165a12.487,12.487,0,0,0,1.637,4.785l-2.65,2.419,3.1,3.395,2.582-2.354a12.5,12.5,0,0,0,4.563,2.28l-.161,3.511,4.589.213.154-3.4Zm-1.68-7.787a4.66,4.66,0,1,1,4.935-4.37,4.66,4.66,0,0,1-4.935,4.37Z" transform="translate(-4608.686 -5076.901)"/><path class="b" d="M4682.5,5104.741a19.545,19.545,0,0,0,3.995-3.738l4.258,2.614,2.4-3.917-4.223-2.588a19.78,19.78,0,0,0,1.652-5.273l4.866.13.121-4.591-4.775-.129a19.584,19.584,0,0,0-1.2-5.494l4.095-2.221-2.19-4.037-4,2.172a19.63,19.63,0,0,0-3.861-4.248l2.319-3.778-3.916-2.4-2.275,3.708a19.884,19.884,0,0,0-5.571-1.747l.113-4.258-4.593-.12-.112,4.2a19.535,19.535,0,0,0-5.739,1.346l-1.991-3.672-4.04,2.191,1.991,3.671a19.521,19.521,0,0,0-4.259,4.077l-3.584-2.2-2.4,3.916,3.632,2.229a19.68,19.68,0,0,0-1.576,5.618l-4.352-.116-.122,4.592,4.435.119a19.458,19.458,0,0,0,1.451,5.553l-4.006,2.172,2.189,4.038,4.1-2.221a19.556,19.556,0,0,0,3.951,4l-2.5,4.072,3.919,2.4,2.542-4.148a19.926,19.926,0,0,0,5.319,1.494l-.133,4.95,4.593.121.133-4.993a19.51,19.51,0,0,0,5.312-1.31l2.4,4.425,4.041-2.19-2.4-4.425Zm-7.965-9.6a7.2,7.2,0,1,1,2.9-9.761,7.2,7.2,0,0,1-2.9,9.761Z" transform="translate(-4615.389 -5064.824)"/><path class="b" d="M4607.622,5103.942l-3.651,1.741,2.213,4.646,3.829-1.824a8.171,8.171,0,0,0,1.833,1.364,8.3,8.3,0,0,0,2.382.858l.559,4.285,5.1-.666-.554-4.247a8.3,8.3,0,0,0,3.618-3.247l4.05.756.943-5.061-3.82-.711a8.349,8.349,0,0,0-2.152-4.9l1.764-3.236-4.525-2.461-1.713,3.149a8.38,8.38,0,0,0-5.5.762l-2.5-2.64-3.737,3.539,2.625,2.771a8.29,8.29,0,0,0-.767,5.121Zm6.721,1.343a3.112,3.112,0,1,1,4.218-1.245,3.11,3.11,0,0,1-4.218,1.245Z" transform="translate(-4603.97 -5071.809)"/></g><path class="c" d="M4470.945,5092.246a23.571,23.571,0,0,0-45.6-2.139,15.581,15.581,0,0,0-15.283,13.428,15.249,15.249,0,0,0,.851,30.475h55.693a21.107,21.107,0,0,0,4.339-41.764Z" transform="translate(-6.605 -2.289)"/><path class="d" d="M4559.27,5286.528h-61.636l.921-2.989c5.122-16.607,11.438-36.425,7.664-54.11l-.275-1.291h45.016l-.4,1.687c-4.1,17.285,2.193,37.077,7.565,53.252l1.146,3.45Z" transform="translate(-33.569 -43.18)"/><path class="e" d="M4554.644,5270.868a104.946,104.946,0,0,1-2.667-14.977h-42.629a114.464,114.464,0,0,1-2.669,14.977Z" transform="translate(-35.96 -50.518)"/><path class="f" d="M4590.546,5221.083a9.7,9.7,0,0,1-9.694,9.7h-139.9a9.7,9.7,0,0,1-9.7-9.7v-83.107a9.7,9.7,0,0,1,9.7-9.7h139.9a9.7,9.7,0,0,1,9.694,9.7v83.107Z" transform="translate(-16.02 -16.778)"/><rect class="g" width="140.489" height="84.349" transform="translate(4424.639 5120.578)"/><path class="f" d="M4562.264,5308.078a2.77,2.77,0,0,1-2.77,2.772h-65.447a2.771,2.771,0,0,1-2.77-2.772v-1.558a2.77,2.77,0,0,1,2.77-2.77h65.447a2.77,2.77,0,0,1,2.77,2.77v1.558Z" transform="translate(-31.888 -63.172)"/><path class="h" d="M4538.614,5258.246a2.539,2.539,0,1,1-2.538,2.538A2.538,2.538,0,0,1,4538.614,5258.246Z" transform="translate(-43.733 -51.141)"/><path class="i" d="M4418.855,5085.427a11.323,11.323,0,0,0-4.8,1.069,13.637,13.637,0,0,0-26.822.452,6.572,6.572,0,0,0-8.329,6.35c0,.115.012.227.017.341a7.318,7.318,0,1,0-.933,14.577h40.863a11.394,11.394,0,0,0,0-22.789Z" transform="translate(0 -2.834)"/><g transform="translate(4405.788 5124.189)"><g transform="translate(43.934 4.286)"><path class="j" d="M4565.746,5161.739v-10.385h-77.224a10.393,10.393,0,0,0-10.386,10.385V5227.8h87.609Z" transform="translate(-4478.136 -5151.354)"/></g><g transform="translate(51.684 63.325)"><rect class="k" width="50.919" height="2.068" transform="translate(21.19)"/><rect class="k" width="17.215" height="2.068"/><rect class="k" width="72.109" height="2.069" transform="translate(0 5.172)"/><rect class="k" width="36.055" height="2.069" transform="translate(0 10.343)"/></g><g transform="translate(85.634 17.915)"><path class="l" d="M4534.824,5169.881h36.938V5208.6h-36.938Z" transform="translate(-4534.824 -5169.881)"/><g transform="translate(0 0)"><g class="m"><path class="n" d="M4533.453,5198.258l9.347-8.013,8.456,5.342,11.572-16.022,8.454,9.791,3.117,25.367-41.391-.444Z" transform="translate(-4534.344 -5172.442)"/></g></g></g><g transform="translate(53.554 18.226)"><rect class="k" width="28.963" height="2.07"/><rect class="k" width="28.963" height="2.07" transform="translate(0 5.171)"/><rect class="k" width="14.484" height="2.07" transform="translate(0 10.344)"/></g><g transform="translate(0 0)"><path class="j" d="M4485.906,5148.148c13.751,0,24.9,11.455,24.9,25.587s-11.15,25.588-24.9,25.588-24.9-11.457-24.9-25.588S4472.154,5148.148,4485.906,5148.148Z" transform="translate(-4429.672 -5146.22)"/><rect class="o" width="13.341" height="5.251" transform="translate(27.169 53.298) rotate(-45.001)"/><path class="o" d="M4485.452,5145.526a27.577,27.577,0,1,0,27.577,27.577A27.577,27.577,0,0,0,4485.452,5145.526Zm0,50.8a23.222,23.222,0,1,1,23.223-23.223A23.222,23.222,0,0,1,4485.452,5196.326Z" transform="translate(-4428.845 -5145.526)"/><path class="p" d="M4422.34,5247.12l-3.079-3.079a2.9,2.9,0,0,1,0-4.106l24.5-24.5a2.9,2.9,0,0,1,4.106,0l3.079,3.079a2.9,2.9,0,0,1,0,4.1l-24.5,24.5A2.9,2.9,0,0,1,4422.34,5247.12Z" transform="translate(-4418.41 -5163.786)"/><path class="q" d="M4446.662,5218.34a2.9,2.9,0,0,1,4.105,0l.18.178h0l-3.079-3.079a2.9,2.9,0,0,0-4.106,0l-24.5,24.5a2.9,2.9,0,0,0,0,4.106l2.9,2.9a2.9,2.9,0,0,1,0-4.1" transform="translate(-4418.41 -5163.786)"/><path class="o" d="M4457.624,5224.409l1.789-1.789a2.9,2.9,0,0,0,0-4.1l-3.078-3.079a2.9,2.9,0,0,0-4.106,0l-1.789,1.786Z" transform="translate(-4426.878 -5163.786)"/><path class="r" d="M4453.341,5220.128l1.788-1.789a2.9,2.9,0,0,1,4.107,0l.179.178h0l-3.078-3.079a2.9,2.9,0,0,0-4.106,0l-1.789,1.786Z" transform="translate(-4426.878 -5163.786)"/><path class="a" d="M4485.906,5148.148c13.751,0,24.9,11.455,24.9,25.587s-11.15,25.588-24.9,25.588-24.9-11.457-24.9-25.588S4472.154,5148.148,4485.906,5148.148Z" transform="translate(-4429.672 -5146.22)"/><g transform="translate(38.625 20.261)"><path class="k" d="M4478.867,5178.229l-6.211,3.75,6.211,3.73-1,1.466-6.953-4.327v-1.757l7.006-4.327Z" transform="translate(-4470.918 -5174.046)"/><path class="k" d="M4486.065,5178.287a3.815,3.815,0,0,1,2.97-1.432c1.793,0,2.662,1.05,2.662,2.843v6.972h-2.029v-6.665c0-1.14-.416-1.593-1.376-1.593a2.967,2.967,0,0,0-2.227,1.413v6.845h-2.028v-13.382l2.028-.218v5.217Z" transform="translate(-4474.387 -5173.07)"/><path class="k" d="M4504.894,5185.474v1.594h-7.552v-1.594h3.043v-8.82l-2.753,1.684-.868-1.411,3.838-2.354h1.793v10.9Z" transform="translate(-4477.751 -5173.467)"/><path class="k" d="M4517.635,5181.091v1.757l-6.954,4.329-1-1.449,6.194-3.749-6.194-3.712.941-1.5Z" transform="translate(-4481.168 -5174.047)"/></g></g></g></g></svg>