<svg xmlns="http://www.w3.org/2000/svg" width="137.959" height="60.999" viewBox="0 0 137.959 60.999"><defs><style>.a{fill:#fff;}.a,.b{fill-rule:evenodd;}.b{fill:#d70b1a;}</style></defs><g transform="translate(-394.84 -184.345)"><path class="a" d="M440.054,192.368l-32.545-8.023-.1.388L394.84,245.344l42.3-6.272,82.39,6.23L532.8,184.345Z"/><path class="b" d="M528.492,202h1.271a.693.693,0,0,1,.371.076.321.321,0,0,1,.2.151.389.389,0,0,1,.092.227l.025.244v.337l.033.227.025.228.025.177h.64v-.093l-.117-.084-.051-.118-.017-.185-.042-.691-.043-.337-.1-.194-.143-.117-.169-.084.194-.126.177-.185a1.2,1.2,0,0,0,.118-.252,1.218,1.218,0,0,0,.051-.363,1.239,1.239,0,0,0-.068-.429,1,1,0,0,0-.193-.312l-.287-.177-.353-.1a1.352,1.352,0,0,0-.371-.025h-1.8v3.872h.53Zm0-1.768h1.313l.16.017.185.043.177.109a.517.517,0,0,1,.117.177.709.709,0,0,1,.051.312,1.009,1.009,0,0,1-.067.345.624.624,0,0,1-.185.2l-.261.092-.278.026h-1.212Zm.841,4.184-.479-.034-.455-.127-.413-.21-.378-.253-.328-.336-.269-.371-.194-.4-.126-.462-.05-.488.05-.48.126-.472.194-.4.269-.378.328-.329.378-.269.413-.194.455-.126.479-.051.481.051.454.126.43.194.371.269.319.329.269.378.21.4.126.472.034.48-.034.488-.126.462-.21.4-.269.371-.319.336-.371.253-.43.21-.454.127Zm-.008.547h.017l.564-.058.547-.152.513-.244.455-.32.387-.379.32-.437.244-.523.143-.53.059-.581v-.018l-.059-.58-.143-.547-.244-.5-.32-.455-.387-.387-.455-.311-.513-.236-.547-.161-.564-.059h-.017l-.564.059-.556.161-.5.236-.447.311-.379.387-.32.455-.235.5-.16.547-.051.58v.018l.051.581.16.53.235.523.32.438.379.379.447.32.5.244.556.152Zm-81.413,16.677A3.937,3.937,0,0,0,447.87,216a1.245,1.245,0,0,0-.329-.336,7.994,7.994,0,0,0-4.184-1.726l-.9-.05h-1.675l-11.129.05.042,3.157,2.214.059,1.044,12.51,4.714-.05.514-5.261,1.339.042,1.263-.042a17.991,17.991,0,0,0,3.123-.505,7.6,7.6,0,0,0,3.965-2.139Zm-5.043-2.088a2.47,2.47,0,0,1-2.087,1.331,7.651,7.651,0,0,1-1.1.092l-1.111-.034.387-3.216a11.655,11.655,0,0,1,1.827-.059,2.864,2.864,0,0,1,1.92.766C443.029,218.869,443.088,219.147,442.869,219.55Zm40.248,1.962a4.378,4.378,0,0,0-1.532-7.105,6.081,6.081,0,0,0-2.483-.673l-1.684-.093h-1.347l-10.833.194h-.345l.1,3.073h.245l1.952-.051.784,12.611,4.933-.143.682-5.607,2.483,3.014,2.063,2.493h6.246l-3.224-6.618A4.408,4.408,0,0,0,483.117,221.512Zm-5.994-1.238a5.756,5.756,0,0,1-1.053.278,11.289,11.289,0,0,1-2.205.092l.421-3.258a3,3,0,0,1,.968-.05,2.418,2.418,0,0,1,.817.05,3.365,3.365,0,0,1,1.582.522C478.664,218.768,478.184,219.786,477.124,220.275Zm42.386-6.819h-15.3l.059,15.633h12.653l.917-5.043-6.962,1.44-.336-2.055,5.472-1.793-.573-2.382-5.328.572-.279-3.064,9.067.387Zm-58.246.345-4.807.034-2.4.051-6.187,13.133-1.238,2.55,1.238-.05,3.7-.051.968-1.685,3.923-.041,3.687-.043.572,1.625h4.858l-.336-1.111Zm-4.807,10.3h-2.071l2.071-4.318.53-1.119,1.524,5.438Zm38.783-10.548-7.476.084.682,15.583,12.181-.1,1.1-5.6-7.956,1.626Zm-20.8-14.918-58.069,10.927,14.487,32.571h87.079l14.53-32.621Z" transform="translate(-8.817 -5.792)"/></g></svg>