<svg xmlns="http://www.w3.org/2000/svg" width="213.165" height="63.006" viewBox="0 0 213.165 63.006"><defs><style>.a{fill:#19e0ba;}.b{fill:#233345;stroke:#233345;stroke-miterlimit:10;}</style></defs><g transform="translate(-27.626 -180.383)"><path class="a" d="M87.032,192.219a17.663,17.663,0,0,0-9.166-9.939,23.971,23.971,0,0,0-15.118-1.19,25.284,25.284,0,0,0-18.867,18.927c-.238,1.19-.476,2.321-.714,3.512l-3.035,16.308a20.046,20.046,0,0,0-9.047,6.309c-2.619,3.393-4.523,8.868-2.8,13.034a6.9,6.9,0,0,0,9.106,3.631c.179-.059.357-.179.536-.238A7.952,7.952,0,0,0,42.1,236.56c.655-3.69,1.369-7.023,2.024-10.654a15.044,15.044,0,0,0-5.476,2.143c-.357,1.786-.655,3.214-1.012,5a22.909,22.909,0,0,1-.774,3.928,2.451,2.451,0,0,1-2.44,1.607,1.459,1.459,0,0,1-.952-.357,2.383,2.383,0,0,1-.714-1.726v-1.071c0-.357.059-.655.059-.952,0-.059.06-.238.06-.357a7.4,7.4,0,0,1,.238-.952,11.866,11.866,0,0,1,4.583-6.547c.417-.3.893-.6,1.309-.833h0a17.39,17.39,0,0,1,5.416-1.964h.059c3.69-.714,7.559-.536,11.368-.655A56.883,56.883,0,0,0,69.236,221.2c5.535-1.547,11.011-4.226,14.582-8.69a21.04,21.04,0,0,0,3.214-20.3ZM82.27,205.075h0a14.17,14.17,0,0,1-4.4,6.309c-3.69,3.214-8.809,4.88-13.987,5.833-.6.119-1.25.238-1.845.3l-.774.119-.238.059-.3.06c-1.012.119-1.964.238-2.976.3-1.25.059-2.44.119-3.69.119a83.638,83.638,0,0,0-8.63.3l2.381-12.737.179-.952c.714-3.274,1.309-6.547,3.036-9.523a20.7,20.7,0,0,1,9.88-8.571c8.333-3.333,19.7-.952,21.784,8.571a17.792,17.792,0,0,1-.417,9.82Z" transform="translate(0 0)"/><path class="b" d="M565.107,330.366a11.133,11.133,0,0,0-8.214,3.333,10.756,10.756,0,0,0-3.392,7.975v19.7a1.607,1.607,0,0,0,3.214,0V349.53l.655.6a11.884,11.884,0,0,0,16.01-.417,11.1,11.1,0,0,0,.3-15.713l-.3-.3a11.362,11.362,0,0,0-8.273-3.333Zm5.952,17.082h0a8.553,8.553,0,0,1-11.9,0,7.94,7.94,0,0,1-.238-11.308l.238-.238a8.553,8.553,0,0,1,11.9,0,7.94,7.94,0,0,1,.238,11.308Z" transform="translate(-453.494 -129.338)"/><path class="b" d="M942.4,262.53a1.607,1.607,0,0,0-2.738,1.131v19.105a10.663,10.663,0,0,0,3.392,7.975,11.749,11.749,0,0,0,16.427,0,11.1,11.1,0,0,0,.3-15.713l-.3-.3a11.844,11.844,0,0,0-15.951-.476l-.655.536V263.6a1.491,1.491,0,0,0-.476-1.071Zm2.976,14.4h0a8.553,8.553,0,0,1,11.9,0,7.94,7.94,0,0,1,.238,11.308l-.238.238a8.553,8.553,0,0,1-11.9,0,7.94,7.94,0,0,1-.238-11.308Z" transform="translate(-786.507 -70.43)"/><path class="b" d="M1140.022,262.53a1.607,1.607,0,0,0-2.738,1.131v19.105a10.663,10.663,0,0,0,3.393,7.975,11.749,11.749,0,0,0,16.427,0,11.1,11.1,0,0,0,.3-15.713l-.3-.3a11.844,11.844,0,0,0-15.951-.476l-.655.536V263.6a1.49,1.49,0,0,0-.476-1.071Zm2.976,14.4h0a8.553,8.553,0,0,1,11.9,0,7.94,7.94,0,0,1,.238,11.308l-.238.238a8.553,8.553,0,0,1-11.9,0,7.94,7.94,0,0,1-.238-11.308Z" transform="translate(-956.928 -70.43)"/><path class="b" d="M1343.878,262.054a1.626,1.626,0,0,0-1.607,1.607v28.866a1.625,1.625,0,0,0,1.607,1.607,1.6,1.6,0,0,0,1.607-1.607V263.6a1.626,1.626,0,0,0-.476-1.131A1.747,1.747,0,0,0,1343.878,262.054Z" transform="translate(-1133.703 -70.43)"/><path class="b" d="M763.638,333.465a11.863,11.863,0,0,0-16.427,0,11.156,11.156,0,0,0-.3,15.713l.3.3a11.771,11.771,0,0,0,8.452,3.333,17.055,17.055,0,0,0,4.583-.655,13.776,13.776,0,0,0,3.869-1.9,1.507,1.507,0,0,0,.6-1.071,1.526,1.526,0,0,0-.357-1.131,1.576,1.576,0,0,0-1.131-.536,1.5,1.5,0,0,0-1.19.357h0a10.877,10.877,0,0,1-2.916,1.369,13.786,13.786,0,0,1-3.452.476,8.387,8.387,0,0,1-6.13-2.381,8.3,8.3,0,0,1-1.9-2.857v-.059a7.186,7.186,0,0,1-.357-4.464h0l.119-.536c.06-.238.179-.536.238-.774l.119-.238a8.3,8.3,0,0,1,1.845-2.678,8.553,8.553,0,0,1,11.9,0,7.778,7.778,0,0,1,2.2,3.75l.119.476H753.222a1.58,1.58,0,0,0-.179,3.154h12.439a1.626,1.626,0,0,0,1.607-1.607A11.313,11.313,0,0,0,763.638,333.465Z" transform="translate(-617.624 -129.164)"/><path class="b" d="M1423.1,333.465a11.863,11.863,0,0,0-16.427,0,11.156,11.156,0,0,0-.3,15.713l.3.3a11.771,11.771,0,0,0,8.452,3.333,17.055,17.055,0,0,0,4.583-.655,14.116,14.116,0,0,0,3.928-1.9,1.508,1.508,0,0,0,.6-1.071,1.526,1.526,0,0,0-.357-1.131,1.575,1.575,0,0,0-1.131-.536,1.5,1.5,0,0,0-1.19.357h0a10.081,10.081,0,0,1-2.916,1.369,13.783,13.783,0,0,1-3.452.476,8.387,8.387,0,0,1-6.13-2.381,8.3,8.3,0,0,1-1.9-2.857v-.059a7.185,7.185,0,0,1-.357-4.464h0l.119-.536c.06-.238.178-.536.238-.774l.119-.238a8.291,8.291,0,0,1,1.845-2.678,8.553,8.553,0,0,1,11.9,0,7.776,7.776,0,0,1,2.2,3.75l.119.476h-10.594a1.58,1.58,0,0,0-.178,3.154H1425a1.626,1.626,0,0,0,1.607-1.607A11.621,11.621,0,0,0,1423.1,333.465Z" transform="translate(-1186.318 -129.164)"/></g></svg>