<svg xmlns="http://www.w3.org/2000/svg" width="132.376" height="112.819" viewBox="0 0 132.376 112.819"><path d="M1070.118,309.461V262.516c0-15.643.779-17.461,2.347-27.437s4.7-17.8,9.389-23.473,11.343-9.582,19.953-11.737,19.951-3.227,34.035-3.227v21.712q-13.506,0-21.125,2.935a16.718,16.718,0,0,0-10.27,10.856c-1.76,5.281-2.64,8.01-2.64,18.179V254.3h21.713v55.161Zm66.066,0V262.516c0-15.643.779-17.461,2.346-27.437s4.695-17.8,9.39-23.473,11.342-9.582,19.951-11.737,20.145-3.227,34.623-3.227v21.712q-14.084,0-21.713,2.935a16.718,16.718,0,0,0-10.269,10.856c-1.76,5.281-2.641,8.01-2.641,18.179V254.3h22.3v55.161Z" transform="translate(-1070.118 -196.642)"/></svg>