<svg xmlns="http://www.w3.org/2000/svg" width="15.034" height="15.034" viewBox="0 0 15.034 15.034"><defs><style>.a{fill:#fff;}</style></defs><path class="a" d="M14.255,11.239a7.305,7.305,0,0,0,.158-1.47A6.888,6.888,0,0,0,7.522,2.878a7.1,7.1,0,0,0-1.47.158A3.754,3.754,0,0,0,.782,8.3a7.305,7.305,0,0,0-.158,1.47A6.888,6.888,0,0,0,7.515,16.66a7.1,7.1,0,0,0,1.47-.158,3.755,3.755,0,0,0,6.048-2.977,3.7,3.7,0,0,0-.779-2.286ZM7.723,14.31c-2.2,0-4.045-.98-4.045-2.182a.943.943,0,0,1,.99-1.027c1.047,0,1.145,1.507,2.957,1.507.863,0,1.42-.383,1.42-.883,0-.628-.537-.725-1.41-.94-2.1-.517-3.954-.738-3.954-2.927,0-1.987,1.967-2.722,3.662-2.722,1.849,0,3.719.735,3.719,1.86a1.011,1.011,0,0,1-1.017,1.067c-.95,0-.98-1.124-2.517-1.124-.863,0-1.41.235-1.41.755,0,.665.7.732,2.319,1.108,1.39.312,3.044.9,3.044,2.6,0,1.984-1.917,2.9-3.759,2.9Z" transform="translate(0 -2.25)"/></svg>