<svg xmlns="http://www.w3.org/2000/svg" width="92.556" height="100.819" viewBox="0 0 92.556 100.819"><defs><style>.a{fill:none;stroke:#6dacde;stroke-linecap:round;stroke-linejoin:round;stroke-width:2px;}</style></defs><g transform="translate(-8030.98 -3208.26)"><path class="a" d="M8049.4,3227.907v-10.592a8.056,8.056,0,0,1,8.056-8.055h36.981a8.056,8.056,0,0,1,8.056,8.055v45.856" transform="translate(9.574 0)"/><path class="a" d="M8076.306,3278.2H8057.46a8.057,8.057,0,0,1-8.056-8.057v-15.717" transform="translate(9.574 24.812)"/><line class="a" x2="18.078" transform="translate(8058.979 3288.994)"/><line class="a" x2="53.092" transform="translate(8058.979 3220.463)"/><g transform="translate(8082.563 3257.966)"><path class="a" d="M8084.154,3259.139v-5.626a3.348,3.348,0,1,0-6.7,0" transform="translate(-8057.576 -3235.492)"/><path class="a" d="M8088.478,3260.036v-5.626a3.349,3.349,0,1,0-6.7,0" transform="translate(-8055.202 -3235.002)"/><path class="a" d="M8084.514,3263.225v-19.179a3.348,3.348,0,0,0-3.348-3.351h0a3.35,3.35,0,0,0-3.349,3.351v24.715l-6.705-8.619s-2.1-2.871-4.974-.956-.769,4.788-.769,4.788,8.814,20.683,15.967,24.584c10.234,5.581,23.263-.612,23.263-8.858l0-16.241a3.348,3.348,0,0,0-6.7,0" transform="translate(-8064.626 -3240.695)"/></g><g transform="translate(8079.463 3213.611)"><path class="a" d="M8064.571,3213.04a.972.972,0,0,1-.971.975h0a.974.974,0,0,1-.975-.975h0a.973.973,0,0,1,.975-.971h0a.972.972,0,0,1,.971.971Z" transform="translate(-8062.625 -3212.068)"/><path class="a" d="M8067.854,3213.04a.971.971,0,0,1-.972.975h0a.973.973,0,0,1-.972-.975h0a.973.973,0,0,1,.972-.971h0a.971.971,0,0,1,.972.971Z" transform="translate(-8060.821 -3212.068)"/><path class="a" d="M8071.14,3213.04a.973.973,0,0,1-.972.975h0a.977.977,0,0,1-.976-.975h0a.977.977,0,0,1,.976-.971h0a.973.973,0,0,1,.972.971Z" transform="translate(-8059.017 -3212.068)"/></g><g transform="translate(8031.98 3234.847)"><path class="a" d="M8057.254,3232.729a4.4,4.4,0,0,0-6.229,0l-1.354,1.356-1.354-1.356a4.4,4.4,0,0,0-6.228,6.227l2.241,2.239,3.168,3.171c1.7,1.422,2.744,1.463,4.347,0l3.169-3.171,2.239-2.239A4.4,4.4,0,0,0,8057.254,3232.729Z" transform="translate(-8027.134 -3222.661)"/><path class="a" d="M8071.958,3225.774h-34.879a5.1,5.1,0,0,0-5.1,5.1v20.613a5.1,5.1,0,0,0,5.1,5.1h9.773l1.08,1.52,3.907,5.5c2.095,2.468,3.383,2.538,5.357,0l3.906-5.5,1.082-1.52h9.772a5.1,5.1,0,0,0,5.1-5.1v-20.613A5.1,5.1,0,0,0,8071.958,3225.774Z" transform="translate(-8031.979 -3225.774)"/></g></g></svg>