<svg xmlns="http://www.w3.org/2000/svg" width="95.334" height="100.816" viewBox="0 0 95.334 100.816"><defs><style>.a{fill:none;stroke:#6dacde;stroke-linecap:round;stroke-linejoin:round;stroke-width:2px;}</style></defs><g transform="translate(-7927.77 -3210.508)"><path class="a" d="M8008.5,3224.955h9.128a4.475,4.475,0,0,1,4.474,4.471v56.2a4.472,4.472,0,0,1-4.474,4.471h-84.385a4.471,4.471,0,0,1-4.475-4.471v-56.2a4.474,4.474,0,0,1,4.475-4.471h8.713" transform="translate(0 8.938)"/><line class="a" x2="93.334" transform="translate(7928.77 3285.429)"/><g transform="translate(7967.178 3301.878)"><line class="a" y2="8.446"/><line class="a" y2="8.446" transform="translate(16.517)"/></g><line class="a" x2="31.521" transform="translate(7959.676 3310.324)"/><path class="a" d="M7959.077,3260.441a1.854,1.854,0,1,1-1.851-1.857A1.849,1.849,0,0,1,7959.077,3260.441Z" transform="translate(18.211 31.962)"/><path class="a" d="M7965.93,3248.633l-19.718,7.416a3.925,3.925,0,0,1-5.105-2.173l-3.1-7.707a3.919,3.919,0,0,1,2.172-5.1l20.03-8.095,9.683-12.158,11.29,29.463Z" transform="translate(6.13 6.104)"/><line class="a" x2="3.59" y2="9.858" transform="translate(7967.579 3241.754)"/><line class="a" x2="2.751" y2="6.597" transform="translate(7941.217 3254.507)"/><path class="a" d="M7944.465,3244.455l4.109,10.509a2.138,2.138,0,0,0,2.771,1.208l3.35-1.309a2.135,2.135,0,0,0,1.208-2.768l-4.11-10.509" transform="translate(10.745 20.324)"/><g transform="translate(7982.78 3211.9)"><line class="a" x1="13.102" y2="4.61" transform="translate(4.551 22.345)"/><line class="a" y1="5.643" x2="6.373" transform="translate(2.376 15.136)"/><line class="a" y1="14.033" x2="9.785"/><line class="a" x2="8.499" y2="0.405" transform="translate(6.725 33.13)"/><line class="a" x2="16.415" y2="4.807" transform="translate(9.101 39.876)"/></g></g></svg>