<svg xmlns="http://www.w3.org/2000/svg" width="84.607" height="86.385" viewBox="0 0 84.607 86.385"><defs><style>.a{fill:none;stroke:#6dacde;stroke-linecap:round;stroke-linejoin:round;stroke-width:2px;}</style></defs><g transform="translate(-8141.335 -3095.867)"><path class="a" d="M8176.922,3106.582l11.342,6.544-11.342,6.547Z" transform="translate(16.107 4.524)"/><path class="a" d="M8167.549,3102.264v-5.4h35.7v42.2h-26.186" transform="translate(11.741)"/><path class="a" d="M8147.731,3140.18h-5.4v-35.7h42.2v26.183" transform="translate(0 3.545)"/><path class="a" d="M8184.825,3162.452v5.4h-35.7v-42.2h25.341" transform="translate(3.162 13.404)"/><path class="a" d="M8206.707,3122.469h5.4v35.7h-42.2v-26.183" transform="translate(12.839 11.923)"/><path class="a" d="M8159.9,3151.031v-19.705a12.555,12.555,0,0,0,4.641,4.871,10.672,10.672,0,0,1,4.364,4.831" transform="translate(8.179 16.048)"/><path class="a" d="M8158.493,3142.141a3.853,3.853,0,1,0,3.852,3.853" transform="translate(5.732 21.085)"/><path class="a" d="M8173.481,3146.572l10.714-10.707,1.7,1.394" transform="translate(14.506 18.162)"/><path class="a" d="M8181.95,3145.711l13.058-13.5,3.9,3.2" transform="translate(18.45 16.461)"/><path class="a" d="M8187.077,3131.945a2.563,2.563,0,1,1-2.563-2.562A2.564,2.564,0,0,1,8187.077,3131.945Z" transform="translate(18.45 15.143)"/><line class="a" x2="23.432" transform="translate(8152.286 3120.659)"/><line class="a" x2="23.432" transform="translate(8152.286 3126.643)"/><line class="a" x2="17.065" transform="translate(8152.286 3132.626)"/><line class="a" x2="2.151" transform="translate(8152.286 3115.547)"/><line class="a" x2="2.151" transform="translate(8161.268 3115.547)"/></g></svg>