<svg xmlns="http://www.w3.org/2000/svg" width="113" height="85.815" viewBox="0 0 113 85.815"><defs><style>.a{fill:none;stroke:#6dacde;stroke-linecap:round;stroke-linejoin:round;stroke-width:2px;}</style></defs><g transform="translate(-8136.403 -3210.778)"><path class="a" d="M8195.773,3221.28h8.206a4.385,4.385,0,0,1,4.387,4.385v52.228" transform="translate(32.658 5.316)"/><path class="a" d="M8142.136,3277.893l.118-52.228a4.385,4.385,0,0,1,4.383-4.385h24.558" transform="translate(2.649 5.316)"/><path class="a" d="M8137.522,3262.671a4.386,4.386,0,0,1,4.385-4.386h102.11a4.385,4.385,0,0,1,4.386,4.386v2.519a4.383,4.383,0,0,1-4.386,4.385h-102.23a4.382,4.382,0,0,1-4.384-4.382Z" transform="translate(0 26.019)"/><path class="a" d="M8165.123,3245.168v-33.39h41.993v54.936h-30.365" transform="translate(15.508 0)"/><path class="a" d="M8169.538,3231.927l9.9-9.046,6.508,5.631,12.435-11.263" transform="translate(17.979 3.061)"/><g transform="translate(8152.614 3248.725)"><path class="a" d="M8156.125,3235.47v13.988h13.989A13.985,13.985,0,0,0,8156.125,3235.47Z" transform="translate(-8142.139 -3235.47)"/><path class="a" d="M8161.144,3235.47a13.987,13.987,0,1,0,13.988,13.988" transform="translate(-8147.157 -3235.47)"/></g><line class="a" x2="25.725" transform="translate(8187.516 3241.921)"/><line class="a" x2="12.072" transform="translate(8187.516 3248.491)"/><line class="a" x2="18.558" transform="translate(8187.516 3255.063)"/></g></svg>