<svg xmlns="http://www.w3.org/2000/svg" width="84.999" height="87" viewBox="0 0 84.999 87"><defs><style>.a{fill:none;stroke:#6dacde;stroke-linecap:round;stroke-linejoin:round;stroke-width:2px;}</style></defs><g transform="translate(-7927.181 -3095.861)"><line class="a" x2="29.276" y2="18.265" transform="translate(7955.006 3099.509)"/><line class="a" x1="30.301" y2="18.905" transform="translate(7954.054 3099.509)"/><path class="a" d="M7934.741,3151.64v-10.25h62.17v10.25" transform="translate(3.055 21.339)"/><path class="a" d="M.89,0H18.124a.891.891,0,0,1,.891.891V19.2a.889.889,0,0,1-.889.889H.89A.89.89,0,0,1,0,19.2V.89A.89.89,0,0,1,.89,0Z" transform="translate(7928.181 3132.433)"/><rect class="a" width="37.493" height="23.605" rx="0.911" transform="translate(7950.934 3096.861)"/><path class="a" d="M.89,0H18.121a.891.891,0,0,1,.891.891V19.2a.889.889,0,0,1-.889.889H.889A.889.889,0,0,1,0,19.2V.89A.89.89,0,0,1,.89,0Z" transform="translate(7960.174 3132.433)"/><path class="a" d="M.89,0H18.124a.891.891,0,0,1,.891.891V19.2a.889.889,0,0,1-.889.889H.89A.89.89,0,0,1,0,19.2V.89A.89.89,0,0,1,.89,0Z" transform="translate(7992.165 3132.433)"/><line class="a" y2="25.368" transform="translate(7969.273 3156.493)"/><line class="a" y2="6.458" transform="translate(7969.273 3122.886)"/><line class="a" x2="6.321" transform="translate(7950.896 3142.47)"/><line class="a" x2="6.324" transform="translate(7982.146 3142.47)"/></g></svg>