<svg xmlns="http://www.w3.org/2000/svg" width="292.747" height="218.938" viewBox="0 0 292.747 218.938"><defs><style>.a{fill:#d2d2d2;}.b,.d{fill:#93d636;}.b,.c{opacity:0.85;}.b,.c,.f,.j{isolation:isolate;}.c{fill:#afafaf;}.e{fill:#434343;}.f{fill:#527185;opacity:0.1;}.g{fill:#6c747a;}.h{fill:#565c69;}.i{fill:#454a54;}.j{fill:#b4c2cc;opacity:0.2;}.k{fill:#ffd1c1;}.l{fill:#d5a396;}.m{fill:#586273;}.n{fill:#464e5c;}.o{fill:#b7bfc7;}.p{fill:#dce4e8;}.q{fill:#fff;}</style></defs><g transform="translate(-1585.796 -5021.89)"><g transform="translate(1634.45 5103.66)"><path class="a" d="M1873.2,5254.931h-.264V5123.993h.264v130.938Zm-19.538,0h-.265V5123.993h.265v130.938Zm-19.67,0h-.264V5123.993H1834v130.938Zm-19.67,0h-.264V5123.993h.264v130.938Zm-19.538,0h-.264V5123.993h.264v130.938Zm-19.672,0h-.264V5123.993h.264v130.938Zm-19.669,0h-.264V5123.993h.264v130.938Zm-19.539,0h-.263V5123.993h.263v130.938Zm-19.669,0h-.264V5123.993h.264v130.938Zm-19.672,0h-.263V5123.993h.263v130.938Zm-19.537,0h-.264V5123.993h.264v130.938Zm-19.671,0h-.263V5123.993h.263v130.938Z" transform="translate(-1648.649 -5123.993)"/><path class="a" d="M1886.061,5254.931h-.264V5123.993h.264v130.938Zm-19.538,0h-.263V5123.993h.263v130.938Zm-19.67,0h-.264V5123.993h.264v130.938Zm-19.67,0h-.264V5123.993h.264v130.938Zm-19.538,0h-.264V5123.993h.264v130.938Zm-19.671,0h-.263V5123.993h.263v130.938Zm-19.67,0h-.263V5123.993h.263v130.938Zm-19.537,0h-.265V5123.993h.265v130.938Zm-19.671,0h-.264V5123.993h.264v130.938Zm-19.67,0h-.264V5123.993h.264v130.938Zm-19.539,0h-.263V5123.993h.263v130.938Zm-19.67,0h-.263V5123.993h.263v130.938Z" transform="translate(-1651.209 -5123.993)"/><path class="a" d="M1890.641,5260.589H1646.548v-.188h244.093Z" transform="translate(-1646.548 -5151.158)"/><path class="a" d="M1890.641,5233.5H1646.548v-.19h244.093Z" transform="translate(-1646.548 -5145.762)"/><path class="a" d="M1890.641,5206.6H1646.548v-.381h244.093Z" transform="translate(-1646.548 -5140.368)"/><path class="a" d="M1890.641,5174.11H1646.548v-.379h244.093v.379Zm0-21.7H1646.548v-.381h244.093v.381Z" transform="translate(-1646.548 -5129.577)"/><path class="a" d="M1890.641,5247.235H1646.548v-.381h244.093Z" transform="translate(-1646.548 -5148.46)"/><path class="a" d="M1890.641,5273.137H1646.548v-.381h244.093Z" transform="translate(-1646.548 -5153.618)"/><path class="a" d="M1890.641,5220.143H1646.548v-.381h244.093Z" transform="translate(-1646.548 -5143.064)"/><path class="a" d="M1890.641,5193.052H1646.548v-.381h244.093Z" transform="translate(-1646.548 -5137.67)"/><path class="a" d="M1890.641,5160.566H1646.548v-.381h244.093v.381Zm0-21.7H1646.548v-.38h244.093v.38Z" transform="translate(-1646.548 -5126.88)"/><path class="b" d="M1841.42,5197.965c-2.508,13.131-18.746,28.166-37.888,10.275-19.01-17.7-35.512-7.613-42.112,11.038s-22.31,20.746-57.822,2.666c-25.346-12.752-39.209,8.375-45.016,21.505H1880.1C1871.388,5138.585,1844.061,5184.261,1841.42,5197.965Z" transform="translate(-1648.944 -5134.398)"/><path class="c" d="M1806.965,5188.524c-1.188,5.9-5.413,52.718-26.138,27.976s-36.436-7.231-40.66,4.569-7.526,23.408-37.625,7.611c-22.441-11.8-37.623,4.758-43.959,14.085l200.264.38C1852.906,5153.315,1811.584,5165.307,1806.965,5188.524Z" transform="translate(-1648.944 -5133.523)"/></g><g transform="translate(1585.796 5050.843)"><rect class="d" width="20.554" height="35.281" transform="translate(10.88 39.953)"/><rect class="d" width="20.553" height="43.498" transform="translate(43.826 31.737)"/><rect class="d" width="20.553" height="55.742" transform="translate(76.771 19.654)"/><rect class="d" width="20.552" height="66.374" transform="translate(109.716 9.022)"/><rect class="d" width="20.554" height="75.396" transform="translate(142.661 0)"/><path class="e" d="M1587,5129.923l-1.208-1.45,31.13-19.815,32.795,8.7,32.341-23.843,33.851,8.215,49.872-32.221,1.21,1.29-50.628,32.865-33.851-8.217-32.342,23.844-32.795-8.7Z" transform="translate(-1585.796 -5060.326)"/><path class="e" d="M1624.332,5115.978a3.105,3.105,0,1,1-3.626,3.061A3.381,3.381,0,0,1,1624.332,5115.978Z" transform="translate(-1592.748 -5069.58)"/><path class="e" d="M1664.715,5126.036a3.105,3.105,0,1,1-3.628,3.061A3.379,3.379,0,0,1,1664.715,5126.036Z" transform="translate(-1600.79 -5071.583)"/><path class="e" d="M1704.721,5097.068a3.105,3.105,0,1,1-3.628,3.062A3.381,3.381,0,0,1,1704.721,5097.068Z" transform="translate(-1608.757 -5065.814)"/><path class="e" d="M1748.311,5106.121a3.105,3.105,0,1,1-3.628,3.061A3.383,3.383,0,0,1,1748.311,5106.121Z" transform="translate(-1617.438 -5067.617)"/></g><g transform="translate(1647.592 5021.89)"><path class="f" d="M1708.91,5032.037a36.014,36.014,0,1,1-36.015,36.015A36.014,36.014,0,0,1,1708.91,5032.037Z" transform="translate(-1664.937 -5023.911)"/><rect class="g" width="13.162" height="15.794" transform="translate(63.21 85.567) rotate(-32.91)"/><path class="h" d="M1730.2,5124.477c1.651,2.551,9.548,2.992,16.16-1.29s9.444-11.667,7.792-14.218c-.1-.153-4.713,5.846-10.715,9.705S1730.053,5124.252,1730.2,5124.477Z" transform="translate(-1676.348 -5039.23)"/><path class="i" d="M1670.039,5089.917a44.069,44.069,0,1,0,13.042-60.945A44.072,44.072,0,0,0,1670.039,5089.917Zm4.337-2.807a38.9,38.9,0,1,1,53.8,11.51A38.905,38.905,0,0,1,1674.376,5087.109Z" transform="translate(-1662.958 -5021.89)"/><path class="j" d="M1761.932,5135.537l-3.537,2.289-5.222-8.064a1.975,1.975,0,0,1,.585-2.731l.219-.143a1.975,1.975,0,0,1,2.731.583Z" transform="translate(-1680.86 -5042.737)"/><path class="k" d="M1806.3,5245.245a9.427,9.427,0,0,1-4.558-2.418l-13.049-12.482a9.409,9.409,0,0,1-1.947-2.658l-7.681-15.575a9.477,9.477,0,0,1,17-8.381l6.939,14.076,11.839,11.324a9.478,9.478,0,0,1-8.544,16.114Z" transform="translate(-1685.885 -5057.049)"/><rect class="k" width="31.588" height="70.547" transform="translate(82.457 120.115) rotate(-32.924)"/><g transform="translate(63.079 93.715)"><path class="k" d="M1811.689,5217.03a9.472,9.472,0,0,1-6.776-5.635l-20.632-49.661-12.756-3.164-9.638,6.239-4.377,3.909a9.476,9.476,0,1,1-12.625-14.135l4.924-4.4a9.529,9.529,0,0,1,1.162-.889l13.7-8.87a9.493,9.493,0,0,1,7.431-1.242l21.377,5.3a9.477,9.477,0,0,1,6.471,5.561l22.466,54.074a9.479,9.479,0,0,1-10.727,12.907Z" transform="translate(-1741.722 -5138.908)"/></g><path class="l" d="M1773,5177.341a9.457,9.457,0,0,1-6.754-5.581l-8.115-19.208a9.477,9.477,0,1,1,17.46-7.375l8.114,19.207A9.478,9.478,0,0,1,1773,5177.341Z" transform="translate(-1681.762 -5045.289)"/><path class="k" d="M1767.933,5207.724a9.478,9.478,0,0,1,2.8-18.708l17.517,1.493a9.477,9.477,0,0,1-1.611,18.886l-17.518-1.494A9.369,9.369,0,0,1,1767.933,5207.724Z" transform="translate(-1682.373 -5055.165)"/><path class="k" d="M1776.9,5219.151a9.478,9.478,0,0,1,2.5-18.73l18.7,1a9.477,9.477,0,0,1-1.009,18.928l-18.7-1A9.8,9.8,0,0,1,1776.9,5219.151Z" transform="translate(-1684.158 -5057.441)"/><g transform="translate(108.069 158.684)"><g transform="translate(3.226 8.124)"><g transform="translate(25.479)"><path class="m" d="M1859.219,5230.177l-25.478,16.494,24.391,35.636H1894.1Z" transform="translate(-1833.741 -5230.177)"/></g><g transform="translate(0 16.494)"><path class="n" d="M1801.926,5267.269l12.373,19.139h37.5l-24.391-35.636Z" transform="translate(-1801.926 -5250.772)"/></g></g><g transform="translate(20.072 43.012)"><path class="m" d="M1830.516,5275.614a4.106,4.106,0,1,1-5.68-1.215A4.107,4.107,0,0,1,1830.516,5275.614Z" transform="translate(-1822.962 -5273.739)"/></g><g transform="translate(0 14.277)"><rect class="o" width="26.246" height="12.319" transform="translate(0 14.263) rotate(-32.916)"/></g><g transform="translate(22.01)"><rect class="p" width="26.244" height="12.32" transform="matrix(0.839, -0.544, 0.544, 0.839, 0, 14.264)"/></g></g><path class="k" d="M1760.44,5195.892a9.478,9.478,0,0,1,1.231-18.715l12.395-.991a9.477,9.477,0,0,1,1.511,18.893l-12.395.991A9.43,9.43,0,0,1,1760.44,5195.892Z" transform="translate(-1680.879 -5052.611)"/><path class="l" d="M1785.432,5204.714a9.459,9.459,0,0,1-6.241-4.551L1753.9,5156.1a9.477,9.477,0,0,1,16.441-9.432l25.287,44.065a9.477,9.477,0,0,1-10.2,13.984Z" transform="translate(-1680.818 -5045.79)"/><path class="k" d="M1790.432,5211.271a9.453,9.453,0,0,1-6.337-4.723l-33.924-62.081a9.477,9.477,0,1,1,16.632-9.089l33.922,62.082a9.475,9.475,0,0,1-10.293,13.811Z" transform="translate(-1680.094 -5043.508)"/><path class="q" d="M1755.053,5144.273c-1.685-2.6-2.686-6.834.8-9.092,4.64-3,6.939.384,8.625,2.987Z" transform="translate(-1680.991 -5044.217)"/></g></g></svg>